<?xml version="1.0" encoding="UTF-8" standalone="no"?>
<!-- Created with Inkscape (http://www.inkscape.org/) -->

<svg
   xmlns:dc="http://purl.org/dc/elements/1.1/"
   xmlns:cc="http://creativecommons.org/ns#"
   xmlns:rdf="http://www.w3.org/1999/02/22-rdf-syntax-ns#"
   xmlns:svg="http://www.w3.org/2000/svg"
   xmlns="http://www.w3.org/2000/svg"
   xmlns:sodipodi="http://sodipodi.sourceforge.net/DTD/sodipodi-0.dtd"
   xmlns:inkscape="http://www.inkscape.org/namespaces/inkscape"
   version="1.1"
   class="themed_svg"
   width="100%"
   height="inherit"
   viewBox="0 0 1000 619"
   sodipodi:docname="become.svg"
   inkscape:version="0.92.3 (2405546, 2018-03-11)">
  <metadata
     id="metadata8">
    <rdf:RDF>
      <cc:Work
         rdf:about="">
        <dc:format>image/svg+xml</dc:format>
        <dc:type
           rdf:resource="http://purl.org/dc/dcmitype/StillImage" />
        <dc:title></dc:title>
      </cc:Work>
    </rdf:RDF>
  </metadata>
  <defs
     id="defs6" />
  <sodipodi:namedview
     pagecolor="#ffffff"
     bordercolor="#666666"
     borderopacity="1"
     objecttolerance="10"
     gridtolerance="10"
     guidetolerance="10"
     inkscape:pageopacity="0"
     inkscape:pageshadow="2"
     inkscape:window-width="660"
     inkscape:window-height="1211"
     id="namedview4"
     showgrid="false"
     inkscape:zoom="0.98429264"
     inkscape:cx="564.26095"
     inkscape:cy="198.10453"
     inkscape:window-x="1715"
     inkscape:window-y="32"
     inkscape:window-maximized="0"
     inkscape:current-layer="svg2" />
  <path
     style="fill:#000000"
     d="m 483,488.41661 c 0,-1.42086 0.85446,-6.03336 1.89881,-10.25 1.04434,-4.21663 2.18973,-9.35411 2.54531,-11.41661 0.74611,-4.32772 2.05799,-4.86988 2.97199,-1.22822 0.65113,2.59432 -2.67489,19.21868 -4.64725,23.22822 C 484.291,491.75427 483,491.59882 483,488.41661 Z M 502.55746,487.75 c -0.56058,-1.84513 -2.32991,-12.46006 -3.10365,-18.62012 -0.81621,-6.49808 1.21017,-6.86827 3.10578,-0.56738 1.66605,5.53787 3.57372,18.41278 2.89172,19.51628 -0.81644,1.32103 -2.44896,1.13555 -2.89385,-0.32878 z m 17.98716,0.0832 c -0.25103,-0.73324 -0.58877,-6.62125 -0.75052,-13.08447 -0.26502,-10.58946 -0.12296,-11.75118 1.43685,-11.75 2.40481,0.002 2.89775,2.87406 2.56063,14.9201 -0.20227,7.2275 -0.67429,10.5457 -1.54105,10.83315 -0.68721,0.22791 -1.45487,-0.18555 -1.70591,-0.91878 z m 23.09163,-3.6127 c -0.90687,-1.46735 -2.84828,-23.34176 -2.13495,-24.05509 1.26677,-1.26677 3.38652,3.09049 3.98747,8.19646 1.11736,9.49366 1.05959,15.9068 -0.14713,16.33383 -0.6371,0.22545 -1.40452,0.0116 -1.70539,-0.4752 z M 466,478.32095 c 0,-0.92348 0.88645,-4.63598 1.96988,-8.25 1.08343,-3.61402 2.217,-7.80845 2.51905,-9.32095 0.67323,-3.37122 2.26572,-3.57573 3.0644,-0.39354 0.59632,2.37594 -2.98919,16.07439 -4.81443,18.39354 -1.38782,1.76336 -2.7389,1.55171 -2.7389,-0.42905 z m -14,-2.69828 c 0,-3.41391 3.08918,-16.94722 4.12536,-18.07267 0.54696,-0.59409 1.32792,-0.49672 2.08452,0.25988 0.9465,0.9465 0.83738,2.98166 -0.50124,9.34902 C 456.05742,475.01316 454.72641,478 452.87756,478 452.3949,478 452,476.9302 452,475.62267 Z m -23.29815,-6.25415 c -0.85129,-0.8513 0.77642,-3.7898 5.74339,-10.36852 2.2839,-3.025 4.45391,-6.2875 4.82226,-7.25 0.81622,-2.13277 2.59168,-2.28055 3.3595,-0.27964 C 443.51535,453.78537 432.66825,470 430.23123,470 c -0.49384,0 -1.18206,-0.28417 -1.52938,-0.63148 z m 137.38484,-2.72825 C 563.64287,462.68608 561,455.53375 561,452.87427 561,451.84342 561.675,451 562.5,451 c 0.825,0 1.50036,0.7875 1.50079,1.75 4.3e-4,0.9625 1.35043,4.6029 3,8.08979 1.64957,3.48688 2.99921,6.97438 2.99921,7.75 0,2.42223 -1.75033,1.55025 -3.91331,-1.94952 z m 24.27099,-5.45625 c -1.5234,-0.99541 -10.57111,-19.30393 -9.88077,-19.99426 1.22805,-1.22806 5.57711,4.62355 8.93829,12.02637 3.24056,7.13715 3.53954,9.66485 0.94248,7.96789 z M 410,457.0618 c 0,-1.89782 6.54682,-19.89255 7.65215,-21.03284 0.97712,-1.00803 2.23712,2.58593 1.73988,4.96273 -0.52006,2.48587 -3.51062,10.2686 -5.73622,14.92813 C 412.13562,459.10251 410,459.76963 410,457.0618 Z m 200,-7.84058 c 0,-0.42832 -2.475,-4.94734 -5.5,-10.04227 -5.89522,-9.92916 -6.44361,-11.50749 -3.8227,-11.00227 1.87317,0.36108 12.27848,17.33477 12.30546,20.07332 0.009,0.9625 -0.65776,1.75 -1.48276,1.75 -0.825,0 -1.5,-0.35045 -1.5,-0.77878 z m -222,-3.24618 c 0,-0.56373 1.51284,-4.05123 3.36188,-7.75 1.84903,-3.69877 3.91662,-8.43584 4.59464,-10.52683 1.4031,-4.32708 3.70564,-4.43559 3.22564,-0.152 -0.45407,4.05213 -5.00213,14.5514 -7.45231,17.20379 C 389.51158,447.15132 388,447.64779 388,445.97504 Z m 75.72221,-8.02983 C 446.8601,434.74219 441.23705,432.9284 426.5,425.93869 c -14.23019,-6.7493 -30.1984,-19.36988 -37.09014,-29.31443 -14.78348,-21.33205 -18.61885,-29.45315 -21.9081,-46.38864 -2.67572,-13.77661 1.58001,-35.20244 10.27604,-51.73562 9.77414,-18.58292 20.52751,-34.79486 26.59061,-40.08843 2.27237,-1.98397 5.48159,-4.8396 7.13159,-6.34585 2.63531,-2.40573 5.61361,-3.25483 24.5,-6.98487 11.825,-2.33542 23.55518,-4.67864 26.06707,-5.20717 l 4.56706,-0.96094 -1.56706,-5.1732 C 462.9715,226.82165 455.74514,219.63268 446.23005,215 c -3.95377,-1.925 -7.19798,-3.75149 -7.20936,-4.05887 -0.13083,-3.53375 5.82351,-5.03622 51.47931,-12.98989 12.65,-2.20375 23.83279,-4.18903 24.85065,-4.41173 2.2167,-0.485 6.64935,1.37228 6.64935,2.78607 0,0.55251 -2.65522,3.76969 -5.90048,7.1493 -6.35124,6.61415 -8.08439,10.63445 -8.09394,18.77512 -0.005,4.04473 -0.29581,4.75 -1.96027,4.75 -1.45218,0 -2.12813,-0.92457 -2.62938,-3.59646 -1.09185,-5.82005 1.77167,-12.60899 9.47741,-22.46937 l 2.00516,-2.56583 -25.69925,4.67808 c -14.13459,2.57294 -29.05118,5.24692 -33.14797,5.94216 l -7.44873,1.26408 3.80182,1.95045 c 5.0989,2.6159 11.93861,9.59809 14.77946,15.08736 1.27389,2.46149 3.80091,5.71183 5.6156,7.22297 2.8517,2.3747 3.73374,2.62248 6.5,1.82597 l 3.20057,-0.92156 -4.25,-2.39306 C 474.14939,230.71584 472.80861,229 475.10498,229 c 0.60773,0 3.10529,1.35 5.55013,3 2.44483,1.65 5.02259,3 5.72836,3 2.58734,0 2.43531,-1.28161 -0.43892,-3.70011 C 484.32505,229.93717 483,228.39638 483,227.87592 c 0,-1.24103 3.82599,0.75354 7,3.64924 l 2.5,2.2808 32,-6.37024 c 17.6,-3.50363 33.35,-6.37429 35,-6.37924 1.65,-0.005 5.7,1.15197 9,2.57095 3.3,1.41898 8.63401,3.69497 11.85334,5.05776 7.77344,3.29059 20.15451,12.21821 30.84056,22.23821 10.2175,9.58065 17.103,18.07369 21.9516,27.0766 3.86151,7.17008 8.57423,20.61361 7.57613,21.61171 -1.02304,1.02304 -3.71432,-0.41408 -4.38026,-2.33903 -6.45639,-18.66245 -12.66625,-28.50747 -26.02839,-41.26507 -14.88774,-14.21418 -30.81816,-24.61639 -44.32079,-28.94049 l -6.50781,-2.08407 -71.77068,14.35974 -71.77068,14.35973 -7.05497,7.39874 c -9.54017,10.00502 -15.88153,19.15253 -22.80744,32.90008 -6.77818,13.45431 -10.56632,23.96433 -13.15527,36.49866 -2.44559,11.84025 -2.38663,14.25932 0.62116,25.48651 2.80106,10.45552 7.33484,20.51129 13.15252,29.17187 6.5684,9.77815 18.70561,23.19729 24.36249,26.93567 16.11371,10.64881 28.41545,16.18643 40.93849,18.42843 4.125,0.7385 10.425,2.00173 14,2.80718 8.04897,1.81342 33.74961,2.82897 40.5,1.60033 2.75,-0.50053 9.05,-1.35847 14,-1.90653 9.49734,-1.05155 11.29164,-1.49296 32.07761,-7.89124 16.78786,-5.16758 21.71863,-7.1276 33.92239,-13.48439 24.58843,-12.80782 41.97763,-28.60161 51.27727,-46.57272 l 3.91992,-7.57505 6.95627,-2.56773 c 3.82595,-1.41226 9.07212,-4.02348 11.65815,-5.80271 7.37732,-5.07574 22.95093,-21.11073 25.9101,-26.67773 4.43033,-8.33465 7.55374,-20.0992 9.54498,-35.95189 1.73294,-13.79633 2.22881,-15.69521 6.17939,-23.6636 2.36239,-4.76498 6.42021,-11.28998 9.01739,-14.5 l 4.72214,-5.8364 -12.64103,-0.10586 c -7.10513,-0.0595 -14.29553,-0.65189 -16.41902,-1.3527 -3.45598,-1.14058 -3.9793,-1.05775 -6.13958,0.97173 -3.63083,3.41099 -7.27908,12.06664 -9.59833,22.77251 -1.15744,5.34288 -2.81245,11.51432 -3.67779,13.71432 -2.23532,5.68298 -7.65755,12.52852 -12.53262,15.82237 -3.61043,2.4394 -4.2242,2.59298 -4.52331,1.13188 -0.20013,-0.97759 1.57248,-3.64379 4.20339,-6.32236 2.50221,-2.54754 5.49952,-6.88189 6.66069,-9.63189 1.16118,-2.75 2.5271,-5.9 3.03538,-7 0.50829,-1.1 1.83489,-5.97929 2.94801,-10.84286 2.16508,-9.45997 7.56477,-22.26168 10.35692,-24.55448 1.41049,-1.15823 3.10831,-1.20079 9.92168,-0.24873 10.39485,1.45252 24.10427,1.47147 30.76723,0.0425 7.83138,-1.67953 8.34556,-0.16228 2.31354,6.82679 -6.83256,7.91664 -10.85183,13.9952 -14.89904,22.53262 -2.85116,6.01442 -3.76525,9.72857 -5.38475,21.87962 -3.04173,22.82202 -8.83556,37.55858 -18.93716,48.16655 -11.18413,11.74477 -25.88175,22.02058 -34.45572,24.08963 -1.99589,0.48164 -3.26163,1.74633 -4.34656,4.34292 -6.18177,14.79506 -24.47322,32.92865 -46.52955,46.12798 -8.81393,5.27459 -34.16368,17.11107 -36.68269,17.12813 -0.75608,0.005 -6.38108,1.55103 -12.5,3.43535 -20.8247,6.41296 -35.54052,8.60511 -56.89386,8.47523 -11.27207,-0.0686 -19.21896,-0.66622 -26.00923,-1.95606 z m 152.81482,-13.49716 c -6.51222,-10.15547 -7.32931,-12.34979 -4.14336,-11.12723 1.87735,0.72041 13.60633,18.08227 13.60633,20.14082 0,3.79679 -3.2073,0.7418 -9.46297,-9.01359 z m -245.92435,8.1189 C 371.29405,430.79135 386.74163,417 388.0491,417 c 3.34452,0 -3.28037,8.53827 -10.46341,13.48542 -5.39042,3.71253 -7.88459,4.45707 -6.97301,2.08153 z m -10.15078,-14.6286 c -0.78323,-1.26728 1.62746,-4.23634 9.89614,-12.18835 5.8096,-5.5871 8.64196,-7.06146 8.64196,-4.49849 0,1.33809 -13.41095,15.27971 -16.19899,16.83997 -1.08724,0.60845 -1.90137,0.55516 -2.33911,-0.15313 z M 627.75,411.1006 C 622.82319,406.05728 620.52055,402 622.58511,402 623.9059,402 637,414.39529 637,415.64559 c 0,2.92053 -3.76334,1.07141 -9.25,-4.54499 z m 15.70402,-13.85954 C 637.31396,392.42622 633,388.40647 633,387.5 c 0,-1.58669 3.94571,0.0749 9.80737,4.12991 8.54466,5.91113 10.19263,7.37033 10.19263,9.02508 0,2.5657 -3.5308,1.30298 -9.54598,-3.41393 z m -288.84781,-3.06921 c -0.3213,-0.51988 0.0223,-1.44861 0.76365,-2.06384 1.68673,-1.39986 10.87497,-4.57665 15.96527,-5.51991 3.36006,-0.62263 3.79361,-0.4863 3.5,1.10062 -0.49493,2.67499 -18.93083,8.58348 -20.22892,6.48313 z M 416.5,390 c -0.33992,-0.55 0.0835,-1 0.94098,-1 0.85746,0 1.55902,0.45 1.55902,1 0,0.55 -0.42344,1 -0.94098,1 -0.51754,0 -1.2191,-0.45 -1.55902,-1 z m -10.40377,-8.8202 c -1.12769,-2.1071 -0.5394,-5.1798 0.99171,-5.1798 1.36582,0 2.28596,5.0261 1.13148,6.18058 -0.71219,0.71219 -1.37319,0.40062 -2.12319,-1.00078 z M 648.75,378.88816 c -7.71874,-3.02362 -9.08215,-4.16299 -6.27199,-5.24135 2.04634,-0.78525 17.52199,5.43876 17.52199,7.04701 0,1.97301 -2.71699,1.53693 -11.25,-1.80566 z m -286,-0.96826 c -3.06604,-1.7858 -1.89421,-2.92036 3,-2.90459 6.00176,0.0193 8.4128,1.29201 5.45084,2.8772 -2.55405,1.36689 -6.13115,1.37848 -8.45084,0.0274 z m -14.25489,-4.53745 c -16.00891,-8.39949 -25.69661,-20.85183 -28.36864,-36.46436 -1.558,-9.10334 -1.40971,-24.41365 0.29986,-30.95799 2.24496,-8.59384 10.8778,-24.94426 13.18391,-24.97005 0.48937,-0.005 9.32726,2.7407 19.63976,6.10261 17.45607,5.69073 20.87628,7.47519 17.87847,9.32794 -1.02244,0.6319 -22.7171,-6.3794 -30.79943,-9.95379 C 337.26119,285.11007 334.55294,284 334.3107,284 c -0.87857,0 -8.18238,16.64987 -9.86559,22.48973 -1.4043,4.87219 -1.60941,8.23053 -1.09932,18 0.34489,6.60565 1.04026,13.71758 1.54526,15.80429 2.28922,9.45926 14.23089,23.5565 24.78768,29.26204 5.37943,2.90738 7.26236,5.29691 4.81638,6.11224 -0.55269,0.18423 -3.25269,-0.8444 -6,-2.28585 z m 49.51104,0.13373 c -1.41436,-3.72006 -1.25309,-6.06635 0.51802,-7.53624 2.0155,-1.67272 2.21623,-1.33474 2.62649,4.42234 0.39715,5.57318 -1.49652,7.44843 -3.14451,3.1139 z M 392.79378,365.75 c -0.79218,-2.35654 0.70356,-7.25 2.21604,-7.25 1.87598,0 2.46651,3.74145 1.01779,6.44842 -1.24091,2.31864 -2.60979,2.65796 -3.23383,0.80158 z M 519.40184,344.09491 C 515.29789,342.23112 514,340.50678 514,336.91821 c 0,-2.72148 0.91164,-2.40552 4.56387,1.58179 5.12568,5.59595 12.09624,4.64258 14.88675,-2.03607 1.68101,-4.02321 3.54938,-4.55539 3.54938,-1.01098 0,3.72253 -1.85969,7.03295 -4.9895,8.88178 -3.64231,2.15156 -7.50477,2.0781 -12.60866,-0.23982 z m 138.18921,-4.94759 c -0.28984,-0.46897 0.10331,-1.70647 0.87366,-2.75 1.08055,-1.46371 1.67492,-1.62701 2.60075,-0.71454 0.66006,0.65053 0.92948,1.88803 0.59871,2.75 -0.64313,1.67596 -3.20155,2.12478 -4.07312,0.71454 z M 665,331 c 0,-2.2 0.45,-4 1,-4 0.55,0 1,1.8 1,4 0,2.2 -0.45,4 -1,4 -0.55,0 -1,-1.8 -1,-4 z m 7.60699,-3.58179 C 671.60187,324.79891 671.91798,323 673.38337,323 c 0.76085,0 1.58761,0.7875 1.83724,1.75 0.92343,3.56046 -1.372,5.90384 -2.61362,2.66821 z m -191.33951,-2.84659 c -4.11003,-3.45836 -5.01191,-7.27163 -2.34952,-9.93403 4.83569,-4.83568 14.90819,-0.51832 13.6356,5.84462 -1.22412,6.12057 -6.5701,8.05764 -11.28608,4.08941 z m 5.6014,-4.91363 C 488.17956,318.07871 487.37741,317 484.89235,317 c -2.05331,0 -3.28888,1.54939 -2.39235,3 0.87256,1.41184 3.05511,1.24098 4.36888,-0.34201 z M 471,305.61501 c 0,-1.4253 4.12265,-4.61501 5.96482,-4.61501 1.6759,0 1.18477,3.16596 -0.71482,4.60795 -2.30283,1.7481 -5.25,1.75206 -5.25,0.007 z m 96.63486,-4.68759 c -2.94833,-2.31915 -3.36842,-5.43511 -1.15819,-8.59065 2.45143,-3.49991 6.21611,-3.80847 10.12162,-0.8296 4.70815,3.59108 4.59382,7.77641 -0.28255,10.34313 -3.19559,1.68202 -5.70897,1.41482 -8.68088,-0.92288 z M 574,295.94098 C 574,294.68634 573.31366,294 572.05902,294 c -2.77982,0 -3.67673,2.07515 -1.56447,3.61967 2.17126,1.58767 3.50545,0.94876 3.50545,-1.67869 z m 69.65922,2.31664 c -0.28999,-0.46921 -0.15236,-1.4597 0.30584,-2.20108 1.01419,-1.64101 4.37608,-0.58055 3.78523,1.19399 -0.50041,1.50292 -3.35095,2.20464 -4.09107,1.00709 z M 565.5,280 c -0.90381,-1.46239 0.34502,-3 2.43657,-3 2.04023,0 4.40122,2.32888 3.38809,3.34201 C 570.30643,281.36023 566.19134,281.1186 565.5,280 Z m 32.98066,-2.39968 c -1.79822,-1.32323 -1.82484,-1.5179 -0.28907,-2.11347 2.50077,-0.9698 5.30841,-0.16949 5.30841,1.51315 0,2.03657 -2.63867,2.35216 -5.01934,0.60032 z M 349,268.63477 c -10.55025,-4.06314 -15,-6.36735 -15,-7.76744 0,-0.64627 0.70407,-0.7823 1.75,-0.33812 0.9625,0.40875 7.11408,2.59439 13.67019,4.85698 6.5561,2.2626 12.1061,4.67631 12.33333,5.36381 0.69251,2.09524 -3.72174,1.36312 -12.75352,-2.11523 z m 245,0.83385 c 0,-2.15172 2.68357,-2.93383 5.56377,-1.62152 C 603.231,269.518 602.49596,271 598,271 c -2.92532,0 -4,-0.41144 -4,-1.53138 z m -10,-11.36163 c 0,-1.01369 3.04579,-2.39454 3.74326,-1.69706 0.25136,0.25135 0.16039,0.93695 -0.20214,1.52354 C 586.74331,259.22435 584,259.35878 584,258.10699 Z m 56,-1.42003 c 0,-1.8203 4.01474,-3.23325 13.30121,-4.68123 7.03364,-1.09671 8.69879,-0.82265 8.69879,1.43173 0,0.87132 -2.63206,1.7448 -7.75,2.57194 -14.49812,2.34313 -14.25,2.33133 -14.25,0.67756 z m -289.95824,-9.20285 c -10.13779,-4.10382 -12.52252,-5.73032 -9.83402,-6.70729 1.65212,-0.60037 22.03446,7.44979 22.51541,8.89264 0.81486,2.44458 -2.77003,1.82681 -12.68139,-2.18535 z m 15.51328,-12.1216 c -3.26973,-1.40545 -7.53669,-3.63697 -9.48214,-4.95894 C 354.12746,229.08161 351.96519,228 351.26787,228 350.57054,228 350,227.325 350,226.5 c 0,-2.45364 3.25999,-1.73853 11.57673,2.53947 7.92016,4.074 11.42327,6.56274 11.42327,8.11552 0,1.24081 -0.8823,1.02839 -7.44496,-1.79248 z m 263.31129,1.29856 c 0.61116,-0.73642 5.27876,-2.60058 10.37244,-4.14258 5.09368,-1.54201 9.8346,-3.25362 10.5354,-3.80357 1.75596,-1.37802 2.88327,0.0193 1.62495,2.01412 C 650.19241,232.64207 634.91929,238 630.67278,238 c -2.32411,0 -2.69161,-0.27239 -1.80645,-1.33893 z m -2.29381,-13.54373 c -0.65684,-1.06279 7.44551,-4.66881 12.67748,-5.64223 6.37605,-1.18627 4.23591,1.09305 -3.65737,3.89522 -8.35893,2.96748 -8.27577,2.95138 -9.02011,1.74701 z M 367.73643,212.60181 C 358.1106,208.61095 353.99706,205 359.07657,205 c 3.2066,0 19.04674,7.12814 18.6334,8.38512 -0.63991,1.94594 -4.03355,1.6794 -9.97354,-0.78331 z m 247.43024,-3.51708 C 615.55887,208.00781 626.94211,196 627.57081,196 627.80686,196 628,197.06342 628,198.36316 628,201.0507 619.1248,210 616.45951,210 c -0.8944,0 -1.47618,-0.41187 -1.29284,-0.91527 z M 390.3266,199.32159 c -6.28979,-4.79351 -13.73357,-12.24795 -12.98147,-13.00005 0.92557,-0.92557 6.21299,1.5948 8.39428,4.00133 1.08535,1.19742 4.28799,3.96825 7.11698,6.15741 5.0476,3.90598 6.53902,6.51972 3.72021,6.51972 -0.78288,0 -3.59538,-1.65528 -6.25,-3.67841 z M 598,193.82874 c 0,-0.64419 0.62388,-1.88169 1.38641,-2.75 0.76252,-0.86831 2.81375,-4.27874 4.55829,-7.57874 1.74453,-3.3 3.70815,-6 4.36359,-6 1.71856,0 0.91655,4.51261 -1.37019,7.70951 -1.06595,1.49023 -1.9381,3.11704 -1.9381,3.61514 0,0.4981 -0.93266,2.09132 -2.07258,3.54049 -2.13196,2.71035 -4.92742,3.54069 -4.92742,1.4636 z m -194.37696,-4.08506 c -6.51138,-11.25267 -8.60638,-15.63594 -7.73162,-16.17658 1.14261,-0.70617 10.7646,13.21419 11.6943,16.91843 0.92985,3.70479 -1.67141,3.21781 -3.96268,-0.74185 z M 411.75,174.78987 C 405.38798,168.02969 403.62773,165 406.06208,165 407.75066,165 421,178.68063 421,180.42417 c 0,3.03541 -2.55629,1.47834 -9.25,-5.6343 z m 171.95031,5.78954 C 584.58991,178.9991 598.97711,164 599.60334,164 599.82151,164 600,165.02457 600,166.27682 600,169.02232 587.35115,182 584.67521,182 c -1.24194,0 -1.53456,-0.42639 -0.9749,-1.42059 z M 430.98862,170.31464 C 427.56841,162.77152 426.71025,157.5 428.90249,157.5 c 1.4283,0 6.88356,11.68906 7.81719,16.75 0.38143,2.06761 0.10941,2.75 -1.09622,2.75 -1.00921,0 -2.72707,-2.47787 -4.63484,-6.68536 z m 137.61655,2.85552 c -0.28208,-0.45641 0.3212,-3.71891 1.34062,-7.25 1.01943,-3.53109 2.13223,-7.65766 2.47291,-9.17016 0.72039,-3.19834 2.18014,-3.58932 3.05927,-0.8194 0.61505,1.93785 -1.82326,12.97754 -3.59926,16.29603 -1.0127,1.89225 -2.43402,2.30192 -3.27354,0.94353 z m -17.041,-4.06633 C 550.82391,167.90607 556.98348,149 558.11397,149 c 1.28498,0 1.09468,2.97622 -0.67942,10.62598 -2.15605,9.29671 -4.07127,12.38887 -5.87038,9.47785 z m -100.592,-8.54279 c -4.20841,-8.94085 -4.74217,-10.96789 -2.72217,-10.3378 1.7112,0.53377 8.67926,13.74257 8.71839,16.52676 0.0612,4.35691 -2.0656,2.16173 -5.99622,-6.18896 z m 16.93451,4.2646 C 466.38654,161.98522 465.34875,141 466.72842,141 c 1.48795,0 3.08305,7.29643 3.77108,17.25 0.61528,8.90112 -0.21769,11.01361 -2.59282,6.57564 z m 66.47233,-0.28033 c -0.58935,-1.53582 1.08112,-17.66345 2.25752,-21.79531 0.66693,-2.34247 2.08073,-2.21619 2.86535,0.25593 0.93275,2.93882 -1.6305,20.85592 -3.16598,22.13026 -0.98281,0.81566 -1.47407,0.66732 -1.95689,-0.59088 z m -40.94157,-5.04079 c -3.58707,-8.58507 -5.54443,-20.04018 -3.29627,-19.2908 1.20381,0.40127 7.76555,18.04279 7.82442,21.03628 0.0603,3.06543 -3.01301,1.88077 -4.52815,-1.74548 z m 20.13124,-1.39339 c -0.33803,-0.54694 -0.89714,-5.2957 -1.24246,-10.55279 C 511.86553,140.54502 512.01136,138 512.87393,138 c 1.87911,0 3.03658,4.37122 3.34206,12.62137 0.19037,5.1411 -0.0979,7.80428 -0.87435,8.07713 -0.6371,0.22389 -1.43493,-0.0404 -1.77296,-0.58737 z"
     id="path12"
     inkscape:connector-curvature="0" />
</svg>
