<?xml version="1.0" encoding="UTF-8" standalone="no"?>
<!-- Created with Inkscape (http://www.inkscape.org/) -->

<svg
   xmlns:dc="http://purl.org/dc/elements/1.1/"
   xmlns:cc="http://creativecommons.org/ns#"
   xmlns:rdf="http://www.w3.org/1999/02/22-rdf-syntax-ns#"
   xmlns:svg="http://www.w3.org/2000/svg"
   xmlns="http://www.w3.org/2000/svg"
   xmlns:sodipodi="http://sodipodi.sourceforge.net/DTD/sodipodi-0.dtd"
   xmlns:inkscape="http://www.inkscape.org/namespaces/inkscape"
   version="1.1"
   class="themed_svg"
   width="100%"
   height="inherit"
   viewBox="0 0 1000 619"
   sodipodi:docname="create.svg"
   inkscape:version="0.92.3 (2405546, 2018-03-11)">
  <metadata
     id="metadata8">
    <rdf:RDF>
      <cc:Work
         rdf:about="">
        <dc:format>image/svg+xml</dc:format>
        <dc:type
           rdf:resource="http://purl.org/dc/dcmitype/StillImage" />
        <dc:title></dc:title>
      </cc:Work>
    </rdf:RDF>
  </metadata>
  <defs
     id="defs6" />
  <sodipodi:namedview
     pagecolor="#ffffff"
     bordercolor="#666666"
     borderopacity="1"
     objecttolerance="10"
     gridtolerance="10"
     guidetolerance="10"
     inkscape:pageopacity="0"
     inkscape:pageshadow="2"
     inkscape:window-width="660"
     inkscape:window-height="1211"
     id="namedview4"
     showgrid="false"
     inkscape:zoom="0.49214632"
     inkscape:cx="427.03266"
     inkscape:cy="200.98228"
     inkscape:window-x="1381"
     inkscape:window-y="32"
     inkscape:window-maximized="0"
     inkscape:current-layer="svg2" />
  <path
     style="fill:#000000"
     d="m 231,488.41661 c 0,-1.42086 0.85446,-6.03336 1.89881,-10.25 1.04434,-4.21663 2.18973,-9.35411 2.54531,-11.41661 0.74611,-4.32772 2.05799,-4.86988 2.97199,-1.22822 0.65113,2.59432 -2.67489,19.21868 -4.64725,23.22822 C 232.291,491.75427 231,491.59882 231,488.41661 Z M 250.55746,487.75 c -0.56058,-1.84513 -2.32991,-12.46006 -3.10365,-18.62012 -0.81621,-6.49808 1.21017,-6.86827 3.10578,-0.56738 1.66605,5.53787 3.57372,18.41278 2.89172,19.51628 -0.81644,1.32103 -2.44896,1.13555 -2.89385,-0.32878 z m 17.98716,0.0832 c -0.25103,-0.73324 -0.58877,-6.62125 -0.75052,-13.08447 -0.26502,-10.58946 -0.12296,-11.75118 1.43685,-11.75 2.40481,0.002 2.89775,2.87406 2.56063,14.9201 -0.20227,7.2275 -0.67429,10.5457 -1.54105,10.83315 -0.68721,0.22791 -1.45487,-0.18555 -1.70591,-0.91878 z m 23.09163,-3.6127 c -0.90687,-1.46735 -2.84828,-23.34176 -2.13495,-24.05509 1.26677,-1.26677 3.38652,3.09049 3.98747,8.19646 1.11736,9.49366 1.05959,15.9068 -0.14713,16.33383 -0.6371,0.22545 -1.40452,0.0116 -1.70539,-0.4752 z M 214,478.32095 c 0,-0.92348 0.88645,-4.63598 1.96988,-8.25 1.08343,-3.61402 2.217,-7.80845 2.51905,-9.32095 0.67323,-3.37122 2.26572,-3.57573 3.0644,-0.39354 0.59632,2.37594 -2.98919,16.07439 -4.81443,18.39354 -1.38782,1.76336 -2.7389,1.55171 -2.7389,-0.42905 z m -14,-2.69828 c 0,-3.41391 3.08918,-16.94722 4.12536,-18.07267 0.54696,-0.59409 1.32792,-0.49672 2.08452,0.25988 0.9465,0.9465 0.83738,2.98166 -0.50124,9.34902 C 204.05742,475.01316 202.72641,478 200.87756,478 200.3949,478 200,476.9302 200,475.62267 Z m -23.29815,-6.25415 c -0.85129,-0.8513 0.77642,-3.7898 5.74339,-10.36852 2.2839,-3.025 4.45391,-6.2875 4.82226,-7.25 0.81622,-2.13277 2.59168,-2.28055 3.3595,-0.27964 C 191.51535,453.78537 180.66825,470 178.23123,470 c -0.49384,0 -1.18206,-0.28417 -1.52938,-0.63148 z m 137.38484,-2.72825 C 311.64287,462.68608 309,455.53375 309,452.87427 309,451.84342 309.675,451 310.5,451 c 0.825,0 1.50036,0.7875 1.50079,1.75 4.3e-4,0.9625 1.35043,4.6029 3,8.08979 1.64957,3.48688 2.99921,6.97438 2.99921,7.75 0,2.42223 -1.75033,1.55025 -3.91331,-1.94952 z m 24.27099,-5.45625 c -1.5234,-0.99541 -10.57111,-19.30393 -9.88077,-19.99426 1.22805,-1.22806 5.57711,4.62355 8.93829,12.02637 3.24056,7.13715 3.53954,9.66485 0.94248,7.96789 z M 158,457.0618 c 0,-1.89782 6.54682,-19.89255 7.65215,-21.03284 0.97712,-1.00803 2.23712,2.58593 1.73988,4.96273 -0.52006,2.48587 -3.51062,10.2686 -5.73622,14.92813 C 160.13562,459.10251 158,459.76963 158,457.0618 Z M 823.61563,445.75 C 819.64048,438.44454 817,432.73098 817,431.4349 c 0,-0.23919 0.5625,-0.42921 1.25,-0.42225 1.42728,0.0144 12.75,19.0367 12.75,21.4201 0,3.84823 -3.25889,0.89898 -7.38437,-6.68275 z m -221.98055,5.46856 C 600.57772,449.50772 610.031,433 612.06809,433 c 1.6747,0 0.98928,2.4574 -2.53842,9.10089 -3.63545,6.84638 -6.93976,10.66262 -7.89459,9.11767 z M 358,449.22122 c 0,-0.42832 -2.475,-4.94734 -5.5,-10.04227 -5.89522,-9.92916 -6.44361,-11.50749 -3.8227,-11.00227 1.87317,0.36108 12.27848,17.33477 12.30546,20.07332 0.009,0.9625 -0.65776,1.75 -1.48276,1.75 -0.825,0 -1.5,-0.35045 -1.5,-0.77878 z m -222,-3.24618 c 0,-0.56373 1.51284,-4.05123 3.36188,-7.75 1.84903,-3.69877 3.91662,-8.43584 4.59464,-10.52683 1.4031,-4.32708 3.70564,-4.43559 3.22564,-0.152 -0.45407,4.05213 -5.00213,14.5514 -7.45231,17.20379 C 137.51158,447.15132 136,447.64779 136,445.97504 Z m 228.53703,-21.52699 c -6.51222,-10.15547 -7.32931,-12.34979 -4.14336,-11.12723 1.87735,0.72041 13.60633,18.08227 13.60633,20.14082 0,3.79679 -3.2073,0.7418 -9.46297,-9.01359 z M 577,434.23978 C 577,433.09984 581.93694,428 583.04047,428 c 1.73557,0 1.00247,2.61104 -1.35492,4.82569 C 579.39119,434.98112 577,435.70278 577,434.23978 Z M 118.61268,432.56695 C 119.29405,430.79135 134.74163,417 136.0491,417 c 3.34452,0 -3.28037,8.53827 -10.46341,13.48542 -5.39042,3.71253 -7.88459,4.45707 -6.97301,2.08153 z m 554.10953,-9.62174 C 655.8601,419.74219 650.23705,417.9284 635.5,410.93869 c -14.23019,-6.7493 -30.1984,-19.36988 -37.09014,-29.31443 -14.78348,-21.33205 -18.61885,-29.45315 -21.9081,-46.38864 -2.67572,-13.77661 1.58001,-35.20244 10.27604,-51.73562 9.77414,-18.58292 20.52751,-34.79486 26.59061,-40.08843 2.27237,-1.98397 5.48159,-4.8396 7.13159,-6.34585 2.63531,-2.40573 5.61361,-3.25483 24.5,-6.98487 11.825,-2.33542 23.55518,-4.67864 26.06707,-5.20717 l 4.56706,-0.96094 -1.56706,-5.1732 C 671.9715,211.82165 664.74514,204.63268 655.23005,200 c -3.95377,-1.925 -7.19798,-3.75149 -7.20936,-4.05887 -0.13083,-3.53375 5.82351,-5.03622 51.47931,-12.98989 12.65,-2.20375 23.83279,-4.18903 24.85065,-4.41173 2.2167,-0.485 6.64935,1.37228 6.64935,2.78607 0,0.55251 -2.65522,3.76969 -5.90048,7.1493 -6.35124,6.61415 -8.08439,10.63445 -8.09394,18.77512 -0.005,4.04473 -0.29581,4.75 -1.96027,4.75 -1.45218,0 -2.12813,-0.92457 -2.62938,-3.59646 -1.09185,-5.82005 1.77167,-12.60899 9.47741,-22.46937 l 2.00516,-2.56583 -25.69925,4.67808 c -14.13459,2.57294 -29.05118,5.24692 -33.14797,5.94216 l -7.44873,1.26408 3.80182,1.95045 c 5.0989,2.6159 11.93861,9.59809 14.77946,15.08736 1.27389,2.46149 3.80091,5.71183 5.6156,7.22297 2.8517,2.3747 3.73374,2.62248 6.5,1.82597 l 3.20057,-0.92156 -4.25,-2.39306 C 683.14939,215.71584 681.80861,214 684.10498,214 c 0.60773,0 3.10529,1.35 5.55013,3 2.44483,1.65 5.02259,3 5.72836,3 2.58734,0 2.43531,-1.28161 -0.43892,-3.70011 C 693.32505,214.93717 692,213.39638 692,212.87592 c 0,-1.24103 3.82599,0.75354 7,3.64924 l 2.5,2.2808 32,-6.37024 c 17.6,-3.50363 33.35,-6.37429 35,-6.37924 1.65,-0.005 5.7,1.15197 9,2.57095 3.3,1.41898 8.63401,3.69497 11.85334,5.05776 7.77344,3.29059 20.15451,12.21821 30.84056,22.23821 10.2175,9.58065 17.103,18.07369 21.9516,27.0766 3.86151,7.17008 8.57423,20.61361 7.57613,21.61171 -1.02304,1.02304 -3.71432,-0.41408 -4.38026,-2.33903 -6.45639,-18.66245 -12.66625,-28.50747 -26.02839,-41.26507 -14.88774,-14.21418 -30.81816,-24.61639 -44.32079,-28.94049 l -6.50781,-2.08407 -71.77068,14.35974 -71.77068,14.35973 -7.05497,7.39874 c -9.54017,10.00502 -15.88153,19.15253 -22.80744,32.90008 -6.77818,13.45431 -10.56632,23.96433 -13.15527,36.49866 -2.44559,11.84025 -2.38663,14.25932 0.62116,25.48651 2.80106,10.45552 7.33484,20.51129 13.15252,29.17187 6.5684,9.77815 18.70561,23.19729 24.36249,26.93567 16.11371,10.64881 28.41545,16.18643 40.93849,18.42843 4.125,0.7385 10.425,2.00173 14,2.80718 8.04897,1.81342 33.74961,2.82897 40.5,1.60033 2.75,-0.50053 9.05,-1.35847 14,-1.90653 9.49734,-1.05155 11.29164,-1.49296 32.07761,-7.89124 16.78786,-5.16758 21.71863,-7.1276 33.92239,-13.48439 24.58843,-12.80782 41.97763,-28.60161 51.27727,-46.57272 l 3.91992,-7.57505 6.95627,-2.56773 c 3.82595,-1.41226 9.07212,-4.02348 11.65815,-5.80271 7.37732,-5.07574 22.95093,-21.11073 25.9101,-26.67773 4.43033,-8.33465 7.55374,-20.0992 9.54498,-35.95189 1.73294,-13.79633 2.22881,-15.69521 6.17939,-23.6636 2.36239,-4.76498 6.42021,-11.28998 9.01739,-14.5 l 4.72214,-5.8364 -12.64103,-0.10586 c -7.10513,-0.0595 -14.29553,-0.65189 -16.41902,-1.3527 -3.45598,-1.14058 -3.9793,-1.05775 -6.13958,0.97173 -3.63083,3.41099 -7.27908,12.06664 -9.59833,22.77251 -1.15744,5.34288 -2.81245,11.51432 -3.67779,13.71432 -2.23532,5.68298 -7.65755,12.52852 -12.53262,15.82237 -3.61043,2.4394 -4.2242,2.59298 -4.52331,1.13188 -0.20013,-0.97759 1.57248,-3.64379 4.20339,-6.32236 2.50221,-2.54754 5.49952,-6.88189 6.66069,-9.63189 1.16118,-2.75 2.5271,-5.9 3.03538,-7 0.50829,-1.1 1.83489,-5.97929 2.94801,-10.84286 2.16508,-9.45997 7.56477,-22.26168 10.35692,-24.55448 1.41049,-1.15823 3.10831,-1.20079 9.92168,-0.24873 10.39485,1.45252 24.10427,1.47147 30.76723,0.0425 7.83138,-1.67953 8.34556,-0.16228 2.31354,6.82679 -6.83256,7.91664 -10.85183,13.9952 -14.89904,22.53262 -2.85116,6.01442 -3.76525,9.72857 -5.38475,21.87962 -3.04173,22.82202 -8.83556,37.55858 -18.93716,48.16655 -11.18413,11.74477 -25.88175,22.02058 -34.45572,24.08963 -1.99589,0.48164 -3.26163,1.74633 -4.34656,4.34292 -6.18177,14.79506 -24.47322,32.92865 -46.52955,46.12798 -8.81393,5.27459 -34.16368,17.11107 -36.68269,17.12813 -0.75608,0.005 -6.38108,1.55103 -12.5,3.43535 -20.8247,6.41296 -35.54052,8.60511 -56.89386,8.47523 -11.27207,-0.0686 -19.21896,-0.66622 -26.00923,-1.95606 z M 586,423.15499 C 586,421.95393 589.43293,419 590.82874,419 c 1.52279,0 1.50565,2.26561 -0.0287,3.8 -1.37094,1.37094 -4.8,1.62454 -4.8,0.35499 z m -477.5381,-5.21664 c -0.78323,-1.26728 1.62746,-4.23634 9.89614,-12.18835 5.8096,-5.5871 8.64196,-7.06146 8.64196,-4.49849 0,1.33809 -13.41095,15.27971 -16.19899,16.83997 -1.08724,0.60845 -1.90137,0.55516 -2.33911,-0.15313 z M 375.75,411.1006 C 370.82319,406.05728 368.52055,402 370.58511,402 371.9059,402 385,414.39529 385,415.64559 c 0,2.92053 -3.76334,1.07141 -9.25,-4.54499 z m 15.70402,-13.85954 C 385.31396,392.42622 381,388.40647 381,387.5 c 0,-1.58669 3.94571,0.0749 9.80737,4.12991 8.54466,5.91113 10.19263,7.37033 10.19263,9.02508 0,2.5657 -3.5308,1.30298 -9.54598,-3.41393 z m -288.84781,-3.06921 c -0.3213,-0.51988 0.0223,-1.44861 0.76365,-2.06384 1.68673,-1.39986 10.87497,-4.57665 15.96527,-5.51991 3.36006,-0.62263 3.79361,-0.4863 3.5,1.10062 -0.49493,2.67499 -18.93083,8.58348 -20.22892,6.48313 z m 783.80007,-6.18704 c -3.24845,-2.20836 -7.48128,-5.328 -9.40628,-6.93253 -2.88465,-2.40443 -3.20869,-3.02963 -1.84305,-3.55609 2.65379,-1.02304 20.55773,11.53841 19.31403,13.55077 -0.93935,1.51989 -1.81197,1.18856 -8.0647,-3.06215 z M 86.53527,382.05707 c -0.611997,-0.99023 4.913822,-6.05294 10.35728,-9.48924 2.06063,-1.30082 5.06382,-3.76073 6.67377,-5.46647 3.15392,-3.34158 5.43368,-4.01206 5.43368,-1.59804 0,4.37584 -20.606551,19.56034 -22.46473,16.55375 z M 396.75,378.88816 c -7.71874,-3.02362 -9.08215,-4.16299 -6.27199,-5.24135 2.04634,-0.78525 17.52199,5.43876 17.52199,7.04701 0,1.97301 -2.71699,1.53693 -11.25,-1.80566 z M 625.5,375 c -0.33992,-0.55 0.0835,-1 0.94098,-1 0.85746,0 1.55902,0.45 1.55902,1 0,0.55 -0.42344,1 -0.94098,1 -0.51754,0 -1.2191,-0.45 -1.55902,-1 z m -10.40377,-8.8202 c -1.12769,-2.1071 -0.5394,-5.1798 0.99171,-5.1798 1.36582,0 2.28596,5.0261 1.13148,6.18058 -0.71219,0.71219 -1.37319,0.40062 -2.12319,-1.00078 z M 571.75,362.9199 c -3.06604,-1.7858 -1.89421,-2.92036 3,-2.90459 6.00176,0.0193 8.4128,1.29201 5.45084,2.8772 -2.55405,1.36689 -6.13115,1.37848 -8.45084,0.0274 z m -14.25489,-4.53745 c -16.00891,-8.39949 -25.69661,-20.85183 -28.36864,-36.46436 -1.558,-9.10334 -1.40971,-24.41365 0.29986,-30.95799 2.24496,-8.59384 10.8778,-24.94426 13.18391,-24.97005 0.48937,-0.005 9.32726,2.7407 19.63976,6.10261 17.45607,5.69073 20.87628,7.47519 17.87847,9.32794 -1.02244,0.6319 -22.7171,-6.3794 -30.79943,-9.95379 C 546.26119,270.11007 543.55294,269 543.3107,269 c -0.87857,0 -8.18238,16.64987 -9.86559,22.48973 -1.4043,4.87219 -1.60941,8.23053 -1.09932,18 0.34489,6.60565 1.04026,13.71758 1.54526,15.80429 2.28922,9.45926 14.23089,23.5565 24.78768,29.26204 5.37943,2.90738 7.26236,5.29691 4.81638,6.11224 -0.55269,0.18423 -3.25269,-0.8444 -6,-2.28585 z m 49.51104,0.13373 c -1.41436,-3.72006 -1.25309,-6.06635 0.51802,-7.53624 2.0155,-1.67272 2.21623,-1.33474 2.62649,4.42234 0.39715,5.57318 -1.49652,7.44843 -3.14451,3.1139 z M 400,353.45946 C 394.04753,348.41101 391.51972,345 393.7309,345 396.43856,345 411,356.1271 411,358.19617 c 0,2.39552 -5.26248,0.12944 -11,-4.73671 z M 79,353.27047 c 0,-1.99177 2.574765,-3.00929 9.279213,-3.66706 3.728567,-0.3658 8.116067,-0.93247 9.749997,-1.25925 2.29778,-0.45956 2.97079,-0.234 2.97079,0.99566 0,0.8744 -0.92846,2.08671 -2.06325,2.69403 C 96.10797,353.54777 79,354.60892 79,353.27047 Z M 601.79378,350.75 c -0.79218,-2.35654 0.70356,-7.25 2.21604,-7.25 1.87598,0 2.46651,3.74145 1.01779,6.44842 -1.24091,2.31864 -2.60979,2.65796 -3.23383,0.80158 z M 406,333.58727 c -5.93497,-2.03393 -9.5,-3.78184 -9.5,-4.65778 0,-2.42242 3.18089,-2.17252 13.25555,1.04138 11.15887,3.55977 12.7714,4.36748 11.81355,5.91733 -1.11485,1.80385 -5.46917,1.16034 -15.5691,-2.30093 z M 75.75,327.32962 c -3.142146,-0.85514 -1.853428,-2.03724 4,-3.66906 8.426522,-2.34915 20.47536,-4.76853 21.0226,-4.22129 2.17671,2.17671 -5.504441,5.07578 -21.102723,7.96473 -1.193432,0.22103 -2.957377,0.18756 -3.919877,-0.0744 z m 790.84105,-3.1823 c -0.28984,-0.46897 0.10331,-1.70647 0.87366,-2.75 1.08055,-1.46371 1.67492,-1.62701 2.60075,-0.71454 0.66006,0.65053 0.92948,1.88803 0.59871,2.75 -0.64313,1.67596 -3.20155,2.12478 -4.07312,0.71454 z M 294.41723,319.92455 C 291.87807,319.18732 289,315.74908 289,313.45295 c 0,-1.2213 3.23152,-0.22143 5,1.54705 4.25226,4.25226 13.98452,1.60888 14.01531,-3.8067 0.008,-1.48132 0.45842,-3.3683 1,-4.1933 0.87528,-1.33333 1.0941,-1.33333 1.96938,0 2.01669,3.07208 1.10913,7.10618 -2.38469,10.6 -3.62901,3.62901 -7.5031,4.26397 -14.18277,2.32455 z M 874,316 c 0,-2.2 0.45,-4 1,-4 0.55,0 1,1.8 1,4 0,2.2 -0.45,4 -1,4 -0.55,0 -1,-1.8 -1,-4 z m 7.60699,-3.58179 C 880.60187,309.79891 880.91798,308 882.38337,308 c 0.76085,0 1.58761,0.7875 1.83724,1.75 0.92343,3.56046 -1.372,5.90384 -2.61362,2.66821 z m -475.8584,-0.87296 c -9.2111,-1.08446 -13.09056,-2.54827 -11.33931,-4.27858 0.42676,-0.42167 4.29967,-0.67466 8.60646,-0.56221 8.1834,0.21367 15.44532,2.41236 14.75984,4.46881 -0.55242,1.65725 -0.9943,1.67091 -12.02699,0.37198 z M 253.94174,309.52849 C 246.72043,305.60082 249.1422,297 257.46944,297 c 4.58023,0 7.53056,2.74247 7.53056,7 0,5.95534 -5.35305,8.63155 -11.05826,5.52849 z m 5.09343,-5.07087 c 0.92413,-1.1135 0.97687,-1.84558 0.18967,-2.63278 -1.5761,-1.5761 -4.22484,-0.23206 -4.22484,2.14378 0,2.40201 2.22385,2.67151 4.03517,0.489 z M 86.077225,300.73319 c -7.740559,-3.37161 -10.853896,-6.48042 -5.454624,-5.44669 2.842872,0.54429 14.527164,4.37863 17.317879,5.68307 0.79227,0.37033 1.61727,1.20367 1.83333,1.85187 0.74674,2.2402 -6.185958,1.18321 -13.696585,-2.08825 z M 399.25,297.33961 c -1.2375,-0.26329 -2.25,-0.84116 -2.25,-1.28416 0,-1.22509 5.45501,-2.05716 13.375,-2.04014 7.03292,0.0151 10.82855,1.1133 9.26395,2.68032 -0.89154,0.89291 -16.84987,1.39695 -20.38895,0.64398 z M 240.45425,293.92597 C 239.66758,292.65312 243.76641,288 245.67431,288 c 1.9554,0 1.61216,2.31539 -0.71327,4.81144 -2.25668,2.42227 -3.50741,2.73157 -4.50679,1.11453 z M 90.25,284.66789 C 85.582122,284.01879 83,283.2071 83,282.38888 c 0,-2.31998 1.996151,-2.56519 10.936539,-1.34343 9.910411,1.35433 12.473051,2.35744 10.063461,3.93924 -1.71956,1.12881 -3.67892,1.08367 -13.75,-0.3168 z m 762.40922,-1.41027 c -0.28999,-0.46921 -0.15236,-1.4597 0.30584,-2.20108 1.01419,-1.64101 4.37608,-0.58055 3.78523,1.19399 -0.50041,1.50292 -3.35095,2.20464 -4.09107,1.00709 z M 397.17668,278.25 c 0.22351,-1.20978 2.79292,-2.55257 8.32332,-4.34983 12.72957,-4.13685 13.5,-4.25081 13.5,-1.99687 0,1.58409 -1.82319,2.50782 -9.9063,5.01905 -11.51326,3.57689 -12.34981,3.67009 -11.91702,1.32765 z M 97,268.63477 c -10.550252,-4.06314 -15,-6.36735 -15,-7.76744 0,-0.64627 0.704073,-0.7823 1.75,-0.33812 0.9625,0.40875 7.114083,2.59439 13.67019,4.85698 6.5561,2.2626 12.1061,4.67631 12.33333,5.36381 0.69251,2.09524 -3.72174,1.36312 -12.75352,-2.11523 z m 235.45455,-2.08932 c -3.14504,-3.14503 -3.11062,-5.98029 0.11174,-9.20265 2.06279,-2.06279 3.17804,-2.44393 5.68438,-1.94267 6.84696,1.3694 9.07884,7.62232 4.11447,11.52729 -3.49526,2.74937 -6.9109,2.61773 -9.91059,-0.38197 z m 7.30028,-4.29492 c 0.49438,-1.50117 -2.16537,-2.6907 -4.23797,-1.89537 -2.19316,0.84159 -0.65915,3.80938 1.78209,3.44771 1.12442,-0.16658 2.22956,-0.86513 2.45588,-1.55234 z m 467.72583,0.34979 c -1.79822,-1.32323 -1.82484,-1.5179 -0.28907,-2.11347 2.50077,-0.9698 5.30841,-0.16949 5.30841,1.51315 0,2.03657 -2.63867,2.35216 -5.01934,0.60032 z M 388,256.70922 c 0,-0.87333 1.42368,-2.00977 3.25,-2.59429 5.69628,-1.82312 22.18634,-4.07859 23.10471,-3.16022 1.37799,1.37799 -4.16386,3.70844 -11.85471,4.98512 -14.74736,2.44807 -14.5,2.43494 -14.5,0.76939 z m 415,-2.2406 c 0,-2.15172 2.68357,-2.93383 5.56377,-1.62152 C 812.231,254.518 811.49596,256 807,256 c -2.92532,0 -4,-0.41144 -4,-1.53138 z M 98.04176,247.48411 c -10.137794,-4.10382 -12.522519,-5.73032 -9.834024,-6.70729 1.652127,-0.60037 22.034464,7.44979 22.515414,8.89264 0.81486,2.44458 -2.77003,1.82681 -12.68139,-2.18535 z M 327.19037,246.25 c 0.2126,-1.10396 1.24982,-1.75 2.80963,-1.75 1.55981,0 2.59703,0.64604 2.80963,1.75 0.26332,1.3673 -0.3511,1.75 -2.80963,1.75 -2.45853,0 -3.07295,-0.3827 -2.80963,-1.75 z M 793,243.10699 c 0,-1.01369 3.04579,-2.39454 3.74326,-1.69706 0.25136,0.25135 0.16039,0.93695 -0.20214,1.52354 C 795.74331,244.22435 793,244.35878 793,243.10699 Z m -679.44496,-7.74448 c -3.26973,-1.40545 -7.53669,-3.63697 -9.48214,-4.95894 C 102.12746,229.08161 99.96519,228 99.26787,228 98.57054,228 98,227.325 98,226.5 c 0,-2.45364 3.25999,-1.73853 11.57673,2.53947 7.92016,4.074 11.42327,6.56274 11.42327,8.11552 0,1.24081 -0.8823,1.02839 -7.44496,-1.79248 z m 263.31129,1.29856 c 0.61116,-0.73642 5.27876,-2.60058 10.37244,-4.14258 5.09368,-1.54201 9.8346,-3.25362 10.5354,-3.80357 1.75596,-1.37802 2.88327,0.0193 1.62495,2.01412 C 398.19241,232.64207 382.91929,238 378.67278,238 c -2.32411,0 -2.69161,-0.27239 -1.80645,-1.33893 z m -2.29381,-13.54373 c -0.65684,-1.06279 7.44551,-4.66881 12.67748,-5.64223 6.37605,-1.18627 4.23591,1.09305 -3.65737,3.89522 -8.35893,2.96748 -8.27577,2.95138 -9.02011,1.74701 z M 115.73643,212.60181 C 106.1106,208.61095 101.99706,205 107.07657,205 c 3.2066,0 19.04674,7.12814 18.6334,8.38512 -0.63991,1.94594 -4.03355,1.6794 -9.97354,-0.78331 z m 247.43024,-3.51708 C 363.55887,208.00781 374.94211,196 375.57081,196 375.80686,196 376,197.06342 376,198.36316 376,201.0507 367.1248,210 364.45951,210 c -0.8944,0 -1.47618,-0.41187 -1.29284,-0.91527 z M 138.3266,199.32159 c -6.28979,-4.79351 -13.73357,-12.24795 -12.98147,-13.00005 0.92557,-0.92557 6.21299,1.5948 8.39428,4.00133 1.08535,1.19742 4.28799,3.96825 7.11698,6.15741 5.0476,3.90598 6.53902,6.51972 3.72021,6.51972 -0.78288,0 -3.59538,-1.65528 -6.25,-3.67841 z M 346,193.82874 c 0,-0.64419 0.62388,-1.88169 1.38641,-2.75 0.76252,-0.86831 2.81375,-4.27874 4.55829,-7.57874 1.74453,-3.3 3.70815,-6 4.36359,-6 1.71856,0 0.91655,4.51261 -1.37019,7.70951 -1.06595,1.49023 -1.9381,3.11704 -1.9381,3.61514 0,0.4981 -0.93266,2.09132 -2.07258,3.54049 -2.13196,2.71035 -4.92742,3.54069 -4.92742,1.4636 z m -194.37696,-4.08506 c -6.51138,-11.25267 -8.60638,-15.63594 -7.73162,-16.17658 1.14261,-0.70617 10.7646,13.21419 11.6943,16.91843 0.92985,3.70479 -1.67141,3.21781 -3.96268,-0.74185 z m 435.78464,-4.02594 C 580.60589,181.00884 575,176.42154 575,175.56456 c 0,-2.81366 14.16126,5.5834 19.92431,11.81431 2.22707,2.40787 2.26775,2.61851 0.5,2.58887 -1.05837,-0.0177 -4.66586,-1.93024 -8.01663,-4.25 z M 159.75,174.78987 C 153.38798,168.02969 151.62773,165 154.06208,165 155.75066,165 169,178.68063 169,180.42417 c 0,3.03541 -2.55629,1.47834 -9.25,-5.6343 z m 171.95031,5.78954 C 332.58991,178.9991 346.97711,164 347.60334,164 347.82151,164 348,165.02457 348,166.27682 348,169.02232 335.35115,182 332.67521,182 c -1.24194,0 -1.53456,-0.42639 -0.9749,-1.42059 z M 178.98862,170.31464 C 175.56841,162.77152 174.71025,157.5 176.90249,157.5 c 1.4283,0 6.88356,11.68906 7.81719,16.75 0.38143,2.06761 0.10941,2.75 -1.09622,2.75 -1.00921,0 -2.72707,-2.47787 -4.63484,-6.68536 z m 137.61655,2.85552 c -0.28208,-0.45641 0.3212,-3.71891 1.34062,-7.25 1.01943,-3.53109 2.13223,-7.65766 2.47291,-9.17016 0.72039,-3.19834 2.18014,-3.58932 3.05927,-0.8194 0.61505,1.93785 -1.82326,12.97754 -3.59926,16.29603 -1.0127,1.89225 -2.43402,2.30192 -3.27354,0.94353 z m -17.041,-4.06633 C 298.82391,167.90607 304.98348,149 306.11397,149 c 1.28498,0 1.09468,2.97622 -0.67942,10.62598 -2.15605,9.29671 -4.07127,12.38887 -5.87038,9.47785 z m -100.592,-8.54279 c -4.20841,-8.94085 -4.74217,-10.96789 -2.72217,-10.3378 1.7112,0.53377 8.67926,13.74257 8.71839,16.52676 0.0612,4.35691 -2.0656,2.16173 -5.99622,-6.18896 z m 16.93451,4.2646 C 214.38654,161.98522 213.34875,141 214.72842,141 c 1.48795,0 3.08305,7.29643 3.77108,17.25 0.61528,8.90112 -0.21769,11.01361 -2.59282,6.57564 z m 66.47233,-0.28033 c -0.58935,-1.53582 1.08112,-17.66345 2.25752,-21.79531 0.66693,-2.34247 2.08073,-2.21619 2.86535,0.25593 0.93275,2.93882 -1.6305,20.85592 -3.16598,22.13026 -0.98281,0.81566 -1.47407,0.66732 -1.95689,-0.59088 z m -40.94157,-5.04079 c -3.58707,-8.58507 -5.54443,-20.04018 -3.29627,-19.2908 1.20381,0.40127 7.76555,18.04279 7.82442,21.03628 0.0603,3.06543 -3.01301,1.88077 -4.52815,-1.74548 z m 20.13124,-1.39339 c -0.33803,-0.54694 -0.89714,-5.2957 -1.24246,-10.55279 C 259.86553,140.54502 260.01136,138 260.87393,138 c 1.87911,0 3.03658,4.37122 3.34206,12.62137 0.19037,5.1411 -0.0979,7.80428 -0.87435,8.07713 -0.6371,0.22389 -1.43493,-0.0404 -1.77296,-0.58737 z m 537.8902,-3.17766 c -0.92034,-1.48915 0.14673,-2.29879 2.06137,-1.56407 0.88358,0.33906 1.32643,1.06965 0.98412,1.62354 -0.81058,1.31154 -2.21511,1.28411 -3.04549,-0.0595 z M 805,149.64752 C 805,148.43091 815.99692,139 817.41555,139 c 1.63478,0 0.24475,3.93524 -2.16555,6.13077 -5.62574,5.12443 -10.25,7.16215 -10.25,4.51675 z m -26.40141,-6.488 c -0.256,-0.41422 2.0843,-5.00707 5.20066,-10.20632 3.79996,-6.33974 5.78333,-8.85078 6.02199,-7.6241 0.45774,2.35266 -1.41879,6.94699 -5.26597,12.89278 -3.03768,4.69469 -5.06713,6.37696 -5.95668,4.93764 z"
     id="path12"
     inkscape:connector-curvature="0" />
</svg>
