<?xml version="1.0" encoding="UTF-8" standalone="no"?>
<!-- Created with Inkscape (http://www.inkscape.org/) -->

<svg
   xmlns:dc="http://purl.org/dc/elements/1.1/"
   xmlns:cc="http://creativecommons.org/ns#"
   xmlns:rdf="http://www.w3.org/1999/02/22-rdf-syntax-ns#"
   xmlns:svg="http://www.w3.org/2000/svg"
   xmlns="http://www.w3.org/2000/svg"
   xmlns:sodipodi="http://sodipodi.sourceforge.net/DTD/sodipodi-0.dtd"
   xmlns:inkscape="http://www.inkscape.org/namespaces/inkscape"
   version="1.1"
   id="svg2"
   width="1000"
   height="619"
   viewBox="0 0 1000 619"
   sodipodi:docname="drop.svg"
   inkscape:version="0.92.3 (2405546, 2018-03-11)">
  <metadata
     id="metadata8">
    <rdf:RDF>
      <cc:Work
         rdf:about="">
        <dc:format>image/svg+xml</dc:format>
        <dc:type
           rdf:resource="http://purl.org/dc/dcmitype/StillImage" />
        <dc:title></dc:title>
      </cc:Work>
    </rdf:RDF>
  </metadata>
  <defs
     id="defs6" />
  <sodipodi:namedview
     pagecolor="#ffffff"
     bordercolor="#666666"
     borderopacity="1"
     objecttolerance="10"
     gridtolerance="10"
     guidetolerance="10"
     inkscape:pageopacity="0"
     inkscape:pageshadow="2"
     inkscape:window-width="640"
     inkscape:window-height="1211"
     id="namedview4"
     showgrid="false"
     inkscape:zoom="3.9371706"
     inkscape:cx="425.35514"
     inkscape:cy="296.47288"
     inkscape:window-x="1730"
     inkscape:window-y="32"
     inkscape:window-maximized="0"
     inkscape:current-layer="svg2" />
  <path
     style="fill:#000000"
     d="m 718.882,478.17969 c -6.2601,-3.75117 -16.23635,-9.4097 -22.16945,-12.57451 -5.9331,-3.16482 -13.5831,-7.87441 -17,-10.46578 -9.85231,-7.47194 -29.22603,-19.39972 -41.42386,-25.50335 -6.16622,-3.0855 -14.49122,-7.79555 -18.5,-10.46678 -4.00878,-2.67124 -10.56822,-6.7885 -14.57653,-9.14948 -4.00831,-2.36098 -7.83331,-5.24378 -8.5,-6.40624 -1.49601,-2.60848 -1.15447,-120.53021 0.35354,-122.06355 0.59008,-0.6 1.25617,-0.6 1.80795,0 0.48051,0.5225 1.22539,25.7 1.65529,55.95 0.87354,61.4666 0.91206,62.78651 1.87809,64.34956 0.3795,0.61405 5.05567,3.68497 10.39148,6.82428 5.33582,3.1393 12.85149,7.63546 16.70149,9.99145 3.85,2.356 10.375,6.03693 14.5,8.17984 4.125,2.14292 11.775,7.08672 17,10.98622 5.225,3.8995 13.775,9.42616 19,12.28146 5.225,2.85531 10.22825,5.81413 11.11834,6.57516 2.19624,1.87782 12.93912,8.31203 13.87816,8.31203 0.41481,0 6.55978,3.52181 13.65549,7.82625 l 12.9013,7.82626 15.8269,-9.73412 c 8.7048,-5.35376 39.51781,-24.00281 68.47336,-41.44234 L 868.5,397.76783 868.1587,364.63391 c -0.41228,-40.02372 0.78841,-117.78463 1.80895,-117.1539 0.40299,0.24906 1.34085,4.63045 2.08414,9.73641 1.02168,7.01836 1.36324,25.14375 1.39982,74.28358 0.0266,35.75 -0.27375,66.125 -0.66747,67.5 -0.56202,1.96275 -7.3314,6.46182 -31.5,20.93559 C 824.35286,430.07517 806,441.14893 800.5,444.54394 778.92925,457.85904 732.62281,485 731.47606,485 c -0.66664,0 -6.33397,-3.06914 -12.59406,-6.82031 z m 10.78467,-4.84636 C 728.65998,472.32665 728.86704,465 729.90217,465 c 1.26328,0 3.13238,5.7464 2.44864,7.52818 -0.60577,1.57862 -1.60957,1.87973 -2.68414,0.80515 z m -0.29012,-14.79443 c -0.30837,-0.80361 -0.40675,-26.58627 -0.21861,-57.29481 0.3301,-53.88181 0.41198,-55.93702 2.34206,-58.7889 l 2,-2.95519 0.57857,9 c 0.74739,11.62612 0.25345,93.62215 -0.62498,103.75 -0.49598,5.71838 -1.04498,7.75 -2.09427,7.75 -0.78215,0 -1.67439,-0.6575 -1.98277,-1.4611 z M 222.72221,445.94521 C 205.8601,442.74219 200.23705,440.9284 185.5,433.93869 c -14.23019,-6.7493 -30.1984,-19.36988 -37.09014,-29.31443 -14.78348,-21.33205 -18.61885,-29.45315 -21.9081,-46.38864 -2.67572,-13.77661 1.58001,-35.20244 10.27604,-51.73562 9.77414,-18.58292 20.52751,-34.79486 26.59061,-40.08843 2.27237,-1.98397 5.48159,-4.8396 7.13159,-6.34585 2.63531,-2.40573 5.61361,-3.25483 24.5,-6.98487 11.825,-2.33542 23.55518,-4.67864 26.06707,-5.20717 l 4.56706,-0.96094 -1.56706,-5.1732 C 221.9715,234.82165 214.74514,227.63268 205.23005,223 c -3.95377,-1.925 -7.19798,-3.75149 -7.20936,-4.05887 -0.13083,-3.53375 5.82351,-5.03622 51.47931,-12.98989 12.65,-2.20375 23.83279,-4.18903 24.85065,-4.41173 2.2167,-0.485 6.64935,1.37228 6.64935,2.78607 0,0.55251 -2.65522,3.76969 -5.90048,7.1493 -6.35124,6.61415 -8.08439,10.63445 -8.09394,18.77512 -0.005,4.04473 -0.29581,4.75 -1.96027,4.75 -1.45218,0 -2.12813,-0.92457 -2.62938,-3.59646 -1.09185,-5.82005 1.77167,-12.60899 9.47741,-22.46937 l 2.00516,-2.56583 -25.69925,4.67808 c -14.13459,2.57294 -29.05118,5.24692 -33.14797,5.94216 l -7.44873,1.26408 3.80182,1.95045 c 5.0989,2.6159 11.93861,9.59809 14.77946,15.08736 1.27389,2.46149 3.80091,5.71183 5.6156,7.22297 2.8517,2.3747 3.73374,2.62248 6.5,1.82597 l 3.20057,-0.92156 -4.25,-2.39306 C 233.14939,238.71584 231.80861,237 234.10498,237 c 0.60773,0 3.10529,1.35 5.55013,3 2.44483,1.65 5.02259,3 5.72836,3 2.58734,0 2.43531,-1.28161 -0.43892,-3.70011 C 243.32505,237.93717 242,236.39638 242,235.87592 c 0,-1.24103 3.82599,0.75354 7,3.64924 l 2.5,2.2808 32,-6.37024 c 17.6,-3.50363 33.35,-6.37429 35,-6.37924 1.65,-0.005 5.7,1.15197 9,2.57095 3.3,1.41898 8.63401,3.69497 11.85334,5.05776 7.77344,3.29059 20.15451,12.21821 30.84056,22.23821 10.2175,9.58065 17.103,18.07369 21.9516,27.0766 3.86151,7.17008 8.57423,20.61361 7.57613,21.61171 -1.02304,1.02304 -3.71432,-0.41408 -4.38026,-2.33903 -6.45639,-18.66245 -12.66625,-28.50747 -26.02839,-41.26507 -14.88774,-14.21418 -30.81816,-24.61639 -44.32079,-28.94049 l -6.50781,-2.08407 -71.77068,14.35974 -71.77068,14.35973 -7.05497,7.39874 c -9.54017,10.00502 -15.88153,19.15253 -22.80744,32.90008 -6.77818,13.45431 -10.56632,23.96433 -13.15527,36.49866 -2.44559,11.84025 -2.38663,14.25932 0.62116,25.48651 2.80106,10.45552 7.33484,20.51129 13.15252,29.17187 6.5684,9.77815 18.70561,23.19729 24.36249,26.93567 16.11371,10.64881 28.41545,16.18643 40.93849,18.42843 4.125,0.7385 10.425,2.00173 14,2.80718 8.04897,1.81342 33.74961,2.82897 40.5,1.60033 2.75,-0.50053 9.05,-1.35847 14,-1.90653 9.49734,-1.05155 11.29164,-1.49296 32.07761,-7.89124 16.78786,-5.16758 21.71863,-7.1276 33.92239,-13.48439 24.58843,-12.80782 41.97763,-28.60161 51.27727,-46.57272 l 3.91992,-7.57505 6.95627,-2.56773 c 3.82595,-1.41226 9.07212,-4.02348 11.65815,-5.80271 7.37732,-5.07574 22.95093,-21.11073 25.9101,-26.67773 4.43033,-8.33465 7.55374,-20.0992 9.54498,-35.95189 1.73294,-13.79633 2.22881,-15.69521 6.17939,-23.6636 2.36239,-4.76498 6.42021,-11.28998 9.01739,-14.5 l 4.72214,-5.8364 -12.64103,-0.10586 c -7.10513,-0.0595 -14.29553,-0.65189 -16.41902,-1.3527 -3.45598,-1.14058 -3.9793,-1.05775 -6.13958,0.97173 -3.63083,3.41099 -7.27908,12.06664 -9.59833,22.77251 -1.15744,5.34288 -2.81245,11.51432 -3.67779,13.71432 -2.23532,5.68298 -7.65755,12.52852 -12.53262,15.82237 -3.61043,2.4394 -4.2242,2.59298 -4.52331,1.13188 -0.20013,-0.97759 1.57248,-3.64379 4.20339,-6.32236 2.50221,-2.54754 5.49952,-6.88189 6.66069,-9.63189 1.16118,-2.75 2.5271,-5.9 3.03538,-7 0.50829,-1.1 1.83489,-5.97929 2.94801,-10.84286 2.16508,-9.45997 7.56477,-22.26168 10.35692,-24.55448 1.41049,-1.15823 3.10831,-1.20079 9.92168,-0.24873 10.39485,1.45252 24.10427,1.47147 30.76723,0.0425 7.83138,-1.67953 8.34556,-0.16228 2.31354,6.82679 -6.83256,7.91664 -10.85183,13.9952 -14.89904,22.53262 -2.85116,6.01442 -3.76525,9.72857 -5.38475,21.87962 -3.04173,22.82202 -8.83556,37.55858 -18.93716,48.16655 -11.18413,11.74477 -25.88175,22.02058 -34.45572,24.08963 -1.99589,0.48164 -3.26163,1.74633 -4.34656,4.34292 -6.18177,14.79506 -24.47322,32.92865 -46.52955,46.12798 -8.81393,5.27459 -34.16368,17.11107 -36.68269,17.12813 -0.75608,0.005 -6.38108,1.55103 -12.5,3.43535 -20.8247,6.41296 -35.54052,8.60511 -56.89386,8.47523 -11.27207,-0.0686 -19.21896,-0.66622 -26.00923,-1.95606 z M 619.59556,404.15462 C 618.39459,402.21142 617.77828,395 618.81317,395 c 1.44489,0 1.94187,0.95459 3.03891,5.83716 0.73509,3.27167 0.6496,4.16284 -0.39936,4.16284 -0.73408,0 -1.5698,-0.38042 -1.85716,-0.84538 z m -8.92889,-4.82129 c -1.02467,-1.02466 -0.79027,-9.13891 0.28316,-9.80232 1.41048,-0.87173 3.05017,2.83928 3.05017,6.90325 0,3.35643 -1.53818,4.69422 -3.33333,2.89907 z m 230.74719,-0.69722 c -0.85623,-2.23128 -0.0844,-5.9233 1.33614,-6.39112 0.84142,-0.2771 1.25,0.74032 1.25,3.11266 0,3.73076 -1.62303,5.78828 -2.58614,3.27846 z M 175.5,398 c -0.33992,-0.55 0.0835,-1 0.94098,-1 0.85746,0 1.55902,0.45 1.55902,1 0,0.55 -0.42344,1 -0.94098,1 -0.51754,0 -1.2191,-0.45 -1.55902,-1 z m 678.13948,-4.69385 C 852.3516,392.01826 853.00325,388 854.5,388 c 0.92366,0 1.5,0.93789 1.5,2.44098 0,2.50921 -1.22707,3.99861 -2.36052,2.86517 z M 165.09623,389.1798 c -1.12769,-2.1071 -0.5394,-5.1798 0.99171,-5.1798 1.36582,0 2.28596,5.0261 1.13148,6.18058 -0.71219,0.71219 -1.37319,0.40062 -2.12319,-1.00078 z M 121.75,385.9199 c -3.06604,-1.7858 -1.89421,-2.92036 3,-2.90459 6.00176,0.0193 8.4128,1.29201 5.45084,2.8772 -2.55405,1.36689 -6.13115,1.37848 -8.45084,0.0274 z m -14.25489,-4.53745 c -16.008907,-8.39949 -25.696605,-20.85183 -28.368638,-36.46436 -1.558005,-9.10334 -1.409708,-24.41365 0.299862,-30.95799 2.244958,-8.59384 10.877798,-24.94426 13.183909,-24.97005 0.489366,-0.005 9.327257,2.7407 19.639757,6.10261 17.45607,5.69073 20.87628,7.47519 17.87847,9.32794 -1.02244,0.6319 -22.7171,-6.3794 -30.79943,-9.95379 C 96.26119,293.11007 93.552942,292 93.310702,292 c -0.878568,0 -8.182384,16.64987 -9.865594,22.48973 -1.404303,4.87219 -1.609408,8.23053 -1.099322,18 0.344896,6.60565 1.040265,13.71758 1.545266,15.80429 2.289214,9.45926 14.230888,23.5565 24.787678,29.26204 5.37943,2.90738 7.26236,5.29691 4.81638,6.11224 -0.55269,0.18423 -3.25269,-0.8444 -6,-2.28585 z m 49.51104,0.13373 c -1.41436,-3.72006 -1.25309,-6.06635 0.51802,-7.53624 2.0155,-1.67272 2.21623,-1.33474 2.62649,4.42234 0.39715,5.57318 -1.49652,7.44843 -3.14451,3.1139 z M 151.79378,373.75 c -0.79218,-2.35654 0.70356,-7.25 2.21604,-7.25 1.87598,0 2.46651,3.74145 1.01779,6.44842 -1.24091,2.31864 -2.60979,2.65796 -3.23383,0.80158 z M 278.40184,358.09491 C 274.29789,356.23112 273,354.50678 273,350.91821 c 0,-2.72148 0.91164,-2.40552 4.56387,1.58179 5.12568,5.59595 12.09624,4.64258 14.88675,-2.03607 1.98599,-4.75312 3.98769,-4.57501 3.21495,0.28607 -0.77873,4.89884 -5.47048,9.25833 -9.93135,9.22804 -1.77882,-0.0121 -5.07839,-0.85949 -7.33238,-1.88313 z M 713,345.28173 c -3.575,-1.91032 -34.4,-20.16997 -68.5,-40.57698 -34.1,-20.40702 -64.025,-38.17644 -66.5,-39.48759 -2.475,-1.31116 -4.8283,-2.6972 -5.22955,-3.08009 -1.34336,-1.2819 5.30589,-12.32275 39.22817,-65.13707 45.84278,-71.3736 46.91133,-73 47.96126,-73 0.50715,0 1.19254,0.4376 1.52309,0.97245 0.56382,0.91228 -60.26643,96.55701 -77.77879,122.29329 -4.40332,6.47115 -7.82562,11.90235 -7.60511,12.06933 0.22051,0.16697 1.97593,1.22384 3.90093,2.34858 18.3178,10.70278 132.81077,79.80895 134.74263,81.32854 1.3899,1.0933 2.85272,1.98781 3.25072,1.98781 1.15861,0 10.60787,-14.21426 45.20458,-68 17.86577,-27.775 35.05483,-54.47195 38.19793,-59.32656 4.63299,-7.15582 5.97767,-8.60833 7.10391,-7.67363 1.15265,0.95661 0.60936,2.3745 -3.19047,8.32656 -62.85265,98.45274 -83.38391,129.98343 -84.8093,130.2451 -0.55,0.10097 -3.925,-1.37941 -7.5,-3.28974 z m -296.40895,1.86559 c -0.28984,-0.46897 0.10331,-1.70647 0.87366,-2.75 1.08055,-1.46371 1.67492,-1.62701 2.60075,-0.71454 0.66006,0.65053 0.92948,1.88803 0.59871,2.75 -0.64313,1.67596 -3.20155,2.12478 -4.07312,0.71454 z M 424,339 c 0,-2.2 0.45,-4 1,-4 0.55,0 1,1.8 1,4 0,2.2 -0.45,4 -1,4 -0.55,0 -1,-1.8 -1,-4 z m -183.3437,-0.13253 c -2.22002,-1.29047 -4.85209,-7.19369 -4.09135,-9.17612 0.62045,-1.61687 4.6925,-3.69319 7.2321,-3.68761 0.93662,0.002 3.21152,0.92345 5.05532,2.04755 3.10123,1.89071 3.30253,2.32118 2.68709,5.74627 -0.3659,2.03634 -1.39798,4.26494 -2.2935,4.95244 -1.97719,1.51791 -6.08383,1.57407 -8.58966,0.11747 z m 5.28582,-5.29773 c 0.94697,-1.14103 0.79074,-1.64234 -0.77255,-2.47899 -1.47503,-0.78941 -2.25408,-0.69385 -3.15065,0.38646 -1.34174,1.61669 -0.57468,3.52279 1.41765,3.52279 0.7252,0 1.8527,-0.64362 2.50555,-1.43026 z m 185.66487,1.84847 C 430.60187,332.79891 430.91798,331 432.38337,331 c 0.76085,0 1.58761,0.7875 1.83724,1.75 0.92343,3.56046 -1.372,5.90384 -2.61362,2.66821 z M 230.66667,320.33333 c -1.20027,-1.20026 -0.70611,-2.26138 1.82561,-3.92023 1.37075,-0.89815 3.23816,-1.34678 4.1498,-0.99695 1.46198,0.56101 1.38335,0.92788 -0.6666,3.10995 -2.32338,2.47312 -4.05384,3.06221 -5.30881,1.80723 z m 95.78788,-5.78788 c -1.35,-1.35 -2.45455,-3.27487 -2.45455,-4.27749 0,-2.88551 2.69399,-5.97564 5.72119,-6.56247 3.98649,-0.77279 9.27881,3.38444 9.27881,7.2887 0,5.79248 -8.03091,8.06581 -12.54545,3.55126 z m 6.94171,-3.13569 C 334.21538,309.27517 333.29716,308 330.94098,308 329.72548,308 329,308.68525 329,309.83333 c 0,3.3301 3.27295,4.50372 4.39626,1.57643 z m 69.26296,-5.15214 c -0.28999,-0.46921 -0.15236,-1.4597 0.30584,-2.20108 1.01419,-1.64101 4.37608,-0.58055 3.78523,1.19399 -0.50041,1.50292 -3.35095,2.20464 -4.09107,1.00709 z M 325,293.55902 c 0,-1.96125 1.234,-2.5721 3.82646,-1.89415 C 332.14292,292.53214 331.53137,295 328,295 c -1.94539,0 -3,-0.50656 -3,-1.44098 z m 32.48066,-7.9587 c -1.79822,-1.32323 -1.82484,-1.5179 -0.28907,-2.11347 2.50077,-0.9698 5.30841,-0.16949 5.30841,1.51315 0,2.03657 -2.63867,2.35216 -5.01934,0.60032 z M 353,277.46862 c 0,-2.15172 2.68357,-2.93383 5.56377,-1.62152 C 362.231,277.518 361.49596,279 357,279 c -2.92532,0 -4,-0.41144 -4,-1.53138 z m 505.34508,-3.01175 c -0.32569,-0.84872 -0.32244,-1.81284 0.007,-2.1425 0.86466,-0.86466 3.7309,1.74199 3.07767,2.79894 -0.85349,1.38097 -2.43195,1.04509 -3.08489,-0.65644 z M 343,266.10699 c 0,-1.01369 3.04579,-2.39454 3.74326,-1.69706 0.25136,0.25135 0.16039,0.93695 -0.20214,1.52354 C 345.74331,267.22435 343,267.35878 343,266.10699 Z m 515.2448,-0.64808 C 855.72275,263.6924 855.29842,262 857.37756,262 c 1.70547,0 3.93446,2.56395 3.46178,3.98199 -0.21612,0.64835 -1.20742,0.4485 -2.59454,-0.52308 z M 603,263 c 0,-0.55 0.45,-1 1,-1 0.55,0 1,0.45 1,1 0,0.55 -0.45,1 -1,1 -0.55,0 -1,-0.45 -1,-1 z m -8.27732,-2.61065 C 593.86293,259.52959 595.77839,256 597.10473,256 c 0.56891,0 0.89057,0.97725 0.71482,2.17167 -0.32779,2.22766 -1.93555,3.37899 -3.09687,2.21768 z M 894,256.2695 c -8.07802,-4.34876 -77.2557,-45.45921 -161.5,-95.97514 -35.2,-21.10719 -64.64493,-38.72576 -65.43317,-39.15237 -1.90222,-1.02951 -3.65614,-3.88601 -2.86922,-4.67293 0.85968,-0.85968 5.80405,1.95745 56.80239,32.36399 129.01481,76.92199 182,109.16749 182,110.76076 0,1.01342 -3.00263,-0.0957 -9,-3.32431 z m -36.83703,0.13209 c -2.53979,-1.77893 -2.99749,-4.9358 -0.58118,-4.00858 0.86998,0.33385 1.75415,0.60699 1.96481,0.60699 0.21067,0 0.85008,0.87269 1.42092,1.93931 1.37786,2.57456 -0.10943,3.35002 -2.80455,1.46228 z M 589.50555,256.00898 C 588.76961,254.81821 590.65811,252 592.192,252 c 1.32822,0 0.56147,4.25995 -0.85036,4.72446 -0.6371,0.20961 -1.46334,-0.11235 -1.83609,-0.71548 z"
     id="path12"
     inkscape:connector-curvature="0" />
</svg>
