<?xml version="1.0" encoding="UTF-8" standalone="no"?>
<!-- Created with Inkscape (http://www.inkscape.org/) -->

<svg
   xmlns:dc="http://purl.org/dc/elements/1.1/"
   xmlns:cc="http://creativecommons.org/ns#"
   xmlns:rdf="http://www.w3.org/1999/02/22-rdf-syntax-ns#"
   xmlns:svg="http://www.w3.org/2000/svg"
   xmlns="http://www.w3.org/2000/svg"
   xmlns:sodipodi="http://sodipodi.sourceforge.net/DTD/sodipodi-0.dtd"
   xmlns:inkscape="http://www.inkscape.org/namespaces/inkscape"
   version="1.1"
   id="svg2"
   width="1000"
   height="619"
   viewBox="0 0 1000 619"
   sodipodi:docname="enter.svg"
   inkscape:version="0.92.3 (2405546, 2018-03-11)">
  <metadata
     id="metadata8">
    <rdf:RDF>
      <cc:Work
         rdf:about="">
        <dc:format>image/svg+xml</dc:format>
        <dc:type
           rdf:resource="http://purl.org/dc/dcmitype/StillImage" />
        <dc:title></dc:title>
      </cc:Work>
    </rdf:RDF>
  </metadata>
  <defs
     id="defs6" />
  <sodipodi:namedview
     pagecolor="#ffffff"
     bordercolor="#666666"
     borderopacity="1"
     objecttolerance="10"
     gridtolerance="10"
     guidetolerance="10"
     inkscape:pageopacity="0"
     inkscape:pageshadow="2"
     inkscape:window-width="640"
     inkscape:window-height="1211"
     id="namedview4"
     showgrid="false"
     inkscape:zoom="1.392"
     inkscape:cx="481.11917"
     inkscape:cy="215.65294"
     inkscape:window-x="1730"
     inkscape:window-y="32"
     inkscape:window-maximized="0"
     inkscape:current-layer="svg2" />
  <path
     style="fill:#000000"
     d="M 499.66667,554.33333 C 498.61626,553.28293 498.86583,421 499.91821,421 c 0.50502,0 1.63002,-0.27314 2.5,-0.60699 1.43254,-0.54972 1.58179,5.62271 1.58179,65.41821 0,36.31386 -0.27314,66.73701 -0.60699,67.60699 -0.62378,1.62556 -2.54427,2.0972 -3.72634,0.91512 z m 9.51378,-5.3561 c 0.21943,-1.38899 26.42005,-20.63099 83.62226,-61.41302 45.81649,-32.66464 84.06649,-59.9919 85,-60.72723 1.57211,-1.23837 1.67643,-6.44201 1.41451,-70.55542 l -0.28278,-69.21845 -3.21722,0.61249 -3.21722,0.6125 2.44368,-2.66466 c 2.91619,-3.17991 3.73603,-2.20318 -11.44368,-13.63354 -6.05,-4.55566 -11.14992,-8.66683 -11.33316,-9.13594 -0.18323,-0.4691 0.35157,-1.11566 1.18845,-1.4368 0.93485,-0.35874 6.35922,2.77525 14.06672,8.12719 12.29874,8.54003 17.14846,12.60606 13.32799,11.17427 -0.9625,-0.36072 -1.75,-0.21997 -1.75,0.31276 0,0.53274 0.87354,0.96862 1.9412,0.96862 1.796,0 1.96862,0.91626 2.30783,12.25 0.63152,21.10036 0.0325,128.08868 -0.73607,131.47273 -0.65687,2.89215 -8.38867,8.68211 -75.37246,56.44272 -41.05227,29.27099 -79.53158,56.73326 -85.50957,61.02727 -5.97799,4.294 -11.29679,7.80728 -11.81955,7.80728 -0.52277,0 -0.80668,-0.91025 -0.63093,-2.02277 z M 480.5,542.64655 c -5.5,-4.00766 -41.39067,-29.65739 -79.75705,-56.99938 l -69.75705,-49.71272 0.1658,-4.21722 c 0.0912,-2.31948 0.0771,-35.71064 -0.0313,-74.20258 -0.18643,-66.18567 -0.10004,-70.05872 1.59124,-71.33661 0.98361,-0.74319 12.73952,-9.20534 26.12424,-18.80478 18.04574,-12.94229 24.83436,-17.29531 26.26452,-16.8414 1.06076,0.33667 1.69428,0.99137 1.40781,1.45489 -0.28647,0.46351 -11.7889,8.86861 -25.56097,18.678 L 335.9071,288.5 l 3.98506,3.5 c 2.19178,1.925 5.25018,4.52836 6.79645,5.78525 2.85845,2.3235 140.5187,100.97047 149.34624,107.02113 l 4.82381,3.30637 3.82067,-1.97633 c 2.10137,-1.08698 5.50921,-3.58735 7.57299,-5.55638 2.06378,-1.96902 4.26743,-3.58004 4.89701,-3.58004 0.62958,0 2.99103,-1.49325 5.24768,-3.31833 2.25664,-1.82508 6.68651,-4.78083 9.84415,-6.56833 3.15763,-1.7875 6.30763,-4.04676 7,-5.02058 0.69236,-0.97382 4.40884,-3.73198 8.25884,-6.12926 3.85,-2.39727 8.98238,-5.95726 11.40528,-7.91109 2.42291,-1.95382 7.69411,-5.80241 11.71378,-8.55241 23.56332,-16.12052 34.73004,-25.0069 38.1582,-30.36597 4.56101,-7.13001 13.2681,-24.81474 16.55974,-33.63403 3.69562,-9.90167 7.4264,-26.52663 8.19089,-36.5 0.67282,-8.77743 -0.82834,-23.82436 -2.73165,-27.38073 -0.85266,-1.59321 -0.17114,-3.68074 3.60486,-11.04195 6.13159,-11.95335 7.91521,-20.4241 8.01765,-38.07732 0.0798,-13.75668 0.021,-14.14773 -3.38387,-22.5 -1.90582,-4.675 -5.46543,-11.65 -7.91023,-15.5 -7.54216,-11.87713 -11.26637,-18.51207 -12.2494,-21.82318 -2.03526,-6.85531 -3.87492,-18.48143 -3.87508,-24.48944 L 615,91.874753 608.63751,97.18738 c -6.5005,5.42787 -9.76567,7.6032 -17.34084,11.55291 -3.50559,1.82781 -4.29667,2.75573 -4.29667,5.0399 0,5.10166 3.01825,14.49783 7.92569,24.67364 2.66471,5.52539 5.40806,12.19451 6.09633,14.82026 2.13568,8.14766 -0.33939,23.36726 -3.38854,20.83669 -0.97681,-0.81069 -1.20637,-3.08562 -0.85843,-8.5072 0.57086,-8.89531 -1.04647,-15.13455 -7.285,-28.10358 -4.45289,-9.25692 -7.93779,-21.36474 -7.3326,-25.47609 0.25229,-1.71395 3.0106,-4.00069 10.46869,-8.67895 6.68996,-4.19642 12.5632,-8.917433 17.30795,-13.91242 3.94999,-4.158316 7.71823,-7.381841 8.37386,-7.163387 0.82786,0.27584 1.23142,4.190755 1.3209,12.814017 0.1321,12.73035 1.87799,22.93063 5.10074,29.80089 0.93291,1.98877 4.3012,7.76687 7.4851,12.84024 7.52156,11.98517 10.24694,18.0747 13.41281,29.96931 2.26106,8.4951 2.50711,10.88332 1.90898,18.52923 -1.08735,13.89965 -4.93369,29.15766 -9.12316,36.19054 -3.86768,6.4927 -3.82354,5.91163 -1.44986,19.08662 3.16359,17.55933 -4.27308,50.27435 -17.3329,76.25 -2.55785,5.0875 -4.39008,9.25 -4.07162,9.25 0.31845,0 11.68547,-7.94628 25.26003,-17.6584 13.57457,-9.71213 25.51392,-17.87648 26.5319,-18.14301 7.35079,-1.92463 -4.78755,7.47751 -65.8605,51.01435 C 502.13707,413.03855 501,413.87425 501,416.0694 c 0,1.06183 -0.44143,1.9306 -0.98095,1.9306 -0.90531,0 -1.48886,-1.65332 -2.23012,-6.31842 -0.15891,-1.00013 -1.61149,-2.57513 -3.22796,-3.5 -3.07322,-1.75836 -6.53514,-4.16401 -26.16131,-18.17923 C 461.85485,385.32865 432.65,364.52377 403.5,343.76928 374.35,323.0148 347.64011,303.73362 344.1447,300.92223 c -3.54941,-2.85483 -6.73517,-4.73176 -7.2157,-4.25123 -0.47321,0.47321 -0.98833,30.77833 -1.1447,67.3447 -0.15636,36.56636 -0.60327,67.1593 -0.99313,67.9843 -0.5392,1.14104 18.12657,14.90544 78,57.51827 59.2838,42.19319 78.78769,56.56905 79.02838,58.25 0.17575,1.22745 -0.0492,2.2167 -0.5,2.19834 C 490.8688,549.94824 486,546.65422 480.5,542.64655 Z M 363.51008,440.98369 c 0.34546,-0.55897 1.04702,-0.75742 1.55902,-0.44098 1.38704,0.85723 1.12841,1.45729 -0.62812,1.45729 -0.85746,0 -1.27636,-0.45734 -0.9309,-1.01631 z m -10.05187,-2.232 c -0.84401,-2.19944 -0.16723,-6.76811 1.04179,-7.03278 1.37047,-0.30001 1.89685,6.28424 0.60562,7.57547 -0.72007,0.72007 -1.22691,0.55311 -1.64741,-0.54269 z m -7.77071,-4.39752 C 345.30937,433.97604 345,431.68367 345,429.26001 c 0,-3.65854 0.2971,-4.34944 1.75,-4.06964 1.35067,0.26012 1.75,1.34174 1.75,4.73999 0,4.10793 -1.21589,6.02041 -2.8125,4.42381 z m 307.02537,-8.06236 c -0.29494,-1.5355 -0.31421,-3.0161 -0.0428,-3.29024 0.70621,-0.71333 3.42134,3.2242 3.03091,4.39549 -0.72297,2.16891 -2.48433,1.51742 -2.98811,-1.10525 z m 6.84383,-6.51432 C 657.60052,416.98466 657.56235,415 659.46482,415 c 1.60595,0 3.53518,2.9656 3.53518,5.43426 0,2.24208 -1.63072,1.93104 -3.4433,-0.65677 z m 6.65933,-4.02749 c -1.3991,-1.69983 -2.68475,-10.75 -1.52712,-10.75 0.92932,0 4.32511,8.45792 4.31604,10.75 -0.003,0.6875 -0.39985,1.25 -0.88251,1.25 -0.48265,0 -1.34054,-0.5625 -1.90641,-1.25 z M 496.90481,381.71483 c -3.85189,-2.59579 -5.07966,-5.73 -2.22813,-5.68793 2.56221,0.0378 8.79193,5.40586 7.91682,6.82182 -1.00475,1.62571 -1.84111,1.459 -5.68869,-1.13389 z m -11.21772,-1.51955 C 482.78602,377.16722 482.21278,375 484.31291,375 c 1.61453,0 6.68709,5.16178 6.68709,6.80472 0,2.06805 -2.52144,1.30423 -5.31291,-1.60944 z M 505.2,376.8 c -1.80126,-1.80126 -1.44487,-3.8 0.67756,-3.8 2.2521,0 4.55303,2.49428 3.64951,3.9562 -0.86105,1.3932 -2.84945,1.32142 -4.32707,-0.1562 z M 385,320 c -1.63785,-1.63785 -2,-3.33333 -2,-9.36351 0,-4.04993 0.49491,-9.78743 1.09981,-12.75 0.60489,-2.96257 1.20736,-6.62092 1.33883,-8.12966 0.13146,-1.50874 0.92275,-3.53374 1.75842,-4.5 7.24419,-8.37621 31.79612,-38.59574 31.77152,-39.10568 -0.0572,-1.18423 -4.89144,-4.21265 -9.08851,-5.69346 -2.27234,-0.80173 -6.66245,-1.43809 -9.7558,-1.41414 -5.16446,0.04 -7.5447,0.38963 -16.87427,2.47871 -2.98302,0.66796 -3.25,0.52569 -3.25,-1.73186 0,-2.51595 8.96381,-13.7139 36.5,-45.59729 11.89633,-13.77443 17.51927,-18.58899 18.96953,-16.24241 0.28256,0.45719 0.40501,5.26782 0.27211,10.69028 -0.22535,9.19417 -0.0549,10.17672 2.52775,14.57018 1.52317,2.59114 3.54817,5.15317 4.5,5.69339 1.64023,0.93092 1.63995,1.07397 -0.005,2.73923 -1.65461,1.67453 -1.8755,1.62347 -4.70509,-1.08744 C 434.12382,206.78639 432,200.19008 432,191.73853 c 0,-3.79786 -0.3713,-6.7552 -0.8251,-6.57186 -0.45381,0.18333 -9.11631,9.97567 -19.25,21.76074 -26.74268,31.10066 -24.58192,28.41589 -22.28233,27.68603 5.00721,-1.58922 14.95336,-0.75514 22.14033,1.85668 8.72994,3.17256 13.79843,3.07561 16.03259,-0.30668 1.54271,-2.33551 1.54141,-2.33649 -2.88604,-2.15727 -6.06354,0.24545 -6.70695,0.0946 -4.66573,-1.09395 0.97004,-0.56482 3.92588,-1.0437 6.56852,-1.06417 3.61577,-0.028 5.09928,-0.50875 5.99476,-1.94263 C 433.93119,228.13732 433.69202,228 429.50847,228 427.02881,228 425,227.60109 425,227.11354 c 0,-1.05386 8.58318,-2.48918 9.92523,-1.65975 1.05307,0.65083 3.81,-2.45956 28.40354,-32.04509 17.01457,-20.46819 17.68969,-21.13928 22.85188,-22.71552 2.92564,-0.89332 6.66935,-1.91203 8.31935,-2.2638 1.65,-0.35177 5.87964,-1.49839 9.3992,-2.54803 5.61093,-1.67336 8.87526,-1.85947 26.5,-1.51089 21.90836,0.43331 31.41322,1.98058 43.36666,7.05952 7.28058,3.09348 19.23414,10.37289 19.23414,11.7131 0,1.68741 -3.23839,2.18933 -5.38247,0.83423 C 567.392,171.19432 548.49017,166.83793 520,168.3932 c -21.29143,1.1623 -35.64377,5.76128 -41.45331,13.28306 -4.10608,5.31627 -39.89846,48.69983 -71.84212,87.07907 l -17.69115,21.25534 -0.25671,15.99246 C 388.61552,314.79898 388.1625,321.99658 387.75,321.9978 387.3375,321.99901 386.1,321.1 385,320 Z M 498.94885,307.94885 C 495.05867,304.05867 499.68034,297 506.11761,297 c 4.08904,0 6.88239,2.63815 6.88239,6.5 0,1.13024 -0.70052,3.05512 -1.5567,4.27749 -2.12973,3.04062 -9.52379,3.14202 -12.49445,0.17136 z m 7.8707,-4.70907 C 507.02429,301.8047 506.61919,301 505.692,301 c -1.93878,0 -4.03349,2.63844 -3.18485,4.01156 1.11666,1.80681 3.96904,0.63489 4.3124,-1.77178 z m -21.45961,0.25583 c -0.78141,-2.03633 0.69906,-6.82846 2.14006,-6.92713 1.69256,-0.1159 1.74455,5.98367 0.0629,7.37932 -1.27612,1.05908 -1.65269,0.98178 -2.20296,-0.45219 z m 53.84584,-7.06403 c -3.11769,-2.18371 -1.95855,-3.30799 3.20453,-3.10817 3.1458,0.12175 5.00801,-0.39201 6.58108,-1.81562 3.907,-3.53578 4.37384,-5.37146 2.45065,-9.63632 -2.15266,-4.77375 -1.27148,-5.99932 2.0619,-2.86777 1.87487,1.76135 2.49606,3.36608 2.49606,6.44811 0,5.17075 -2.14033,8.25389 -7.3825,10.63444 -5.05587,2.29595 -6.54862,2.35073 -9.41172,0.34533 z m 105.0419,-38.37702 c -1.37795,-1.14949 -2.01578,-2.49531 -1.64301,-3.46673 0.77932,-2.03088 0.99909,-2.00616 4.5324,0.50977 2.34952,1.67301 2.71022,2.38148 1.78193,3.5 -1.48615,1.7907 -1.93653,1.73834 -4.67132,-0.54304 z m -255.1433,-10.96889 c -1.99461,-1.26298 4.29637,-4.41064 7.0613,-3.53308 1.95756,0.6213 1.91568,0.75456 -0.79998,2.54493 -3.20047,2.11001 -4.23239,2.27286 -6.26132,0.98815 z M 548,232.21653 c -5.01401,-1.59615 -6.61912,-7.59741 -3,-11.21653 2.97671,-2.97671 9.46334,-2.74868 11.52992,0.40533 1.39588,2.13037 1.41081,2.80075 0.13063,5.86467 -1.47393,3.5276 -5.64113,5.90772 -8.66055,4.94653 z m 3.66417,-5.78375 c 0.33077,-0.86197 0.0884,-2.08018 -0.53853,-2.70714 -1.40744,-1.40744 -4.74172,1.4685 -3.68495,3.1784 0.9981,1.61495 3.53139,1.33229 4.22348,-0.47126 z m -18.96232,-8.06426 C 531.56238,217.22905 534.02626,214 536.03518,214 c 2.52567,0 2.54586,2.61867 0.0306,3.96482 -2.26365,1.21147 -2.52478,1.24281 -3.36389,0.4037 z M 630,200.5 c 0,-2.80891 1.15974,-3.21737 2.96365,-1.0438 1.39021,1.6751 0.58729,3.5438 -1.52267,3.5438 C 630.5706,203 630,202.01005 630,200.5 Z m 1.65499,-7.32874 C 629.8859,191.21644 629.45551,189 630.84501,189 c 1.20106,0 4.15499,3.43293 4.15499,4.82874 0,1.71632 -1.45569,1.4302 -3.34501,-0.65748 z M 544,192.02568 c 0,-1.67495 5.78024,-4.19027 6.59602,-2.87031 0.39024,0.63142 -0.12023,1.75477 -1.13437,2.49633 C 547.32031,193.21749 544,193.44484 544,192.02568 Z M 537.5,189 c -0.89564,-1.44918 0.32391,-2.98255 3.25998,-4.09884 3.95726,-1.50455 4.90403,0.48984 1.41269,2.97588 C 538.78582,190.2887 538.35974,190.39109 537.5,189 Z M 523,185.55902 c 0,-1.61407 1.4163,-2.80939 2.29162,-1.93407 C 526.072,184.40533 524.99677,187 523.89301,187 523.40186,187 523,186.35156 523,185.55902 Z m 111.25,-1.2213 C 632.59792,183.67109 632.63793,181 634.3,181 c 1.44095,0 3.7,1.95378 3.7,3.2 0,0.87138 -1.77065,0.93641 -3.75,0.13772 z m -40.29431,-4.89111 c -0.90307,-1.08814 -0.96109,-1.84121 -0.20044,-2.60186 C 595.03689,175.56311 597,176.56455 597,178.5 c 0,2.13701 -1.63455,2.64526 -3.04431,0.94661 z"
     id="path12"
     inkscape:connector-curvature="0" />
</svg>
