<?xml version="1.0" encoding="UTF-8" standalone="no"?>
<!-- Created with Inkscape (http://www.inkscape.org/) -->

<svg
   xmlns:dc="http://purl.org/dc/elements/1.1/"
   xmlns:cc="http://creativecommons.org/ns#"
   xmlns:rdf="http://www.w3.org/1999/02/22-rdf-syntax-ns#"
   xmlns:svg="http://www.w3.org/2000/svg"
   xmlns="http://www.w3.org/2000/svg"
   xmlns:sodipodi="http://sodipodi.sourceforge.net/DTD/sodipodi-0.dtd"
   xmlns:inkscape="http://www.inkscape.org/namespaces/inkscape"
   version="1.1"
   class="themed_svg"
   width="100%"
   height="inherit"
   viewBox="0 0 1000 619"
   sodipodi:docname="inventory.svg"
   inkscape:version="0.92.3 (2405546, 2018-03-11)">
  <metadata
     id="metadata8">
    <rdf:RDF>
      <cc:Work
         rdf:about="">
        <dc:format>image/svg+xml</dc:format>
        <dc:type
           rdf:resource="http://purl.org/dc/dcmitype/StillImage" />
        <dc:title></dc:title>
      </cc:Work>
    </rdf:RDF>
  </metadata>
  <defs
     id="defs6" />
  <sodipodi:namedview
     pagecolor="#ffffff"
     bordercolor="#666666"
     borderopacity="1"
     objecttolerance="10"
     gridtolerance="10"
     guidetolerance="10"
     inkscape:pageopacity="0"
     inkscape:pageshadow="2"
     inkscape:window-width="640"
     inkscape:window-height="1211"
     id="namedview4"
     showgrid="false"
     inkscape:zoom="2.784"
     inkscape:cx="494.32462"
     inkscape:cy="306.05753"
     inkscape:window-x="1730"
     inkscape:window-y="32"
     inkscape:window-maximized="0"
     inkscape:current-layer="svg2" />
  <path
     style="fill:#000000"
     d="M 463.72221,437.94521 C 446.8601,434.74219 441.23705,432.9284 426.5,425.93869 c -14.23019,-6.7493 -30.1984,-19.36988 -37.09014,-29.31443 -14.78348,-21.33205 -18.61885,-29.45315 -21.9081,-46.38864 -2.67572,-13.77661 1.58001,-35.20244 10.27604,-51.73562 9.77414,-18.58292 20.52751,-34.79486 26.59061,-40.08843 2.27237,-1.98397 5.48159,-4.8396 7.13159,-6.34585 2.63531,-2.40573 5.61361,-3.25483 24.5,-6.98487 11.825,-2.33542 23.55518,-4.67864 26.06707,-5.20717 l 4.56706,-0.96094 -1.56706,-5.1732 C 462.9715,226.82165 455.74514,219.63268 446.23005,215 c -3.95377,-1.925 -7.19798,-3.75149 -7.20936,-4.05887 -0.13083,-3.53375 5.82351,-5.03622 51.47931,-12.98989 12.65,-2.20375 23.83279,-4.18903 24.85065,-4.41173 2.2167,-0.485 6.64935,1.37228 6.64935,2.78607 0,0.55251 -2.65522,3.76969 -5.90048,7.1493 -6.35124,6.61415 -8.08439,10.63445 -8.09394,18.77512 -0.005,4.04473 -0.29581,4.75 -1.96027,4.75 -1.45218,0 -2.12813,-0.92457 -2.62938,-3.59646 -1.09185,-5.82005 1.77167,-12.60899 9.47741,-22.46937 l 2.00516,-2.56583 -25.69925,4.67808 c -14.13459,2.57294 -29.05118,5.24692 -33.14797,5.94216 l -7.44873,1.26408 3.80182,1.95045 c 5.0989,2.6159 11.93861,9.59809 14.77946,15.08736 1.27389,2.46149 3.80091,5.71183 5.6156,7.22297 2.8517,2.3747 3.73374,2.62248 6.5,1.82597 l 3.20057,-0.92156 -4.25,-2.39306 C 474.14939,230.71584 472.80861,229 475.10498,229 c 0.60773,0 3.10529,1.35 5.55013,3 2.44483,1.65 5.02259,3 5.72836,3 2.58734,0 2.43531,-1.28161 -0.43892,-3.70011 C 484.32505,229.93717 483,228.39638 483,227.87592 c 0,-1.24103 3.82599,0.75354 7,3.64924 l 2.5,2.2808 32,-6.37024 c 17.6,-3.50363 33.35,-6.37429 35,-6.37924 1.65,-0.005 5.7,1.15197 9,2.57095 3.3,1.41898 8.63401,3.69497 11.85334,5.05776 7.77344,3.29059 20.15451,12.21821 30.84056,22.23821 10.2175,9.58065 17.103,18.07369 21.9516,27.0766 3.86151,7.17008 8.57423,20.61361 7.57613,21.61171 -1.02304,1.02304 -3.71432,-0.41408 -4.38026,-2.33903 -6.45639,-18.66245 -12.66625,-28.50747 -26.02839,-41.26507 -14.88774,-14.21418 -30.81816,-24.61639 -44.32079,-28.94049 l -6.50781,-2.08407 -71.77068,14.35974 -71.77068,14.35973 -7.05497,7.39874 c -9.54017,10.00502 -15.88153,19.15253 -22.80744,32.90008 -6.77818,13.45431 -10.56632,23.96433 -13.15527,36.49866 -2.44559,11.84025 -2.38663,14.25932 0.62116,25.48651 2.80106,10.45552 7.33484,20.51129 13.15252,29.17187 6.5684,9.77815 18.70561,23.19729 24.36249,26.93567 16.11371,10.64881 28.41545,16.18643 40.93849,18.42843 4.125,0.7385 10.425,2.00173 14,2.80718 8.04897,1.81342 33.74961,2.82897 40.5,1.60033 2.75,-0.50053 9.05,-1.35847 14,-1.90653 9.49734,-1.05155 11.29164,-1.49296 32.07761,-7.89124 16.78786,-5.16758 21.71863,-7.1276 33.92239,-13.48439 24.58843,-12.80782 41.97763,-28.60161 51.27727,-46.57272 l 3.91992,-7.57505 6.95627,-2.56773 c 3.82595,-1.41226 9.07212,-4.02348 11.65815,-5.80271 7.37732,-5.07574 22.95093,-21.11073 25.9101,-26.67773 4.43033,-8.33465 7.55374,-20.0992 9.54498,-35.95189 1.73294,-13.79633 2.22881,-15.69521 6.17939,-23.6636 2.36239,-4.76498 6.42021,-11.28998 9.01739,-14.5 l 4.72214,-5.8364 -12.64103,-0.10586 c -7.10513,-0.0595 -14.29553,-0.65189 -16.41902,-1.3527 -3.45598,-1.14058 -3.9793,-1.05775 -6.13958,0.97173 -3.63083,3.41099 -7.27908,12.06664 -9.59833,22.77251 -1.15744,5.34288 -2.81245,11.51432 -3.67779,13.71432 -2.23532,5.68298 -7.65755,12.52852 -12.53262,15.82237 -3.61043,2.4394 -4.2242,2.59298 -4.52331,1.13188 -0.20013,-0.97759 1.57248,-3.64379 4.20339,-6.32236 2.50221,-2.54754 5.49952,-6.88189 6.66069,-9.63189 1.16118,-2.75 2.5271,-5.9 3.03538,-7 0.50829,-1.1 1.83489,-5.97929 2.94801,-10.84286 2.16508,-9.45997 7.56477,-22.26168 10.35692,-24.55448 1.41049,-1.15823 3.10831,-1.20079 9.92168,-0.24873 10.39485,1.45252 24.10427,1.47147 30.76723,0.0425 7.83138,-1.67953 8.34556,-0.16228 2.31354,6.82679 -6.83256,7.91664 -10.85183,13.9952 -14.89904,22.53262 -2.85116,6.01442 -3.76525,9.72857 -5.38475,21.87962 -3.04173,22.82202 -8.83556,37.55858 -18.93716,48.16655 -11.18413,11.74477 -25.88175,22.02058 -34.45572,24.08963 -1.99589,0.48164 -3.26163,1.74633 -4.34656,4.34292 -6.18177,14.79506 -24.47322,32.92865 -46.52955,46.12798 -8.81393,5.27459 -34.16368,17.11107 -36.68269,17.12813 -0.75608,0.005 -6.38108,1.55103 -12.5,3.43535 -20.8247,6.41296 -35.54052,8.60511 -56.89386,8.47523 -11.27207,-0.0686 -19.21896,-0.66622 -26.00923,-1.95606 z M 505.5,410.02107 c -1.1,-0.46476 -4.81369,-2.79714 -8.25264,-5.18305 C 493.8084,402.45211 485.74791,396.9 479.33515,392.5 472.9224,388.1 466.17359,383.09687 464.3378,381.38192 L 461,378.26385 461.009,366.38192 C 461.01945,351.67217 461.87343,344 463.5,344 c 1.62574,0 2.48054,7.6707 2.49131,22.35608 0.0101,13.7709 -1.75123,11.23352 16.46144,23.71451 6.07599,4.16383 14.08475,9.71112 17.79725,12.32732 l 6.75,4.75672 v -21.19976 c 0,-18.68972 -0.17683,-21.05301 -1.49348,-19.96028 -1.19897,0.99506 -2.13566,0.92735 -4.75,-0.34337 -9.34363,-4.54152 -33.84291,-21.01943 -40.89312,-27.5042 -5.05431,-4.64894 -5.26995,-5.04025 -3.7418,-6.79013 0.89187,-1.02129 4.44016,-6.58189 7.88508,-12.35689 3.44491,-5.775 9.07158,-14.58124 12.5037,-19.56942 3.43212,-4.98818 6.53624,-10.0021 6.89804,-11.14203 1.21861,-3.83952 4.03515,-3.26432 12.72817,2.59936 4.59987,3.10275 13.31341,8.85941 19.36341,12.79258 6.05,3.93318 15.5,10.35941 21,14.28052 5.5,3.92111 12.25,8.65675 15,10.52365 7.05762,4.79123 12.78014,10.25305 12.0241,11.47634 -1.09857,1.77753 -2.22993,1.21293 -9.44002,-4.711 -3.84912,-3.1625 -9.38018,-7.45672 -12.29124,-9.54271 l -5.29284,-3.79272 -2.30266,2.79272 c -1.26646,1.53599 -3.02157,4.14271 -3.90024,5.79271 -0.87867,1.65 -4.4495,7.05 -7.93518,12 -3.48567,4.95 -7.7391,11.025 -9.45206,13.5 l -3.11447,4.5 -0.14769,24.91562 c -0.0927,15.63911 -0.52002,25.01518 -1.1477,25.18305 -0.55,0.14709 -1.9,-0.11283 -3,-0.5776 z M 513.71565,348 c 4.26008,-6.325 10.55506,-15.19298 13.98883,-19.70662 l 6.24323,-8.20661 -10.72385,-7.39624 C 517.32574,308.62259 508.45,302.89168 503.5,299.95516 c -4.95,-2.93651 -10.48326,-6.44697 -12.29613,-7.80101 -3.77733,-2.82131 -3.23016,-3.22178 -10.03661,7.34585 -2.83397,4.4 -6.51998,10.025 -8.19113,12.5 -1.67115,2.475 -5.45216,8.41077 -8.40226,13.1906 l -5.36382,8.6906 6.64498,4.93714 c 3.65473,2.71543 11.59497,8.11257 17.64497,11.99366 6.05,3.88108 12.8,8.39276 15,10.02595 l 4,2.96944 1.73503,-2.1537 C 505.18929,360.46916 509.45557,354.325 513.71565,348 Z M 475,336.5 c 0,-0.825 0.675,-1.5 1.5,-1.5 0.825,0 1.5,0.675 1.5,1.5 0,0.825 -0.675,1.5 -1.5,1.5 -0.825,0 -1.5,-0.675 -1.5,-1.5 z m -5.50437,-2.50706 c -0.34231,-0.55389 0.10054,-1.28448 0.98412,-1.62354 1.91464,-0.73472 2.98171,0.0749 2.06137,1.56407 -0.83038,1.34358 -2.23491,1.37101 -3.04549,0.0595 z M 466,331.12244 c 0,-1.26051 2.93548,-3.5203 3.6477,-2.80807 C 470.67176,329.33843 469.14346,332 467.53138,332 466.68912,332 466,331.6051 466,331.12244 Z m 46,78.50364 c 0,-0.61507 14.60282,-9.8616 28.75,-18.20455 l 13.25,-7.81386 0.0153,-21.55384 c 0.009,-12.43554 0.43188,-22.1884 1,-23.05383 2.26798,-3.45487 2.95441,1.99192 2.96938,23.56194 l 0.0153,22.06194 -2.8524,2.10888 C 550.2233,390.37345 515.1053,410 513.51527,410 512.68187,410 512,409.83173 512,409.62608 Z m -61.8455,-3.17805 c 0.19002,-0.98026 0.95098,-1.98391 1.691,-2.23033 0.86063,-0.28658 1.221,0.19425 1,1.33427 -0.19002,0.98026 -0.95098,1.98391 -1.691,2.23033 -0.86063,0.28658 -1.221,-0.19425 -1,-1.33427 z m 4.40294,-5.35508 c -0.31016,-0.50186 -0.28932,-1.62807 0.0463,-2.50271 0.76661,-1.99773 4.39626,-2.10129 4.39626,-0.12542 0,1.77984 -3.63706,3.93145 -4.44256,2.62813 z m 60.4883,-5.53783 c -1.48631,-1.7909 -0.61328,-4.91075 1.20479,-4.30541 1.58847,0.5289 2.23014,3.66962 1.00087,4.89889 -0.58155,0.58155 -1.41704,0.35674 -2.20566,-0.59348 z M 519,394.5 c 0,-0.825 0.675,-1.5 1.5,-1.5 0.825,0 1.5,0.675 1.5,1.5 0,0.825 -0.675,1.5 -1.5,1.5 -0.825,0 -1.5,-0.675 -1.5,-1.5 z M 416.5,390 c -0.33992,-0.55 0.0835,-1 0.94098,-1 0.85746,0 1.55902,0.45 1.55902,1 0,0.55 -0.42344,1 -0.94098,1 -0.51754,0 -1.2191,-0.45 -1.55902,-1 z m -10.40377,-8.8202 c -1.12769,-2.1071 -0.5394,-5.1798 0.99171,-5.1798 1.36582,0 2.28596,5.0261 1.13148,6.18058 -0.71219,0.71219 -1.37319,0.40062 -2.12319,-1.00078 z M 362.75,377.9199 c -3.06604,-1.7858 -1.89421,-2.92036 3,-2.90459 6.00176,0.0193 8.4128,1.29201 5.45084,2.8772 -2.55405,1.36689 -6.13115,1.37848 -8.45084,0.0274 z m 107.69615,-2.00703 c -0.36954,-0.59793 -0.2103,-1.54872 0.35385,-2.11287 1.26163,-1.26163 3.2,-0.19612 3.2,1.75902 0,1.68362 -2.57364,1.93987 -3.55385,0.35385 z m -121.95104,-2.53042 c -16.00891,-8.39949 -25.69661,-20.85183 -28.36864,-36.46436 -1.558,-9.10334 -1.40971,-24.41365 0.29986,-30.95799 2.24496,-8.59384 10.8778,-24.94426 13.18391,-24.97005 0.48937,-0.005 9.32726,2.7407 19.63976,6.10261 17.45607,5.69073 20.87628,7.47519 17.87847,9.32794 -1.02244,0.6319 -22.7171,-6.3794 -30.79943,-9.95379 C 337.26119,285.11007 334.55294,284 334.3107,284 c -0.87857,0 -8.18238,16.64987 -9.86559,22.48973 -1.4043,4.87219 -1.60941,8.23053 -1.09932,18 0.34489,6.60565 1.04026,13.71758 1.54526,15.80429 2.28922,9.45926 14.23089,23.5565 24.78768,29.26204 5.37943,2.90738 7.26236,5.29691 4.81638,6.11224 -0.55269,0.18423 -3.25269,-0.8444 -6,-2.28585 z m 49.51104,0.13373 c -1.41436,-3.72006 -1.25309,-6.06635 0.51802,-7.53624 2.0155,-1.67272 2.21623,-1.33474 2.62649,4.42234 0.39715,5.57318 -1.49652,7.44843 -3.14451,3.1139 z m 178.06907,-5.08054 c -2.54265,-1.1033 -3.13419,-1.77667 -2.29658,-2.61428 1.34578,-1.34578 8.30659,0.93433 8.97512,2.93992 0.55145,1.65436 -2.4531,1.50786 -6.67854,-0.32564 z M 392.79378,365.75 c -0.79218,-2.35654 0.70356,-7.25 2.21604,-7.25 1.87598,0 2.46651,3.74145 1.01779,6.44842 -1.24091,2.31864 -2.60979,2.65796 -3.23383,0.80158 z M 545.66667,350.33333 C 544.39888,349.06554 545.00776,348 547,348 c 1.11111,0 2,0.66667 2,1.5 0,1.52241 -2.1154,2.05126 -3.33333,0.83333 z m 0.77948,-7.42046 c -0.87268,-1.41202 1.0547,-3.3394 2.46672,-2.46672 0.59792,0.36954 1.08713,1.32033 1.08713,2.11287 0,1.68362 -2.57364,1.93987 -3.55385,0.35385 z M 433,338.97525 C 433,337.54909 437.45951,336 441.5651,336 c 4.41003,0 4.6404,2.5089 0.3099,3.375 -4.7019,0.94038 -8.875,0.75241 -8.875,-0.39975 z m 224.59105,0.17207 c -0.28984,-0.46897 0.10331,-1.70647 0.87366,-2.75 1.08055,-1.46371 1.67492,-1.62701 2.60075,-0.71454 0.66006,0.65053 0.92948,1.88803 0.59871,2.75 -0.64313,1.67596 -3.20155,2.12478 -4.07312,0.71454 z M 665,331 c 0,-2.2 0.45,-4 1,-4 0.55,0 1,1.8 1,4 0,2.2 -0.45,4 -1,4 -0.55,0 -1,-1.8 -1,-4 z m -86.47627,0.0384 c -0.35777,-0.57888 -0.006,-1.2999 0.78209,-1.60225 2.31669,-0.889 12.19418,-0.0273 12.19418,1.06386 0,1.36786 -12.15202,1.87205 -12.97627,0.53839 z m 94.08326,-3.62018 C 671.60187,324.79891 671.91798,323 673.38337,323 c 0.76085,0 1.58761,0.7875 1.83724,1.75 0.92343,3.56046 -1.372,5.90384 -2.61362,2.66821 z M 442.75979,308.70573 C 439.24687,306.63404 437.72437,304 440.03984,304 c 2.26063,0 8.96016,4.12756 8.96016,5.52032 0,2.02892 -1.82181,1.7911 -6.24021,-0.81459 z M 561,305.15499 C 561,304.18696 564.32023,301 565.32874,301 c 1.49591,0 0.54035,2.99969 -1.263,3.96482 C 561.71854,306.221 561,306.26557 561,305.15499 Z m 5,-6.48068 C 566,297.33046 570.05583,293 571.31445,293 c 1.49428,0 0.55927,2.77 -1.6289,4.82569 -2.6579,2.49696 -3.68555,2.73358 -3.68555,0.84862 z m 77.65922,-0.41669 c -0.28999,-0.46921 -0.15236,-1.4597 0.30584,-2.20108 1.01419,-1.64101 4.37608,-0.58055 3.78523,1.19399 -0.50041,1.50292 -3.35095,2.20464 -4.09107,1.00709 z M 546,291.11726 c 0,-2.78726 3.01146,-8.90768 4.7021,-9.55644 2.46593,-0.94627 2.53543,2.28104 0.14173,6.58144 -2.63658,4.73676 -4.84383,6.09242 -4.84383,2.975 z m 52.48066,-13.51694 c -1.79822,-1.32323 -1.82484,-1.5179 -0.28907,-2.11347 2.50077,-0.9698 5.30841,-0.16949 5.30841,1.51315 0,2.03657 -2.63867,2.35216 -5.01934,0.60032 z M 594,269.46862 c 0,-2.15172 2.68357,-2.93383 5.56377,-1.62152 C 603.231,269.518 602.49596,271 598,271 c -2.92532,0 -4,-0.41144 -4,-1.53138 z m -10,-11.36163 c 0,-1.01369 3.04579,-2.39454 3.74326,-1.69706 0.25136,0.25135 0.16039,0.93695 -0.20214,1.52354 C 586.74331,259.22435 584,259.35878 584,258.10699 Z"
     id="path12"
     inkscape:connector-curvature="0" />
</svg>
