<?xml version="1.0" encoding="UTF-8" standalone="no"?>
<!-- Created with Inkscape (http://www.inkscape.org/) -->

<svg
   xmlns:dc="http://purl.org/dc/elements/1.1/"
   xmlns:cc="http://creativecommons.org/ns#"
   xmlns:rdf="http://www.w3.org/1999/02/22-rdf-syntax-ns#"
   xmlns:svg="http://www.w3.org/2000/svg"
   xmlns="http://www.w3.org/2000/svg"
   xmlns:sodipodi="http://sodipodi.sourceforge.net/DTD/sodipodi-0.dtd"
   xmlns:inkscape="http://www.inkscape.org/namespaces/inkscape"
   version="1.1"
   id="svg2"
   width="1000"
   height="619"
   viewBox="0 0 1000 619"
   sodipodi:docname="learn.svg"
   enable-background="new"
   inkscape:version="0.92.3 (2405546, 2018-03-11)">
  <metadata
     id="metadata8">
    <rdf:RDF>
      <cc:Work
         rdf:about="">
        <dc:format>image/svg+xml</dc:format>
        <dc:type
           rdf:resource="http://purl.org/dc/dcmitype/StillImage" />
        <dc:title></dc:title>
      </cc:Work>
    </rdf:RDF>
  </metadata>
  <defs
     id="defs6">
    <filter
       inkscape:collect="always"
       style="color-interpolation-filters:sRGB"
       id="filter42">
      <feBlend
         inkscape:collect="always"
         mode="difference"
         in2="BackgroundImage"
         id="feBlend44" />
    </filter>
  </defs>
  <sodipodi:namedview
     pagecolor="#ffffff"
     bordercolor="#666666"
     borderopacity="1"
     objecttolerance="10"
     gridtolerance="10"
     guidetolerance="10"
     inkscape:pageopacity="0"
     inkscape:pageshadow="2"
     inkscape:window-width="1024"
     inkscape:window-height="1216"
     id="namedview4"
     showgrid="false"
     inkscape:zoom="0.696"
     inkscape:cx="326.23319"
     inkscape:cy="5.4044601"
     inkscape:window-x="1366"
     inkscape:window-y="27"
     inkscape:window-maximized="1"
     inkscape:current-layer="layer1" />
  <g
     inkscape:groupmode="layer"
     id="layer1"
     inkscape:label="Traced"
     style="display:inline;opacity:1;filter:url(#filter42)">
    <path
       style="fill:#000000"
       d="m 467.25265,502.21183 c 0,-1.42086 0.85446,-6.03336 1.89881,-10.25 1.04434,-4.21663 2.18973,-9.35411 2.54531,-11.41661 0.74611,-4.32772 2.05799,-4.86988 2.97199,-1.22822 0.65113,2.59432 -2.67489,19.21868 -4.64725,23.22822 -1.47786,3.00427 -2.76886,2.84882 -2.76886,-0.33339 z m 19.55746,-0.66661 c -0.56058,-1.84513 -2.32991,-12.46006 -3.10365,-18.62012 -0.81621,-6.49808 1.21017,-6.86827 3.10578,-0.56738 1.66605,5.53787 3.57372,18.41278 2.89172,19.51628 -0.81644,1.32103 -2.44896,1.13555 -2.89385,-0.32878 z m 17.98716,0.0832 c -0.25103,-0.73324 -0.58877,-6.62125 -0.75052,-13.08447 -0.26502,-10.58946 -0.12296,-11.75118 1.43685,-11.75 2.40481,0.002 2.89775,2.87406 2.56063,14.9201 -0.20227,7.2275 -0.67429,10.5457 -1.54105,10.83315 -0.68721,0.22791 -1.45487,-0.18555 -1.70591,-0.91878 z m 23.09163,-3.6127 c -0.90687,-1.46735 -2.84828,-23.34176 -2.13495,-24.05509 1.26677,-1.26677 3.38652,3.09049 3.98747,8.19646 1.11736,9.49366 1.05959,15.9068 -0.14713,16.33383 -0.6371,0.22545 -1.40452,0.0116 -1.70539,-0.4752 z m -77.63625,-5.89955 c 0,-0.92348 0.88645,-4.63598 1.96988,-8.25 1.08343,-3.61402 2.217,-7.80845 2.51905,-9.32095 0.67323,-3.37122 2.26572,-3.57573 3.0644,-0.39354 0.59632,2.37594 -2.98919,16.07439 -4.81443,18.39354 -1.38782,1.76336 -2.7389,1.55171 -2.7389,-0.42905 z m -14,-2.69828 c 0,-3.41391 3.08918,-16.94722 4.12536,-18.07267 0.54696,-0.59409 1.32792,-0.49672 2.08452,0.25988 0.9465,0.9465 0.83738,2.98166 -0.50124,9.34902 -1.65122,7.85426 -2.98223,10.8411 -4.83108,10.8411 -0.48266,0 -0.87756,-1.0698 -0.87756,-2.37733 z m -23.29815,-6.25415 c -0.85129,-0.8513 0.77642,-3.7898 5.74339,-10.36852 2.2839,-3.025 4.45391,-6.2875 4.82226,-7.25 0.81622,-2.13277 2.59168,-2.28055 3.3595,-0.27964 0.88835,2.31501 -9.95875,18.52964 -12.39577,18.52964 -0.49384,0 -1.18206,-0.28417 -1.52938,-0.63148 z m 137.38484,-2.72825 c -2.44382,-3.95419 -5.08669,-11.10652 -5.08669,-13.766 0,-1.03085 0.675,-1.87427 1.5,-1.87427 0.825,0 1.50036,0.7875 1.50079,1.75 4.3e-4,0.9625 1.35043,4.6029 3,8.08979 1.64957,3.48688 2.99921,6.97438 2.99921,7.75 0,2.42223 -1.75033,1.55025 -3.91331,-1.94952 z m 24.27099,-5.45625 c -1.5234,-0.99541 -10.57111,-19.30393 -9.88077,-19.99426 1.22805,-1.22806 5.57711,4.62355 8.93829,12.02637 3.24056,7.13715 3.53954,9.66485 0.94248,7.96789 z m -180.35768,-4.12222 c 0,-1.89782 6.54682,-19.89255 7.65215,-21.03284 0.97712,-1.00803 2.23712,2.58593 1.73988,4.96273 -0.52006,2.48587 -3.51062,10.2686 -5.73622,14.92813 -1.52019,3.18269 -3.65581,3.84981 -3.65581,1.14198 z m 200,-7.84058 c 0,-0.42832 -2.475,-4.94734 -5.5,-10.04227 -5.89522,-9.92916 -6.44361,-11.50749 -3.8227,-11.00227 1.87317,0.36108 12.27848,17.33477 12.30546,20.07332 0.009,0.9625 -0.65776,1.75 -1.48276,1.75 -0.825,0 -1.5,-0.35045 -1.5,-0.77878 z m -222,-3.24618 c 0,-0.56373 1.51284,-4.05123 3.36188,-7.75 1.84903,-3.69877 3.91662,-8.43584 4.59464,-10.52683 1.4031,-4.32708 3.70564,-4.43559 3.22564,-0.152 -0.45407,4.05213 -5.00213,14.5514 -7.45231,17.20379 -2.21827,2.40132 -3.72985,2.89779 -3.72985,1.22504 z m 228.53703,-21.52699 c -6.51222,-10.15547 -7.32931,-12.34979 -4.14336,-11.12723 1.87735,0.72041 13.60633,18.08227 13.60633,20.14082 0,3.79679 -3.2073,0.7418 -9.46297,-9.01359 z m -245.92435,8.1189 c 0.68137,-1.7756 16.12895,-15.56695 17.43642,-15.56695 3.34452,0 -3.28037,8.53827 -10.46341,13.48542 -5.39042,3.71253 -7.88459,4.45707 -6.97301,2.08153 z m -10.15078,-14.6286 c -0.78323,-1.26728 1.62746,-4.23634 9.89614,-12.18835 5.8096,-5.5871 8.64196,-7.06146 8.64196,-4.49849 0,1.33809 -13.41095,15.27971 -16.19899,16.83997 -1.08724,0.60845 -1.90137,0.55516 -2.33911,-0.15313 z m 267.2881,-6.83775 c -4.92681,-5.04332 -7.22945,-9.1006 -5.16489,-9.1006 1.32079,0 14.41489,12.39529 14.41489,13.64559 0,2.92053 -3.76334,1.07141 -9.25,-4.54499 z m 15.70402,-13.85954 c -6.14006,-4.81484 -10.45402,-8.83459 -10.45402,-9.74106 0,-1.58669 3.94571,0.0749 9.80737,4.12991 8.54466,5.91113 10.19263,7.37033 10.19263,9.02508 0,2.5657 -3.5308,1.30298 -9.54598,-3.41393 z m -288.84781,-3.06921 c -0.3213,-0.51988 0.0223,-1.44861 0.76365,-2.06384 1.68673,-1.39986 10.87497,-4.57665 15.96527,-5.51991 3.36006,-0.62263 3.79361,-0.4863 3.5,1.10062 -0.49493,2.67499 -18.93083,8.58348 -20.22892,6.48313 z m -16.07094,-12.11478 c -0.612,-0.99023 4.91382,-6.05294 10.35728,-9.48924 2.06063,-1.30082 5.06382,-3.76073 6.67377,-5.46647 3.15392,-3.34158 5.43368,-4.01206 5.43368,-1.59804 0,4.37584 -20.60655,19.56034 -22.46473,16.55375 z m 310.21473,-3.16891 c -7.71874,-3.02362 -9.08215,-4.16299 -6.27199,-5.24135 2.04634,-0.78525 17.52199,5.43876 17.52199,7.04701 0,1.97301 -2.71699,1.53693 -11.25,-1.80566 z m 3.25,-25.4287 c -5.95247,-5.04845 -8.48028,-8.45946 -6.2691,-8.45946 2.70766,0 17.2691,11.1271 17.2691,13.19617 0,2.39552 -5.26248,0.12944 -11,-4.73671 z m -321,-0.18899 c 0,-1.99177 2.57476,-3.00929 9.27921,-3.66706 3.72857,-0.3658 8.11607,-0.93247 9.75,-1.25925 2.29778,-0.45956 2.97079,-0.234 2.97079,0.99566 0,0.8744 -0.92846,2.08671 -2.06325,2.69403 -2.82878,1.51392 -19.93675,2.57507 -19.93675,1.23662 z m 187.75,-2.38033 c -0.9625,-0.54424 -1.75,-1.57242 -1.75,-2.28484 0,-1.97101 -3.27145,-4.50959 -6.69345,-5.19399 -3.84929,-0.76986 -6.84709,0.79952 -8.82188,4.61833 -1.75412,3.3921 -3.48467,3.89736 -3.48467,1.01741 0,-5.01356 5.05429,-10.04705 10.08857,-10.04705 3.25907,0 10.75773,3.8443 11.99003,6.14686 0.57459,1.07363 0.90446,3.02771 0.73305,4.34242 -0.25537,1.95868 -0.62769,2.21167 -2.06165,1.40086 z m 139.25,-17.30287 c -5.93497,-2.03393 -9.5,-3.78184 -9.5,-4.65778 0,-2.42242 3.18089,-2.17252 13.25555,1.04138 11.15887,3.55977 12.7714,4.36748 11.81355,5.91733 -1.11485,1.80385 -5.46917,1.16034 -15.5691,-2.30093 z m -330.25,-6.25765 c -3.14215,-0.85514 -1.85343,-2.03724 4,-3.66906 8.42652,-2.34915 20.47536,-4.76853 21.0226,-4.22129 2.17671,2.17671 -5.50444,5.07578 -21.10272,7.96473 -1.19344,0.22103 -2.95738,0.18756 -3.91988,-0.0744 z m 130.58371,-9.5323 c -4.50555,-4.91992 -3.46094,-10.96636 2.07752,-12.0251 3.17963,-0.60783 8.24033,2.36894 9.78284,5.75438 2.77194,6.08373 -7.20226,11.35722 -11.86036,6.27072 z m 5.56201,-3.71171 c 1.69958,-1.07616 0.73809,-4.08561 -1.30532,-4.08561 -1.88014,0 -2.92704,1.68036 -2.2104,3.54789 0.63721,1.66054 1.52742,1.7967 3.51572,0.53772 z m 84.29284,1.87543 c -4.28015,-3.98756 -1.34941,-11.96104 4.39641,-11.96104 2.0572,0 8.41503,5.96866 8.41503,7.89994 0,0.45669 -0.93266,2.01603 -2.07258,3.4652 -2.58444,3.28558 -7.55573,3.56144 -10.73886,0.5959 z m 6.4547,-3.47377 c 0.75757,-1.97421 -1.38765,-4.52259 -3.21637,-3.82084 -1.74126,0.66818 -1.84278,2.51768 -0.22689,4.13357 1.61354,1.61354 2.74346,1.51092 3.44326,-0.31273 z m 103.10533,-0.94202 c -9.2111,-1.08446 -13.09056,-2.54827 -11.33931,-4.27858 0.42676,-0.42167 4.29967,-0.67466 8.60646,-0.56221 8.1834,0.21367 15.44532,2.41236 14.75984,4.46881 -0.55242,1.65725 -0.9943,1.67091 -12.02699,0.37198 z M 322.32987,314.52841 c -7.74055,-3.37161 -10.85389,-6.48042 -5.45462,-5.44669 2.84287,0.54429 14.52717,4.37863 17.31788,5.68307 0.79227,0.37033 1.61727,1.20367 1.83333,1.85187 0.74674,2.2402 -6.18596,1.18321 -13.69659,-2.08825 z m 113.92278,-4.13536 c 0,-1.22125 4.72249,-3.59783 7.14922,-3.59783 1.63653,0 0.83339,2.93894 -1.08348,3.96482 -2.76221,1.47829 -6.06574,1.27842 -6.06574,-0.36699 z m 199.25,0.74178 c -1.2375,-0.26329 -2.25,-0.84116 -2.25,-1.28416 0,-1.22509 5.45501,-2.05716 13.375,-2.04014 7.03292,0.0151 10.82855,1.1133 9.26395,2.68032 -0.89154,0.89291 -16.84987,1.39695 -20.38895,0.64398 z m -99.80887,-2.82061 c -1.63806,-1.24976 -1.71535,-1.6292 -0.49501,-2.43022 1.80335,-1.18372 5.05388,0.38975 5.05388,2.4464 0,1.88135 -2.08148,1.87396 -4.55887,-0.0162 z m -209.19113,-9.85111 c -4.66788,-0.6491 -7.25,-1.46079 -7.25,-2.27901 0,-2.31998 1.99615,-2.56519 10.93654,-1.34343 9.91041,1.35433 12.47305,2.35744 10.06346,3.93924 -1.71956,1.12881 -3.67892,1.08367 -13.75,-0.3168 z m 306.92668,-6.41789 c 0.22351,-1.20978 2.79292,-2.55257 8.32332,-4.34983 12.72957,-4.13685 13.5,-4.25081 13.5,-1.99687 0,1.58409 -1.82319,2.50782 -9.9063,5.01905 -11.51326,3.57689 -12.34981,3.67009 -11.91702,1.32765 z m -300.17668,-9.61523 c -10.55025,-4.06314 -15,-6.36735 -15,-7.76744 0,-0.64627 0.70407,-0.7823 1.75,-0.33812 0.9625,0.40875 7.11408,2.59439 13.67019,4.85698 6.5561,2.2626 12.1061,4.67631 12.33333,5.36381 0.69251,2.09524 -3.72174,1.36312 -12.75352,-2.11523 z m 291,-11.92555 c 0,-0.87333 1.42368,-2.00977 3.25,-2.59429 5.69628,-1.82312 22.18634,-4.07859 23.10471,-3.16022 1.37799,1.37799 -4.16386,3.70844 -11.85471,4.98512 -14.74736,2.44807 -14.5,2.43494 -14.5,0.76939 z m -289.95824,-9.22511 c -10.13779,-4.10382 -12.52252,-5.73032 -9.83402,-6.70729 1.65212,-0.60037 22.03446,7.44979 22.51541,8.89264 0.81486,2.44458 -2.77003,1.82681 -12.68139,-2.18535 z m 15.51328,-12.1216 c -3.26973,-1.40545 -7.53669,-3.63697 -9.48214,-4.95894 -1.94544,-1.32196 -4.10771,-2.40357 -4.80503,-2.40357 -0.69733,0 -1.26787,-0.675 -1.26787,-1.5 0,-2.45364 3.25999,-1.73853 11.57673,2.53947 7.92016,4.074 11.42327,6.56274 11.42327,8.11552 0,1.24081 -0.8823,1.02839 -7.44496,-1.79248 z m 263.31129,1.29856 c 0.61116,-0.73642 5.27876,-2.60058 10.37244,-4.14258 5.09368,-1.54201 9.8346,-3.25362 10.5354,-3.80357 1.75596,-1.37802 2.88327,0.0193 1.62495,2.01412 -1.20671,1.91303 -16.47983,7.27096 -20.72634,7.27096 -2.32411,0 -2.69161,-0.27239 -1.80645,-1.33893 z m -2.29381,-13.54373 c -0.65684,-1.06279 7.44551,-4.66881 12.67748,-5.64223 6.37605,-1.18627 4.23591,1.09305 -3.65737,3.89522 -8.35893,2.96748 -8.27577,2.95138 -9.02011,1.74701 z M 351.98908,226.39703 c -9.62583,-3.99086 -13.73937,-7.60181 -8.65986,-7.60181 3.2066,0 19.04674,7.12814 18.6334,8.38512 -0.63991,1.94594 -4.03355,1.6794 -9.97354,-0.78331 z m 247.43024,-3.51708 c 0.3922,-1.07692 11.77544,-13.08473 12.40414,-13.08473 0.23605,0 0.42919,1.06342 0.42919,2.36316 0,2.68754 -8.8752,11.63684 -11.54049,11.63684 -0.8944,0 -1.47618,-0.41187 -1.29284,-0.91527 z m -224.84007,-9.76314 c -6.28979,-4.79351 -13.73357,-12.24795 -12.98147,-13.00005 0.92557,-0.92557 6.21299,1.5948 8.39428,4.00133 1.08535,1.19742 4.28799,3.96825 7.11698,6.15741 5.0476,3.90598 6.53902,6.51972 3.72021,6.51972 -0.78288,0 -3.59538,-1.65528 -6.25,-3.67841 z m 207.6734,-5.49285 c 0,-0.64419 0.62388,-1.88169 1.38641,-2.75 0.76252,-0.86831 2.81375,-4.27874 4.55829,-7.57874 1.74453,-3.3 3.70815,-6 4.36359,-6 1.71856,0 0.91655,4.51261 -1.37019,7.70951 -1.06595,1.49023 -1.9381,3.11704 -1.9381,3.61514 0,0.4981 -0.93266,2.09132 -2.07258,3.54049 -2.13196,2.71035 -4.92742,3.54069 -4.92742,1.4636 z M 387.87569,203.5389 c -6.51138,-11.25267 -8.60638,-15.63594 -7.73162,-16.17658 1.14261,-0.70617 10.7646,13.21419 11.6943,16.91843 0.92985,3.70479 -1.67141,3.21781 -3.96268,-0.74185 z m 8.12696,-14.95381 c -6.36202,-6.76018 -8.12227,-9.78987 -5.68792,-9.78987 1.68858,0 14.93792,13.68063 14.93792,15.42417 0,3.03541 -2.55629,1.47834 -9.25,-5.6343 z m 171.95031,5.78954 c 0.8896,-1.58031 15.2768,-16.57941 15.90303,-16.57941 0.21817,0 0.39666,1.02457 0.39666,2.27682 0,2.7455 -12.64885,15.72318 -15.32479,15.72318 -1.24194,0 -1.53456,-0.42639 -0.9749,-1.42059 z M 415.24127,184.10986 c -3.42021,-7.54312 -4.27837,-12.81464 -2.08613,-12.81464 1.4283,0 6.88356,11.68906 7.81719,16.75 0.38143,2.06761 0.10941,2.75 -1.09622,2.75 -1.00921,0 -2.72707,-2.47787 -4.63484,-6.68536 z m 137.61655,2.85552 c -0.28208,-0.45641 0.3212,-3.71891 1.34062,-7.25 1.01943,-3.53109 2.13223,-7.65766 2.47291,-9.17016 0.72039,-3.19834 2.18014,-3.58932 3.05927,-0.8194 0.61505,1.93785 -1.82326,12.97754 -3.59926,16.29603 -1.0127,1.89225 -2.43402,2.30192 -3.27354,0.94353 z m -17.041,-4.06633 c -0.74026,-1.19776 5.41931,-20.10383 6.5498,-20.10383 1.28498,0 1.09468,2.97622 -0.67942,10.62598 -2.15605,9.29671 -4.07127,12.38887 -5.87038,9.47785 z m -100.592,-8.54279 c -4.20841,-8.94085 -4.74217,-10.96789 -2.72217,-10.3378 1.7112,0.53377 8.67926,13.74257 8.71839,16.52676 0.0612,4.35691 -2.0656,2.16173 -5.99622,-6.18896 z m 16.93451,4.2646 c -1.52014,-2.84042 -2.55793,-23.82564 -1.17826,-23.82564 1.48795,0 3.08305,7.29643 3.77108,17.25 0.61528,8.90112 -0.21769,11.01361 -2.59282,6.57564 z m 66.47233,-0.28033 c -0.58935,-1.53582 1.08112,-17.66345 2.25752,-21.79531 0.66693,-2.34247 2.08073,-2.21619 2.86535,0.25593 0.93275,2.93882 -1.6305,20.85592 -3.16598,22.13026 -0.98281,0.81566 -1.47407,0.66732 -1.95689,-0.59088 z m -40.94157,-5.04079 c -3.58707,-8.58507 -5.54443,-20.04018 -3.29627,-19.2908 1.20381,0.40127 7.76555,18.04279 7.82442,21.03628 0.0603,3.06543 -3.01301,1.88077 -4.52815,-1.74548 z m 20.13124,-1.39339 c -0.33803,-0.54694 -0.89714,-5.2957 -1.24246,-10.55279 -0.46069,-7.01332 -0.31486,-9.55834 0.54771,-9.55834 1.87911,0 3.03658,4.37122 3.34206,12.62137 0.19037,5.1411 -0.0979,7.80428 -0.87435,8.07713 -0.6371,0.22389 -1.43493,-0.0404 -1.77296,-0.58737 z"
       id="path28"
       inkscape:connector-curvature="0" />
  </g>
</svg>
