<?xml version="1.0" encoding="UTF-8" standalone="no"?>
<!-- Created with Inkscape (http://www.inkscape.org/) -->

<svg
   xmlns:dc="http://purl.org/dc/elements/1.1/"
   xmlns:cc="http://creativecommons.org/ns#"
   xmlns:rdf="http://www.w3.org/1999/02/22-rdf-syntax-ns#"
   xmlns:svg="http://www.w3.org/2000/svg"
   xmlns="http://www.w3.org/2000/svg"
   xmlns:sodipodi="http://sodipodi.sourceforge.net/DTD/sodipodi-0.dtd"
   xmlns:inkscape="http://www.inkscape.org/namespaces/inkscape"
   version="1.1"
   id="svg2"
   width="1000"
   height="619"
   viewBox="0 0 1000 619"
   sodipodi:docname="leave.svg"
   inkscape:version="0.92.3 (2405546, 2018-03-11)">
  <metadata
     id="metadata8">
    <rdf:RDF>
      <cc:Work
         rdf:about="">
        <dc:format>image/svg+xml</dc:format>
        <dc:type
           rdf:resource="http://purl.org/dc/dcmitype/StillImage" />
        <dc:title></dc:title>
      </cc:Work>
    </rdf:RDF>
  </metadata>
  <defs
     id="defs6" />
  <sodipodi:namedview
     pagecolor="#ffffff"
     bordercolor="#666666"
     borderopacity="1"
     objecttolerance="10"
     gridtolerance="10"
     guidetolerance="10"
     inkscape:pageopacity="0"
     inkscape:pageshadow="2"
     inkscape:window-width="640"
     inkscape:window-height="1211"
     id="namedview4"
     showgrid="false"
     inkscape:zoom="1.9685853"
     inkscape:cx="645.11889"
     inkscape:cy="303.98131"
     inkscape:window-x="1730"
     inkscape:window-y="32"
     inkscape:window-maximized="0"
     inkscape:current-layer="svg2" />
  <path
     style="fill:#000000"
     d="M 242.66667,516.33333 C 241.61626,515.28293 241.86583,383 242.91821,383 c 0.50502,0 1.63002,-0.27314 2.5,-0.60699 1.43254,-0.54972 1.58179,5.62271 1.58179,65.41821 0,36.31386 -0.27314,66.73701 -0.60699,67.60699 -0.62378,1.62556 -2.54427,2.0972 -3.72634,0.91512 z m 9.51378,-5.3561 c 0.21943,-1.38899 26.42005,-20.63099 83.62226,-61.41302 45.81649,-32.66464 84.06649,-59.9919 85,-60.72723 1.57211,-1.23837 1.67643,-6.44201 1.41451,-70.55542 l -0.28278,-69.21845 -3.21722,0.61249 -3.21722,0.6125 2.25,-2.4585 c 1.2375,-1.35218 2.25,-2.71401 2.25,-3.0263 0,-1.10452 -27.25335,-21.01963 -90.85686,-66.39276 -35.39627,-25.2508 -66.54821,-47.41258 -69.22653,-49.24841 l -4.86966,-3.33788 -4.0385,2.33788 C 248.78728,129.44796 209.15541,157.5 162.93762,190.5 l -84.032338,60 3.985965,3.5 c 7.188573,6.31215 8.949082,7.59833 80.464273,58.78525 90.83179,65.01274 79.80715,57.69622 83.82875,55.63303 1.82365,-0.93559 4.38109,-2.53128 5.68319,-3.54599 2.85377,-2.22389 1.95191,-2.70035 -5.85809,-3.09491 -4.46081,-0.22535 -5.55795,-0.6311 -5.8495,-2.16325 -0.33948,-1.7841 0.18432,-1.84737 9.70555,-1.17235 9.88831,0.70105 10.12608,0.66649 13.58975,-1.97538 1.93894,-1.4789 3.27817,-3.08885 2.97607,-3.57766 -0.3021,-0.48881 -2.66022,-0.92816 -5.24026,-0.97635 -2.58004,-0.0482 -6.94098,-0.4568 -9.69098,-0.90805 -3.8308,-0.6286 -2.04078,-0.79473 7.65486,-0.71047 12.385,0.10765 12.74313,0.0488 16.7938,-2.75829 2.27641,-1.57755 4.37078,-3.24342 4.65415,-3.70193 0.28337,-0.45851 -3.67383,-0.85126 -8.79379,-0.87279 -9.04743,-0.038 -9.21447,-0.0802 -5.94421,-1.5 2.08576,-0.90555 6.62072,-1.46086 11.93015,-1.46086 8.01339,0 8.87426,-0.20943 13.3594,-3.25 5.32765,-3.61173 5.93715,-4.73457 2.59564,-4.7818 -2.15705,-0.0305 -2.17262,-0.0904 -0.37677,-1.45036 1.04189,-0.78899 3.039,-1.199 4.5,-0.92386 1.96908,0.37084 4.08861,-0.55344 8.46528,-3.69151 l 5.8385,-4.1862 -2.8385,-2.28197 c -1.56118,-1.25509 -5.08851,-3.48194 -7.83851,-4.94855 -5.82541,-3.10677 -33.0461,-21.41851 -42.5,-28.59034 -3.575,-2.71203 -7.2875,-5.20045 -8.25,-5.52982 -0.9625,-0.32937 -1.75867,-1.33387 -1.76926,-2.23222 -0.29417,-24.94891 0.22263,-144.65341 0.62734,-145.30825 0.3296,-0.53331 1.16501,-0.4284 1.98095,0.24877 1.19063,0.98813 1.41097,12.37305 1.41097,72.90518 v 71.73419 l 5.25,3.502 c 13.94956,9.30503 21.72087,14.63143 26.75,18.33427 3.025,2.22725 9.325,6.23841 14,8.91371 11.84127,6.77622 15.25677,9.42523 14.54477,11.2807 -0.43592,1.13597 -0.25725,1.27729 0.68234,0.53969 7.60949,-5.97369 93.74392,-66.71406 95.12376,-67.07948 7.38152,-1.95486 -4.81824,7.49383 -65.8605,51.00879 C 245.13707,375.03855 244,375.87425 244,378.0694 c 0,1.06183 -0.44143,1.9306 -0.98095,1.9306 -0.90531,0 -1.48886,-1.65332 -2.23012,-6.31842 -0.15891,-1.00013 -1.61149,-2.57513 -3.22796,-3.5 -3.07322,-1.75836 -6.53514,-4.16401 -26.16131,-18.17923 C 204.85485,347.32865 175.65,326.52377 146.5,305.76928 117.35,285.0148 90.640115,265.73362 87.1447,262.92223 c -3.549412,-2.85483 -6.735169,-4.73176 -7.215697,-4.25123 -0.473217,0.47321 -0.988332,30.77833 -1.144699,67.3447 -0.156367,36.56636 -0.603278,67.1593 -0.993135,67.9843 -0.539204,1.14104 18.126567,14.90544 78.000001,57.51827 59.2838,42.19319 78.78769,56.56905 79.02838,58.25 0.17575,1.22745 0.0409,2.23173 -0.29975,2.23173 -0.34062,0 -9.03442,-6.00338 -19.31956,-13.34085 -10.28513,-7.33747 -46.26557,-33.00692 -79.95653,-57.04322 l -61.256288,-43.70236 0.165043,-4.20679 c 0.09077,-2.31373 0.07634,-35.70019 -0.03209,-74.19213 -0.186417,-66.18207 -0.09994,-70.05939 1.591246,-71.34756 0.98361,-0.74921 34.638379,-24.80163 74.788379,-53.44981 40.15,-28.64819 79.72523,-56.95677 87.94496,-62.90796 15.92049,-11.52663 16.41665,-11.69562 21.23329,-7.2317 1.43759,1.33231 3.02811,2.42238 3.53449,2.42238 0.50639,0 2.57818,1.21394 4.60398,2.69764 2.0258,1.48371 6.83328,5.01595 10.68328,7.84944 5.977,4.39889 121.0932,86.367 139.20028,99.11709 6.34501,4.46784 9.07441,7.23082 5.96376,6.03715 -0.91522,-0.3512 -1.66404,-0.20267 -1.66404,0.33006 0,0.53274 0.87354,0.96862 1.9412,0.96862 1.796,0 1.96862,0.91626 2.30783,12.25 0.63152,21.10036 0.0325,128.08868 -0.73607,131.47273 -0.65687,2.89215 -8.38867,8.68211 -75.37246,56.44272 -41.05227,29.27099 -79.53158,56.73326 -85.50957,61.02727 -5.97799,4.294 -11.29679,7.80728 -11.81955,7.80728 -0.52277,0 -0.80668,-0.91025 -0.63093,-2.02277 z M 680.72221,420.94521 C 663.8601,417.74219 658.23705,415.9284 643.5,408.93869 c -14.23019,-6.7493 -30.1984,-19.36988 -37.09014,-29.31443 -14.78348,-21.33205 -18.61885,-29.45315 -21.9081,-46.38864 -2.67572,-13.77661 1.58001,-35.20244 10.27604,-51.73562 9.77414,-18.58292 20.52751,-34.79486 26.59061,-40.08843 2.27237,-1.98397 5.48159,-4.8396 7.13159,-6.34585 2.63531,-2.40573 5.61361,-3.25483 24.5,-6.98487 11.825,-2.33542 23.55518,-4.67864 26.06707,-5.20717 l 4.56706,-0.96094 -1.56706,-5.1732 C 679.9715,209.82165 672.74514,202.63268 663.23005,198 c -3.95377,-1.925 -7.19798,-3.75149 -7.20936,-4.05887 -0.13083,-3.53375 5.82351,-5.03622 51.47931,-12.98989 12.65,-2.20375 23.83279,-4.18903 24.85065,-4.41173 2.2167,-0.485 6.64935,1.37228 6.64935,2.78607 0,0.55251 -2.65522,3.76969 -5.90048,7.1493 -6.35124,6.61415 -8.08439,10.63445 -8.09394,18.77512 -0.005,4.04473 -0.29581,4.75 -1.96027,4.75 -1.45218,0 -2.12813,-0.92457 -2.62938,-3.59646 -1.09185,-5.82005 1.77167,-12.60899 9.47741,-22.46937 l 2.00516,-2.56583 -25.69925,4.67808 c -14.13459,2.57294 -29.05118,5.24692 -33.14797,5.94216 l -7.44873,1.26408 3.80182,1.95045 c 5.0989,2.6159 11.93861,9.59809 14.77946,15.08736 1.27389,2.46149 3.80091,5.71183 5.6156,7.22297 2.8517,2.3747 3.73374,2.62248 6.5,1.82597 l 3.20057,-0.92156 -4.25,-2.39306 C 691.14939,213.71584 689.80861,212 692.10498,212 c 0.60773,0 3.10529,1.35 5.55013,3 2.44483,1.65 5.02259,3 5.72836,3 2.58734,0 2.43531,-1.28161 -0.43892,-3.70011 C 701.32505,212.93717 700,211.39638 700,210.87592 c 0,-1.24103 3.82599,0.75354 7,3.64924 l 2.5,2.2808 32,-6.37024 c 17.6,-3.50363 33.35,-6.37429 35,-6.37924 1.65,-0.005 5.7,1.15197 9,2.57095 3.3,1.41898 8.63401,3.69497 11.85334,5.05776 7.77344,3.29059 20.15451,12.21821 30.84056,22.23821 10.2175,9.58065 17.103,18.07369 21.9516,27.0766 3.86151,7.17008 8.57423,20.61361 7.57613,21.61171 -1.02304,1.02304 -3.71432,-0.41408 -4.38026,-2.33903 -6.45639,-18.66245 -12.66625,-28.50747 -26.02839,-41.26507 -14.88774,-14.21418 -30.81816,-24.61639 -44.32079,-28.94049 l -6.50781,-2.08407 -71.77068,14.35974 -71.77068,14.35973 -7.05497,7.39874 c -9.54017,10.00502 -15.88153,19.15253 -22.80744,32.90008 -6.77818,13.45431 -10.56632,23.96433 -13.15527,36.49866 -2.44559,11.84025 -2.38663,14.25932 0.62116,25.48651 2.80106,10.45552 7.33484,20.51129 13.15252,29.17187 6.5684,9.77815 18.70561,23.19729 24.36249,26.93567 16.11371,10.64881 28.41545,16.18643 40.93849,18.42843 4.125,0.7385 10.425,2.00173 14,2.80718 8.04897,1.81342 33.74961,2.82897 40.5,1.60033 2.75,-0.50053 9.05,-1.35847 14,-1.90653 9.49734,-1.05155 11.29164,-1.49296 32.07761,-7.89124 16.78786,-5.16758 21.71863,-7.1276 33.92239,-13.48439 24.58843,-12.80782 41.97763,-28.60161 51.27727,-46.57272 l 3.91992,-7.57505 6.95627,-2.56773 c 3.82595,-1.41226 9.07212,-4.02348 11.65815,-5.80271 7.37732,-5.07574 22.95093,-21.11073 25.9101,-26.67773 4.43033,-8.33465 7.55374,-20.0992 9.54498,-35.95189 1.73294,-13.79633 2.22881,-15.69521 6.17939,-23.6636 2.36239,-4.76498 6.42021,-11.28998 9.01739,-14.5 l 4.72214,-5.8364 -12.64103,-0.10586 c -7.10513,-0.0595 -14.29553,-0.65189 -16.41902,-1.3527 -3.45598,-1.14058 -3.9793,-1.05775 -6.13958,0.97173 -3.63083,3.41099 -7.27908,12.06664 -9.59833,22.77251 -1.15744,5.34288 -2.81245,11.51432 -3.67779,13.71432 -2.23532,5.68298 -7.65755,12.52852 -12.53262,15.82237 -3.61043,2.4394 -4.2242,2.59298 -4.52331,1.13188 -0.20013,-0.97759 1.57248,-3.64379 4.20339,-6.32236 2.50221,-2.54754 5.49952,-6.88189 6.66069,-9.63189 1.16118,-2.75 2.5271,-5.9 3.03538,-7 0.50829,-1.1 1.83489,-5.97929 2.94801,-10.84286 2.16508,-9.45997 7.56477,-22.26168 10.35692,-24.55448 1.41049,-1.15823 3.10831,-1.20079 9.92168,-0.24873 10.39485,1.45252 24.10427,1.47147 30.76723,0.0425 7.83138,-1.67953 8.34556,-0.16228 2.31354,6.82679 -6.83256,7.91664 -10.85183,13.9952 -14.89904,22.53262 -2.85116,6.01442 -3.76525,9.72857 -5.38475,21.87962 -3.04173,22.82202 -8.83556,37.55858 -18.93716,48.16655 -11.18413,11.74477 -25.88175,22.02058 -34.45572,24.08963 -1.99589,0.48164 -3.26163,1.74633 -4.34656,4.34292 -6.18177,14.79506 -24.47322,32.92865 -46.52955,46.12798 -8.81393,5.27459 -34.16368,17.11107 -36.68269,17.12813 -0.75608,0.005 -6.38108,1.55103 -12.5,3.43535 -20.8247,6.41296 -35.54052,8.60511 -56.89386,8.47523 -11.27207,-0.0686 -19.21896,-0.66622 -26.00923,-1.95606 z M 106.51008,402.98369 c 0.34546,-0.55897 1.04702,-0.75742 1.55902,-0.44098 1.38704,0.85723 1.12841,1.45729 -0.62812,1.45729 -0.85746,0 -1.27636,-0.45734 -0.9309,-1.01631 z m -10.05187,-2.232 c -0.844005,-2.19944 -0.16723,-6.76811 1.04179,-7.03278 1.37047,-0.30001 1.89685,6.28424 0.60563,7.57547 -0.72008,0.72007 -1.22692,0.55311 -1.64742,-0.54269 z M 88.6875,396.35417 C 88.309375,395.97604 88,393.68367 88,391.26001 c 0,-3.65854 0.297098,-4.34944 1.75,-4.06964 1.350665,0.26012 1.75,1.34174 1.75,4.73999 0,4.10793 -1.215892,6.02041 -2.8125,4.42381 z m 307.02537,-8.06236 c -0.29494,-1.5355 -0.31421,-3.0161 -0.0428,-3.29024 0.70621,-0.71333 3.42134,3.2242 3.03091,4.39549 -0.72297,2.16891 -2.48433,1.51742 -2.98811,-1.10525 z m 6.84383,-6.51432 C 400.60052,378.98466 400.56235,377 402.46482,377 c 1.60595,0 3.53518,2.9656 3.53518,5.43426 0,2.24208 -1.63072,1.93104 -3.4433,-0.65677 z m 6.65933,-4.02749 c -1.3991,-1.69983 -2.68475,-10.75 -1.52712,-10.75 0.92932,0 4.32511,8.45792 4.31604,10.75 -0.003,0.6875 -0.39985,1.25 -0.88251,1.25 -0.48265,0 -1.34054,-0.5625 -1.90641,-1.25 z M 633.5,373 c -0.33992,-0.55 0.0835,-1 0.94098,-1 0.85746,0 1.55902,0.45 1.55902,1 0,0.55 -0.42344,1 -0.94098,1 -0.51754,0 -1.2191,-0.45 -1.55902,-1 z m -10.40377,-8.8202 c -1.12769,-2.1071 -0.5394,-5.1798 0.99171,-5.1798 1.36582,0 2.28596,5.0261 1.13148,6.18058 -0.71219,0.71219 -1.37319,0.40062 -2.12319,-1.00078 z M 579.75,360.9199 c -3.06604,-1.7858 -1.89421,-2.92036 3,-2.90459 6.00176,0.0193 8.4128,1.29201 5.45084,2.8772 -2.55405,1.36689 -6.13115,1.37848 -8.45084,0.0274 z m -14.25489,-4.53745 c -16.00891,-8.39949 -25.69661,-20.85183 -28.36864,-36.46436 -1.558,-9.10334 -1.40971,-24.41365 0.29986,-30.95799 2.24496,-8.59384 10.8778,-24.94426 13.18391,-24.97005 0.48937,-0.005 9.32726,2.7407 19.63976,6.10261 17.45607,5.69073 20.87628,7.47519 17.87847,9.32794 -1.02244,0.6319 -22.7171,-6.3794 -30.79943,-9.95379 C 554.26119,268.11007 551.55294,267 551.3107,267 c -0.87857,0 -8.18238,16.64987 -9.86559,22.48973 -1.4043,4.87219 -1.60941,8.23053 -1.09932,18 0.34489,6.60565 1.04026,13.71758 1.54526,15.80429 2.28922,9.45926 14.23089,23.5565 24.78768,29.26204 5.37943,2.90738 7.26236,5.29691 4.81638,6.11224 -0.55269,0.18423 -3.25269,-0.8444 -6,-2.28585 z m 49.51104,0.13373 c -1.41436,-3.72006 -1.25309,-6.06635 0.51802,-7.53624 2.0155,-1.67272 2.21623,-1.33474 2.62649,4.42234 0.39715,5.57318 -1.49652,7.44843 -3.14451,3.1139 z M 609.79378,348.75 c -0.79218,-2.35654 0.70356,-7.25 2.21604,-7.25 1.87598,0 2.46651,3.74145 1.01779,6.44842 -1.24091,2.31864 -2.60979,2.65796 -3.23383,0.80158 z M 739,330.33142 c -3.23937,-1.10287 -7.93577,-3.42202 -8.31926,-4.10818 -0.22232,-0.39778 -0.70001,-1.96074 -1.06153,-3.47324 -0.88716,-3.71161 1.33778,-3.65202 4.11941,0.11034 4.14161,5.60182 13.24677,4.74398 15.28778,-1.44033 1.40234,-4.24913 2.9736,-4.43633 2.9736,-0.35427 0,4.12001 -1.4719,6.60981 -4.97998,8.42391 -2.95425,1.5277 -5.28633,1.77247 -8.02002,0.84177 z m 135.59105,-8.1841 c -0.28984,-0.46897 0.10331,-1.70647 0.87366,-2.75 1.08055,-1.46371 1.67492,-1.62701 2.60075,-0.71454 0.66006,0.65053 0.92948,1.88803 0.59871,2.75 -0.64313,1.67596 -3.20155,2.12478 -4.07312,0.71454 z M 199,319.07581 c 0,-0.58321 1.42287,-2.30135 3.16194,-3.8181 1.73907,-1.51674 4.32657,-4.04586 5.75,-5.62027 1.42343,-1.5744 4.61306,-4.25991 7.08806,-5.96778 5.2809,-3.64409 8.82054,-6.59526 14.89619,-12.41966 4.9318,-4.72786 5.6047,-4.99304 6.53278,-2.57449 0.82477,2.1493 -5.59054,8.85886 -14.42897,15.09075 -3.575,2.52071 -7.4,5.36165 -8.5,6.31322 -1.1,0.95157 -3.41307,2.56046 -5.14016,3.57532 -1.72709,1.01486 -4.53959,2.88834 -6.25,4.16329 C 200.39943,319.09305 199,319.65902 199,319.07581 Z M 882,314 c 0,-2.2 0.45,-4 1,-4 0.55,0 1,1.8 1,4 0,2.2 -0.45,4 -1,4 -0.55,0 -1,-1.8 -1,-4 z m 7.60699,-3.58179 C 888.60187,307.79891 888.91798,306 890.38337,306 c 0.76085,0 1.58761,0.7875 1.83724,1.75 0.92343,3.56046 -1.372,5.90384 -2.61362,2.66821 z m -192.85873,-2.94267 c -1.38845,-1.38846 -2.74743,-3.69085 -3.01994,-5.11642 -1.12224,-5.8706 7.52169,-8.62863 12.80366,-4.08527 2.31518,1.99143 2.555,2.7456 1.93092,6.07221 -0.51528,2.74667 -1.38824,4.05526 -3.15284,4.72615 -3.8794,1.47495 -5.85942,1.1057 -8.5618,-1.59667 z m 5.81061,-3.95654 c 1.68015,-1.28188 1.73946,-1.61594 0.44113,-2.48468 -2.1721,-1.45342 -3.69931,-1.26029 -4.39626,0.55592 -1.25006,3.25763 0.86287,4.28802 3.95513,1.92876 z m -15.00938,-14.43893 c -0.56285,-0.9107 3.9728,-5.08007 5.52635,-5.08007 1.80732,0 2.01038,2.24725 0.36713,4.06301 -1.8455,2.03927 -4.93248,2.572 -5.89348,1.01706 z M 784,287 c -5.82944,-5.82944 1.44129,-14.36252 8.51352,-9.99164 5.04879,3.12032 5.86006,6.63405 2.29792,9.95268 -2.8473,2.65266 -8.17853,2.67187 -10.81144,0.039 z m 6.82391,-4.33589 c 0.39322,-2.02757 -2.53171,-3.35631 -4.04875,-1.83927 -0.7872,0.7872 -0.72677,1.52854 0.21731,2.66608 1.56159,1.8816 3.38238,1.48868 3.83144,-0.82681 z M 242,285.60699 c 0,-0.76616 0.675,-1.65203 1.5,-1.96862 1.02029,-0.39152 1.5,0.054 1.5,1.39301 0,1.08322 -0.67464,1.96862 -1.5,1.96862 -0.825,0 -1.5,-0.62686 -1.5,-1.39301 z m 618.65922,-4.34937 c -0.28999,-0.46921 -0.15236,-1.4597 0.30584,-2.20108 1.01419,-1.64101 4.37608,-0.58055 3.78523,1.19399 -0.50041,1.50292 -3.35095,2.20464 -4.09107,1.00709 z M 273,279.05902 c 0,-2.5151 1.6142,-3.50678 2.39522,-1.47149 0.95799,2.49651 0.7177,3.41247 -0.89522,3.41247 -0.825,0 -1.5,-0.87344 -1.5,-1.94098 z M 265.5,274 c -0.74067,-2.33363 0.21711,-6 1.56739,-6 0.51293,0 0.93261,1.8 0.93261,4 0,4.22526 -1.43051,5.36967 -2.5,2 z m 517.94615,-8.08713 c -1.0347,-1.67419 1.10601,-3.18979 3.45319,-2.44482 2.93431,0.93132 2.68373,3.53195 -0.34032,3.53195 -1.34254,0 -2.74333,-0.48921 -3.11287,-1.08713 z m 32.03451,-5.31255 c -1.79822,-1.32323 -1.82484,-1.5179 -0.28907,-2.11347 2.50077,-0.9698 5.30841,-0.16949 5.30841,1.51315 0,2.03657 -2.63867,2.35216 -5.01934,0.60032 z M 811,252.46862 c 0,-2.15172 2.68357,-2.93383 5.56377,-1.62152 C 820.231,252.518 819.49596,254 815,254 c -2.92532,0 -4,-0.41144 -4,-1.53138 z m -10,-11.36163 c 0,-1.01369 3.04579,-2.39454 3.74326,-1.69706 0.25136,0.25135 0.16039,0.93695 -0.20214,1.52354 C 803.74331,242.22435 801,242.35878 801,241.10699 Z"
     id="path12"
     inkscape:connector-curvature="0" />
</svg>
