<?xml version="1.0" encoding="UTF-8" standalone="no"?>
<!-- Created with Inkscape (http://www.inkscape.org/) -->

<svg
   xmlns:dc="http://purl.org/dc/elements/1.1/"
   xmlns:cc="http://creativecommons.org/ns#"
   xmlns:rdf="http://www.w3.org/1999/02/22-rdf-syntax-ns#"
   xmlns:svg="http://www.w3.org/2000/svg"
   xmlns="http://www.w3.org/2000/svg"
   xmlns:sodipodi="http://sodipodi.sourceforge.net/DTD/sodipodi-0.dtd"
   xmlns:inkscape="http://www.inkscape.org/namespaces/inkscape"
   version="1.1"
   id="svg2"
   width="1000"
   height="619"
   viewBox="0 0 1000 619"
   sodipodi:docname="inspect.svg"
   inkscape:version="0.92.3 (2405546, 2018-03-11)">
  <metadata
     id="metadata8">
    <rdf:RDF>
      <cc:Work
         rdf:about="">
        <dc:format>image/svg+xml</dc:format>
        <dc:type
           rdf:resource="http://purl.org/dc/dcmitype/StillImage" />
        <dc:title></dc:title>
      </cc:Work>
    </rdf:RDF>
  </metadata>
  <defs
     id="defs6" />
  <sodipodi:namedview
     pagecolor="#ffffff"
     bordercolor="#666666"
     borderopacity="1"
     objecttolerance="10"
     gridtolerance="10"
     guidetolerance="10"
     inkscape:pageopacity="0"
     inkscape:pageshadow="2"
     inkscape:window-width="640"
     inkscape:window-height="1211"
     id="namedview4"
     showgrid="false"
     inkscape:zoom="1.392"
     inkscape:cx="508.01263"
     inkscape:cy="203.84412"
     inkscape:window-x="1730"
     inkscape:window-y="32"
     inkscape:window-maximized="0"
     inkscape:current-layer="svg2" />
  <path
     style="fill:#000000"
     d="M 467.67779,504.58821 C 461.34404,500.69507 460.5,498.74445 460.5,488 c 0,-7.4814 0.50159,-10.88115 2.36061,-16 4.14304,-11.40796 7.03396,-16.93031 11.26695,-21.52256 2.26994,-2.46259 3.90673,-4.47744 3.63732,-4.47744 -2.44035,0 -25.16546,-5.23707 -28.26488,-6.51372 -27.82119,-11.4596 -41.21079,-20.39568 -56.8058,-37.91162 -15.83253,-17.7827 -21.9685,-31.12947 -26.66067,-57.99144 -1.28792,-7.37311 -1.35096,-42.17562 -0.10016,-55.294 0.51336,-5.38407 1.45666,-16.31422 2.09623,-24.28922 1.4762,-18.40726 7.51477,-66.69883 8.75307,-70 0.51578,-1.375 1.25801,-5.425 1.64941,-9 0.3914,-3.575 1.83981,-11.9 3.21869,-18.5 1.37888,-6.6 2.89076,-14.42172 3.35974,-17.3816 1.49885,-9.4597 -1.63091,-11.57475 32.37943,21.8816 10.34349,10.175 24.67797,24.8 31.85442,32.5 13.1625,14.12276 37.72411,38.42795 38.88064,38.47472 0.72401,0.0293 1.25072,-2.36342 3.89603,-17.69879 1.67087,-9.68634 6.88537,-43.63133 8.56808,-55.77593 1.0994,-7.93465 6.47342,-37.13394 7.92575,-43.06389 0.81683,-3.33514 1.48514,-7.76014 1.48514,-9.83333 0,-2.0732 0.40785,-3.61945 0.90633,-3.43611 1.42585,0.5244 11.92178,12.60078 14.49635,16.67917 1.27892,2.02594 3.13372,4.35191 4.12177,5.16884 2.25448,1.864 23.80154,30.43172 29.02737,38.48532 2.1413,3.3 5.93063,8.49622 8.42073,11.54716 5.0109,6.13951 7.11698,9.32311 23.45344,35.45284 21.74796,34.78528 27.49495,45.91826 34.84438,67.5 7.77504,22.83155 9.01376,30.20924 8.81478,52.5 -0.19679,22.04495 -1.18949,26.41231 -9.20561,40.5 -7.74606,13.61309 -13.48594,20.72233 -24.45196,30.28547 -15.79186,13.77162 -40.37174,27.10518 -58.49504,31.73113 -4.6379,1.18382 -8.59413,2.31347 -8.79163,2.51032 -0.1975,0.19686 0.60512,1.71205 1.78361,3.36708 6.12144,8.59677 10.96083,26.82289 11.68672,44.01455 0.40828,9.66955 0.28331,10.5748 -1.76019,12.75 L 542.65137,507 507.07569,506.9688 c -35.56211,-0.0312 -35.57715,-0.0321 -39.3979,-2.38058 z M 492.98494,502.25 c -0.008,-0.4125 -0.66353,-2.55 -1.4561,-4.75 -1.56698,-4.34954 -1.98347,-9.5 -0.76822,-9.5 0.41834,0 2.33084,3.2625 4.25,7.25 L 498.5,502.5 h 6.5 6.5 l -0.25166,-14 c -0.22082,-12.28436 -0.0769,-13.77478 1.17446,-12.16217 2.05862,2.65292 3.91855,15.10075 3.18671,21.32754 L 514.98253,503 h 12.28649 c 15.96004,0 16.27395,-0.27352 15.40296,-13.4211 -0.85536,-12.91155 -3.98522,-26.55534 -7.88266,-34.36234 -2.90802,-5.8251 -3.68064,-6.67891 -5.82119,-6.43286 -1.35747,0.15603 -3.41347,-0.22157 -4.56889,-0.83911 -1.15542,-0.61754 -3.18042,-0.95733 -4.5,-0.75509 -2.28169,0.3497 -2.22776,0.46291 1.10076,2.3105 3.10938,1.72595 3.25745,1.98051 1.32677,2.28088 -1.19527,0.18596 -3.98985,-0.58867 -6.21016,-1.72139 -2.22031,-1.13272 -5.29236,-2.04354 -6.82677,-2.02405 l -2.78984,0.0354 2.5,1.39225 c 4.43419,2.4694 -0.3267,3.04123 -5.29523,0.63601 -2.38492,-1.15452 -5.43164,-2.08482 -6.77049,-2.06733 -2.23704,0.0292 -2.29248,0.13945 -0.68428,1.36025 2.13416,1.62006 2.24219,2.60795 0.28518,2.60795 -0.80565,0 -1.9124,-0.83633 -2.45946,-1.85852 -0.65681,-1.22726 -2.6059,-2.07937 -5.73844,-2.50873 -4.55154,-0.62386 -4.91068,-0.48642 -8.86184,3.39135 -4.73414,4.64621 -10.86645,15.96257 -12.99248,23.9759 -2.91668,10.99337 -1.44462,25.64462 2.746,27.33071 2.03653,0.81939 23.77257,0.74554 23.75598,-0.0807 z M 530,446 c 0,-0.55 -0.45,-1 -1,-1 -0.55,0 -1,0.45 -1,1 0,0.55 0.45,1 1,1 0.55,0 1,-0.45 1,-1 z m -4.75119,-4.4061 c -0.31822,-0.51509 0.78516,-0.63711 2.55693,-0.28275 1.71419,0.34284 3.38572,0.18808 3.7145,-0.3439 0.32879,-0.53199 1.54424,-0.96725 2.701,-0.96725 3.22136,0 22.42268,-6.80358 30.27876,-10.72864 16.73526,-8.36129 34.5537,-21.09599 43.77451,-31.28532 5.57102,-6.15617 14.93789,-21.14043 18.0228,-28.83123 C 630.86155,357.776 631.9532,328.71407 628.40665,313 622.97791,288.94634 610.13713,259.66058 595.21457,237.29935 590.88377,230.80971 583.59793,219.2 579.02383,211.5 c -4.57411,-7.7 -11.94552,-19.175 -16.38092,-25.5 -4.4354,-6.325 -10.2934,-14.875 -13.01779,-19 -2.72438,-4.125 -9.97093,-13.8 -16.10343,-21.5 -6.1325,-7.7 -13.03145,-16.78459 -15.33099,-20.18798 -5.20213,-7.6993 -6.18921,-8.35582 -6.19603,-4.12104 -0.005,3.38998 -2.84955,21.42109 -5.49051,34.80902 -0.81372,4.125 -2.17155,13.52409 -3.0174,20.88688 -0.84585,7.36278 -1.75734,13.74191 -2.02553,14.17585 -0.26819,0.43394 -1.8251,9.93484 -3.4598,21.11312 -3.22727,22.0684 -5.51562,32.17607 -7.69383,33.98383 -1.48551,1.23287 -3.71011,-0.14491 -13.9821,-8.65968 -6.48163,-5.37282 -71.53879,-71.96958 -79.91106,-81.80218 -3.65387,-4.29121 -6.91888,-7.52671 -7.25557,-7.19002 -0.50429,0.50429 -3.90275,19.52311 -10.09456,56.4922 -2.23781,13.36119 -3.27249,21.82989 -5.09209,41.67774 -1.06783,11.64776 -2.61684,27.26886 -3.44225,34.71356 -0.82541,7.4447 -1.78695,20.41472 -2.13676,28.82226 -0.70854,17.02955 0.9485,30.08403 6.46825,50.95809 3.34928,12.66601 11.09883,26.46443 20.55416,36.5976 8.15045,8.73476 30.22212,25.14766 41.08438,30.55112 18.10532,9.00653 26.97939,11.7323 44,13.5151 11.28665,1.1822 45.51428,0.99743 44.74881,-0.24157 z M 497,398.2966 c -16.93834,-1.33243 -31.84448,-6.73236 -47.21483,-17.10417 -9.01127,-6.08074 -9.7918,-7.92038 -6.55242,-15.44346 14.23317,-33.05489 41.36633,-52.55642 73.34295,-52.71408 7.79503,-0.0384 28.09286,4.03681 35.12939,7.05302 8.9303,3.82797 18.19427,10.01489 25.69799,17.16231 l 7.70277,7.33703 -2.00762,4.68359 c -4.72487,11.02267 -15.619,24.94425 -25.09246,32.06557 -10.45641,7.86023 -17.31805,10.52978 -42.77012,16.63988 -4.1144,0.98771 -8.72242,1.06865 -18.23565,0.32031 z m 28.87015,-6.90319 c 8.80207,-2.12449 17.02697,-8.29256 21.90759,-16.42907 4.51119,-7.52062 5.69173,-12.06323 5.70816,-21.96434 0.0123,-7.44739 -0.3686,-9.30494 -3.07625,-15 -4.12854,-8.68362 -7.1623,-12.05652 -14.23494,-15.8262 -9.73054,-5.18632 -24.14879,-6.31072 -38.17471,-2.97703 -5.87958,1.39747 -16,6.71535 -16,8.40737 0,0.72902 -0.84217,1.77621 -1.87149,2.32708 -1.02932,0.55088 -3.57998,4.41311 -5.66813,8.58274 -4.6673,9.3197 -5.75207,19.53097 -3.05895,28.79496 1.54606,5.31826 9.59711,17.47597 13.4957,20.37954 1.80465,1.34406 11.29349,4.90593 15.10287,5.66924 4.40712,0.88307 18.50952,-0.1877 25.87015,-1.96429 z M 497,381.94098 c 0,-0.58246 0.45,-0.7809 1,-0.44098 0.55,0.33992 1,0.81648 1,1.05902 0,0.24254 -0.45,0.44098 -1,0.44098 -0.55,0 -1,-0.47656 -1,-1.05902 z m -8,-6.88196 c 0,-1.06754 0.41157,-2.19535 0.91459,-2.50623 1.09602,-0.67738 1.97744,1.43968 1.33111,3.19721 -0.71438,1.94261 -2.2457,1.47144 -2.2457,-0.69098 z m -4.45068,-1.90362 C 483.86965,371.01395 484.7803,368 486.10699,368 c 1.18471,0 1.1537,5.72085 -0.035,6.4555 -0.51041,0.31545 -1.19561,-0.2696 -1.52268,-1.3001 z m 52.57591,-13.99105 c -1.40297,-2.54557 -0.74508,-4.1842 0.98522,-2.4539 0.59241,0.59241 0.90272,1.91241 0.68958,2.93333 -0.34777,1.66581 -0.51957,1.61663 -1.6748,-0.47943 z m 1.08682,-8.63938 c -3.63196,-3.05609 -4.13989,-4.58037 -1.27681,-3.83166 2.47976,0.64848 5.3861,3.84266 4.87943,5.36269 -0.2434,0.7302 -1.60095,0.15327 -3.60262,-1.53103 z m 2.05215,-6.83712 c -3.13602,-2.12038 -3.71871,-3.70301 -1.62083,-4.40231 1.45738,-0.48579 6.35663,3.58909 6.35663,5.28704 0,1.89221 -0.86878,1.72991 -4.7358,-0.88473 z M 476.31279,385.75 c -10.16488,-10.52744 -13.26818,-27.32857 -7.89074,-42.72 1.41569,-4.05202 2.44383,-7.49745 2.28477,-7.65652 -1.26971,-1.2697 -15.02684,17.0093 -21.46191,28.51628 l -3.61836,6.47024 4.93672,4.37362 c 5.84183,5.17547 23.88518,15.21714 27.39494,15.2461 2.34862,0.0194 2.27526,-0.16919 -1.64542,-4.22972 z M 564.78302,369 c 5.26403,-5.45758 12.70811,-16.00926 14.96164,-21.20753 1.11244,-2.56608 0.90163,-2.93757 -4.03545,-7.1112 C 565.86232,332.35707 550.09337,323 545.91196,323 c -0.56706,0 0.74533,2.1375 2.9164,4.75 11.58678,13.9426 13.33343,31.4709 4.73852,47.55291 C 552.1551,377.94452 551,380.34483 551,380.63694 551,381.65196 559.50949,374.46743 564.78302,369 Z M 611,366.55902 c 0,-1.61407 1.4163,-2.80939 2.29162,-1.93407 C 614.072,365.40533 612.99677,368 611.89301,368 611.40186,368 611,367.35156 611,366.55902 Z m 4.03518,-10.49328 C 613.78692,353.73335 613.68133,351 614.83948,351 c 0.87195,0 3.16052,4.37875 3.16052,6.04705 0,1.65642 -1.88749,1.03168 -2.96482,-0.98131 z m 1.4905,-10.01608 C 614.7666,342.64798 614.58666,341 615.97432,341 c 1.03077,0 4.02568,5.17072 4.02568,6.95034 0,2.07429 -1.9785,0.99192 -3.47432,-1.90068 z M 381,309.93426 C 381,308.22444 382.98343,305 384.03518,305 c 1.36459,0 1.19972,3.3651 -0.23518,4.8 -1.48619,1.48619 -2.8,1.54919 -2.8,0.13426 z m 99.19606,-2.05206 c 1.40574,-4.30959 19.27599,-9.17195 24.99807,-6.80179 4.5949,1.90327 1.77526,3.91089 -5.56657,3.96348 -3.37016,0.0241 -7.92756,0.74165 -10.12756,1.59446 -6.20806,2.4065 -9.84164,2.89227 -9.30394,1.24385 z m -97.22587,-9.82651 c 1.18327,-2.21095 2.91607,-3.50276 3.67736,-2.74147 0.91635,0.91635 -1.67228,4.68578 -3.21792,4.68578 -1.1758,0 -1.2751,-0.42023 -0.45944,-1.94431 z M 382,289.65499 C 382,288.05445 385.16847,285 386.82874,285 c 1.5871,0 1.47228,1.12522 -0.38544,3.77749 -1.71687,2.45118 -4.4433,2.98961 -4.4433,0.8775 z m 20.93543,210.53109 C 392.35015,495.89125 387,488.35992 387,477.754 c 0,-6.81879 1.5233,-10.25026 6.48371,-14.60556 5.29543,-4.64944 12.81599,-4.194 15.56502,0.9426 0.83548,1.56112 0.68165,3.35796 -0.64991,7.59133 -2.25578,7.17172 -1.37111,8.71938 5.20417,9.1043 4.28106,0.25062 5.83221,-0.27412 12.33213,-4.17187 10.47478,-6.2813 14.41985,-7.23494 21.46149,-5.18788 3.08187,0.89592 5.60339,2.06489 5.60339,2.59771 0,0.53986 -3.00049,0.92308 -6.7773,0.86559 -7.41656,-0.11289 -10.48001,0.89518 -19.59177,6.44694 -7.37356,4.49268 -12.73707,5.40442 -18.41891,3.131 -4.68815,-1.87583 -5.89032,-4.33755 -4.75207,-9.73096 0.37576,-1.78046 0.76349,-4.8122 0.86162,-6.7372 0.15853,-3.10971 -0.1218,-3.53466 -2.51388,-3.81086 -3.33809,-0.38541 -7.44432,2.2075 -9.3588,5.9097 -2.00492,3.87709 -1.77504,11.58605 0.49457,16.58502 3.27517,7.21381 13.7783,12.18479 22.86575,10.82204 5.25805,-0.78849 7.2327,-1.62369 17.15506,-7.2559 7.90771,-4.48864 12.16166,-5.22146 18.97202,-3.26827 3.46903,0.9949 5.02061,2.4712 5.0484,4.80345 0.0113,0.95207 -0.47583,1.02234 -1.87953,0.2711 -1.04217,-0.55775 -4.30467,-1.2913 -7.25,-1.63011 -4.78128,-0.55001 -5.99815,-0.26575 -11.35516,2.65253 -12.90874,7.03216 -15.56062,8.04333 -22.29893,8.50263 -5.03275,0.34304 -7.83748,-0.004 -11.26564,-1.39525 z m 51.52345,-22.25261 c -0.36253,-0.58659 -0.41903,-1.30665 -0.12555,-1.60014 0.71632,-0.71631 2.66667,0.54583 2.66667,1.72569 0,1.27797 -1.72641,1.19267 -2.54112,-0.12555 z"
     id="path12"
     inkscape:connector-curvature="0" />
</svg>
