<?xml version="1.0" encoding="UTF-8" standalone="no"?>
<!-- Created with Inkscape (http://www.inkscape.org/) -->

<svg
   xmlns:dc="http://purl.org/dc/elements/1.1/"
   xmlns:cc="http://creativecommons.org/ns#"
   xmlns:rdf="http://www.w3.org/1999/02/22-rdf-syntax-ns#"
   xmlns:svg="http://www.w3.org/2000/svg"
   xmlns="http://www.w3.org/2000/svg"
   xmlns:sodipodi="http://sodipodi.sourceforge.net/DTD/sodipodi-0.dtd"
   xmlns:inkscape="http://www.inkscape.org/namespaces/inkscape"
   version="1.1"
   id="svg2"
   width="1000"
   height="619"
   viewBox="0 0 1000 619"
   sodipodi:docname="move.svg"
   inkscape:version="0.92.3 (2405546, 2018-03-11)">
  <metadata
     id="metadata8">
    <rdf:RDF>
      <cc:Work
         rdf:about="">
        <dc:format>image/svg+xml</dc:format>
        <dc:type
           rdf:resource="http://purl.org/dc/dcmitype/StillImage" />
        <dc:title></dc:title>
      </cc:Work>
    </rdf:RDF>
  </metadata>
  <defs
     id="defs6" />
  <sodipodi:namedview
     pagecolor="#ffffff"
     bordercolor="#666666"
     borderopacity="1"
     objecttolerance="10"
     gridtolerance="10"
     guidetolerance="10"
     inkscape:pageopacity="0"
     inkscape:pageshadow="2"
     inkscape:window-width="640"
     inkscape:window-height="1211"
     id="namedview4"
     showgrid="false"
     inkscape:zoom="1.392"
     inkscape:cx="477.15488"
     inkscape:cy="257.2529"
     inkscape:window-x="1730"
     inkscape:window-y="32"
     inkscape:window-maximized="0"
     inkscape:current-layer="svg2" />
  <path
     style="fill:#000000"
     d="m 519.83446,553.47228 c -1.82531,-0.99132 -3.20847,-3.08223 -4.38788,-6.63311 -1.48323,-4.46558 -1.63516,-7.69499 -1.09439,-23.26231 0.34537,-9.94227 0.63241,-34.87236 0.63788,-55.40018 0.009,-35.0035 0.1187,-37.30258 1.75993,-36.98951 2.58537,0.49317 3.13041,12.28824 3.11048,67.31283 -0.009,25.85 0.29011,47.7843 0.6655,48.74288 1.51784,3.87588 8.64854,-0.633 11.68079,-7.38598 1.48394,-3.30482 3.37651,-2.69051 4.18638,1.35885 0.99733,4.98667 -1.82026,10.02297 -6.74758,12.06093 -4.99025,2.06399 -6.32197,2.09054 -9.81111,0.1956 z M 390.92308,486.07692 C 389.31538,484.46923 388,482.3588 388,481.38709 c 0,-1.3897 0.65708,-1.09469 3.07881,1.38231 2.57119,2.62989 3.60164,3.05237 6.25,2.56249 6.34643,-1.17393 6.12298,0.18607 6.67119,-40.60339 0.44698,-33.25783 0.67185,-37.23565 2.12071,-37.51399 0.99587,-0.19132 1.85805,0.57475 2.23634,1.98707 1.12087,4.18464 0.71107,66.62556 -0.46995,71.6056 -1.44496,6.09302 -3.89897,8.19282 -9.57481,8.19282 -3.60292,0 -5.03111,-0.56497 -7.38921,-2.92308 z M 604.94363,474.77714 602,471.55428 v -35.72512 -35.72512 l -2.75,0.8768 c -1.5125,0.48224 -11.075,3.56889 -21.25,6.85922 -30.82871,9.96922 -51.449,13.73145 -69,12.58922 -6.325,-0.41163 -13.075,-0.7292 -15,-0.7057 -3.21945,0.0393 -15.30587,-1.25214 -35.5,-3.79319 -11.00685,-1.385 -20.62724,-3.69367 -29.5,-7.07931 -4.125,-1.57401 -8.4553,-2.85941 -9.62288,-2.85646 -2.60916,0.007 -9.50784,-2.79006 -23.1413,-9.38131 -14.86928,-7.18871 -33.45207,-25.50914 -40.92556,-40.34773 l -4.65094,-9.23443 0.20836,-10.26557 c 0.20816,-10.25605 2.15268,-20.84126 4.77599,-25.99865 1.30194,-2.55959 7.35633,-6.72279 7.35633,-5.05846 0,0.41791 -1.19208,3.24196 -2.64906,6.27568 -1.45699,3.03372 -3.2574,6.86585 -4.00092,8.51585 -1.62354,3.60293 -1.96478,18.39532 -0.55385,24.00859 0.5518,2.19528 1.27011,5.18165 1.59624,6.6364 0.32614,1.45474 3.52127,6.30166 7.10029,10.77093 3.57901,4.46927 6.5073,8.47283 6.5073,8.89681 0,1.2549 7.98033,8.59722 15.5,14.2608 11.54495,8.69528 33.22265,18.11986 47,20.43367 2.2,0.36947 4.45,1.01945 5,1.4444 5.18387,4.0052 48.82648,8.40801 76.5,7.71757 22.76053,-0.56786 34.25801,-2.38013 48.5,-7.64475 6.05,-2.2364 14.825,-5.44714 19.5,-7.13496 21.19108,-7.65064 37.64127,-17.89908 48.07458,-29.95038 8.29633,-9.58291 11.46598,-14.87057 16.01781,-26.72114 3.56884,-9.29138 4.16421,-11.98239 4.4731,-20.21794 0.44626,-11.89825 -1.6881,-20.89905 -6.2755,-26.46436 -1.75807,-2.13284 -2.98724,-4.21648 -2.73148,-4.6303 0.25575,-0.41383 -0.92496,-1.74215 -2.6238,-2.95183 -2.12095,-1.51025 -2.76577,-2.52245 -2.05788,-3.23034 1.2529,-1.2529 6.96138,2.83651 10.08706,7.22612 3.06649,4.30649 7.22143,14.1254 6.62973,15.66733 -0.28007,0.72986 -0.0131,2.75009 0.59318,4.48939 1.86735,5.35667 -1.94326,29.10357 -5.11795,31.89399 -0.31287,0.275 -1.40517,2.975 -2.42734,6 -3.67968,10.88958 -10.1749,19.49194 -23.64151,31.31112 -6.875,6.03396 -13.96002,11.91989 -15.74449,13.07986 -2.18152,1.41806 -3.02948,2.60045 -2.58822,3.60902 0.36094,0.825 0.85839,17.5875 1.10544,37.25 0.3602,28.66852 0.70995,35.75 1.76564,35.75 1.24112,0 2.34327,-1.18939 6.83757,-7.37886 2.33125,-3.21055 3.62406,-2.53604 3.62406,1.89082 0,4.62839 -1.63066,7.83865 -4.9895,9.82277 -4.03209,2.38181 -5.73616,2.08907 -9.06687,-1.55759 z M 398.81612,379.49577 c -1.56743,-3.44014 -0.0687,-4.51965 2.26996,-1.63499 2.30903,2.84815 2.43145,4.13922 0.39248,4.13922 -0.83679,0 -2.03489,-1.1269 -2.66244,-2.50423 z m -8.93762,-2.13534 C 387.633,374.78406 386,371.45064 386,369.4433 c 0,-1.41882 0.24986,-1.48082 1.56594,-0.38858 2.17541,1.80543 4.6177,6.76707 4.24446,8.62284 -0.26276,1.30642 -0.55927,1.25775 -1.9319,-0.31713 z M 379.7893,370.25 c -2.37196,-2.72965 -3.16814,-7.25 -1.27697,-7.25 0.85274,0 1.79417,0.7875 2.09205,1.75 0.29789,0.9625 0.95877,2.53139 1.46862,3.48643 1.99424,3.73554 0.4193,5.12419 -2.2837,2.01357 z M 452,359.06287 C 445.77614,357.15783 434.33549,350 437.51443,350 c 1.3438,0 17.41374,8.07476 18.01902,9.05413 0.66947,1.08321 -0.0176,1.08491 -3.53345,0.009 z m 43.88621,-2.94226 c -9.31967,-3.28564 -11.8192,-3.75697 -20.5,-3.86561 l -9.88621,-0.12372 5,1.52119 c 2.75,0.83665 7.475,2.25845 10.5,3.15953 4.95696,1.47659 5.2038,1.67504 2.5,2.00991 -4.45889,0.55226 -13.10038,-1.6292 -21,-5.30124 -3.85,-1.78962 -11.95,-4.49023 -18,-6.00135 -10.78473,-2.69372 -13.89992,-3.84162 -26,-9.58063 -14.23019,-6.7493 -30.1984,-19.36988 -37.09014,-29.31443 -14.78348,-21.33205 -18.61885,-29.45315 -21.9081,-46.38864 -2.67572,-13.77661 1.58001,-35.20244 10.27604,-51.73562 9.77414,-18.58292 20.52751,-34.79486 26.59061,-40.08843 2.27237,-1.98397 5.48159,-4.8396 7.13159,-6.34585 2.63531,-2.40573 5.61361,-3.25483 24.5,-6.98487 11.825,-2.33542 23.55518,-4.67864 26.06707,-5.20717 l 4.56706,-0.96094 -1.56706,-5.1732 C 454.9715,138.82165 447.74514,131.63268 438.23005,127 c -3.95377,-1.925 -7.19798,-3.75149 -7.20936,-4.05887 -0.13083,-3.53375 5.82351,-5.03622 51.47931,-12.98989 12.65,-2.20375 23.83279,-4.18903 24.85065,-4.41173 2.2167,-0.485 6.64935,1.37228 6.64935,2.78607 0,0.55251 -2.65522,3.76969 -5.90048,7.1493 -6.35124,6.61415 -8.08439,10.63445 -8.09394,18.77512 -0.005,4.04473 -0.29581,4.75 -1.96027,4.75 -1.45218,0 -2.12813,-0.92457 -2.62938,-3.59646 -1.09185,-5.82005 1.77167,-12.60899 9.47741,-22.46937 l 2.00516,-2.56583 -25.69925,4.67808 c -14.13459,2.57294 -29.05118,5.24692 -33.14797,5.94216 l -7.44873,1.26408 3.80182,1.95045 c 5.0989,2.6159 11.93861,9.59809 14.77946,15.08736 1.27389,2.46149 3.80091,5.71183 5.6156,7.22297 2.8517,2.3747 3.73374,2.62248 6.5,1.82597 l 3.20057,-0.92156 -4.25,-2.39306 C 466.14939,142.71584 464.80861,141 467.10498,141 c 0.60773,0 3.10529,1.35 5.55013,3 2.44483,1.65 5.02259,3 5.72836,3 2.58734,0 2.43531,-1.28161 -0.43892,-3.70011 C 476.32505,141.93717 475,140.39638 475,139.87592 c 0,-1.24103 3.82599,0.75354 7,3.64924 l 2.5,2.2808 32,-6.37024 c 17.6,-3.50363 33.35,-6.37429 35,-6.37924 1.65,-0.005 5.7,1.15197 9,2.57095 3.3,1.41898 8.63401,3.69497 11.85334,5.05776 7.77344,3.29059 20.15451,12.21821 30.84056,22.23821 10.2175,9.58065 17.103,18.07369 21.9516,27.0766 3.86151,7.17008 8.57423,20.61361 7.57613,21.61171 -1.02304,1.02304 -3.71432,-0.41408 -4.38026,-2.33903 -6.45639,-18.66245 -12.66625,-28.50747 -26.02839,-41.26507 -14.88774,-14.21418 -30.81816,-24.61639 -44.32079,-28.94049 l -6.50781,-2.08407 -71.77068,14.35974 -71.77068,14.35973 -7.05497,7.39874 c -9.54017,10.00502 -15.88153,19.15253 -22.80744,32.90008 -6.77818,13.45431 -10.56632,23.96433 -13.15527,36.49866 -2.44559,11.84025 -2.38663,14.25932 0.62116,25.48651 2.80106,10.45552 7.33484,20.51129 13.15252,29.17187 6.5684,9.77815 18.70561,23.19729 24.36249,26.93567 16.11371,10.64881 28.41545,16.18643 40.93849,18.42843 4.125,0.7385 10.425,2.00173 14,2.80718 8.05176,1.81405 33.75222,2.82888 40.5,1.59921 2.75,-0.50114 8.825,-1.33024 13.5,-1.84245 9.15529,-1.00309 12.51469,-1.82522 32.57761,-7.97264 16.74274,-5.13008 21.68775,-7.09308 33.92239,-13.46595 24.58843,-12.80782 41.97763,-28.60161 51.27727,-46.57272 l 3.91992,-7.57505 6.95627,-2.56773 c 3.82595,-1.41226 9.07212,-4.02348 11.65815,-5.80271 7.37732,-5.07574 22.95093,-21.11073 25.9101,-26.67773 4.43033,-8.33465 7.55374,-20.0992 9.54498,-35.95189 1.73294,-13.79633 2.22881,-15.69521 6.17939,-23.6636 2.36239,-4.76498 6.42021,-11.28998 9.01739,-14.5 l 4.72214,-5.8364 -12.64103,-0.10586 c -7.10513,-0.0595 -14.29553,-0.65189 -16.41902,-1.3527 -3.45598,-1.14058 -3.9793,-1.05775 -6.13958,0.97173 -3.63083,3.41099 -7.27908,12.06664 -9.59833,22.77251 -1.15744,5.34288 -2.81245,11.51432 -3.67779,13.71432 -2.23532,5.68298 -7.65755,12.52852 -12.53262,15.82237 -3.61043,2.4394 -4.2242,2.59298 -4.52331,1.13188 -0.20013,-0.97759 1.57248,-3.64379 4.20339,-6.32236 2.50221,-2.54754 5.49952,-6.88189 6.66069,-9.63189 1.16118,-2.75 2.5271,-5.9 3.03538,-7 0.50829,-1.1 1.83489,-5.97929 2.94801,-10.84286 2.16508,-9.45997 7.56477,-22.26168 10.35692,-24.55448 1.41049,-1.15823 3.10831,-1.20079 9.92168,-0.24873 10.39485,1.45252 24.10427,1.47147 30.76723,0.0425 7.83138,-1.67953 8.34556,-0.16228 2.31354,6.82679 -6.83256,7.91664 -10.85183,13.9952 -14.89904,22.53262 -2.85116,6.01442 -3.76525,9.72857 -5.38475,21.87962 -3.04173,22.82202 -8.83556,37.55858 -18.93716,48.16655 -11.18413,11.74477 -25.88175,22.02058 -34.45572,24.08963 -1.99589,0.48164 -3.26163,1.74633 -4.34656,4.34292 -5.39832,12.91999 -23.41979,31.82176 -40.63304,42.61783 l -2.7955,1.75332 2.20461,1.78518 c 2.70022,2.1865 1.7609,4.64748 -1.1743,3.07661 C 590.87269,325.39668 590,324.23297 590,323.38148 c 0,-1.7855 0.13758,-1.82863 -6.75745,2.11852 -5.17512,2.96256 -6.42909,4.8106 -3.99255,5.88402 0.6875,0.30288 -0.445,0.28889 -2.51667,-0.0311 -3.75366,-0.57976 -9.73333,1.10343 -9.73333,2.7398 0,0.46755 1.43189,1.22113 3.18198,1.67462 1.75009,0.45349 3.36259,1.36636 3.58333,2.02859 0.54621,1.63863 -3.30458,1.50969 -8.44955,-0.28292 -3.91365,-1.36359 -4.51599,-1.31146 -9.31413,0.8061 l -5.12989,2.26396 6.1349,1.83769 c 3.8795,1.16209 5.78526,2.18733 5.18383,2.78876 -0.93423,0.93423 -8.00093,-0.96736 -12.4566,-3.35196 -1.54288,-0.82572 -3.46964,-0.64867 -8.05739,0.74038 l -6.02961,1.82562 5.42656,2.45649 c 7.09631,3.21234 3.9974,4.14298 -4.03869,1.21288 -4.88175,-1.77998 -6.53393,-1.9465 -10.96846,-1.10551 -2.87153,0.54457 -5.69695,1.28431 -6.27872,1.64387 -1.21776,0.75262 2.83831,3.27893 5.35166,3.33326 0.90156,0.0195 2.70156,0.94568 4,2.05819 l 2.36078,2.02275 -4,-0.60411 c -2.2,-0.33226 -6.80948,-1.75872 -10.24328,-3.16991 -6.17707,-2.53859 -6.33086,-2.55039 -14.5,-1.11207 l -8.25672,1.45374 5.5,1.82574 c 5.77177,1.91596 8,3.22046 8,4.68355 0,1.23791 -0.29582,1.1646 -12.11379,-3.00183 z m -74.76972,-4.19084 c -2.28797,-1.39486 -3.05502,-2.39124 -2.36898,-3.07728 1.25708,-1.25708 9.61548,2.75116 8.72879,4.18585 -0.90386,1.46249 -2.6385,1.16012 -6.35981,-1.10857 z M 624.38,347.54789 c -0.95759,-2.49544 0.65852,-3.87 2.1842,-1.85773 0.75471,0.99541 1.3865,2.14734 1.404,2.55984 0.0583,1.37497 -3.02247,0.77214 -3.5882,-0.70211 z m 7.09608,-7.62325 c -0.74935,-2.36099 -0.11357,-3.43666 1.45739,-2.46576 1.31159,0.81061 1.4216,4.54112 0.13392,4.54112 -0.51294,0 -1.22903,-0.93391 -1.59131,-2.07536 z m 4.95945,-4.67464 c -0.33142,-1.5125 -0.75898,-3.26851 -0.95015,-3.90223 -0.53574,-1.776 0.679,-2.45624 2.17261,-1.21665 1.53818,1.27658 1.84067,7.86888 0.36106,7.86888 -0.53952,0 -1.2521,-1.2375 -1.58352,-2.75 z M 408.5,302 c -0.33992,-0.55 0.0835,-1 0.94098,-1 0.85746,0 1.55902,0.45 1.55902,1 0,0.55 -0.42344,1 -0.94098,1 -0.51754,0 -1.2191,-0.45 -1.55902,-1 z m -10.40377,-8.8202 c -1.12769,-2.1071 -0.5394,-5.1798 0.99171,-5.1798 1.36582,0 2.28596,5.0261 1.13148,6.18058 -0.71219,0.71219 -1.37319,0.40062 -2.12319,-1.00078 z M 354.75,289.9199 c -3.06604,-1.7858 -1.89421,-2.92036 3,-2.90459 6.00176,0.0193 8.4128,1.29201 5.45084,2.8772 -2.55405,1.36689 -6.13115,1.37848 -8.45084,0.0274 z m -14.25489,-4.53745 c -16.00891,-8.39949 -25.69661,-20.85183 -28.36864,-36.46436 -1.558,-9.10334 -1.40971,-24.41365 0.29986,-30.95799 2.24496,-8.59384 10.8778,-24.94426 13.18391,-24.97005 0.48937,-0.005 9.32726,2.7407 19.63976,6.10261 17.45607,5.69073 20.87628,7.47519 17.87847,9.32794 -1.02244,0.6319 -22.7171,-6.3794 -30.79943,-9.95379 C 329.26119,197.11007 326.55294,196 326.3107,196 c -0.87857,0 -8.18238,16.64987 -9.86559,22.48973 -1.4043,4.87219 -1.60941,8.23053 -1.09932,18 0.34489,6.60565 1.04026,13.71758 1.54526,15.80429 2.28922,9.45926 14.23089,23.5565 24.78768,29.26204 5.37943,2.90738 7.26236,5.29691 4.81638,6.11224 -0.55269,0.18423 -3.25269,-0.8444 -6,-2.28585 z m 49.51104,0.13373 c -1.41436,-3.72006 -1.25309,-6.06635 0.51802,-7.53624 2.0155,-1.67272 2.21623,-1.33474 2.62649,4.42234 0.39715,5.57318 -1.49652,7.44843 -3.14451,3.1139 z M 384.79378,277.75 c -0.79218,-2.35654 0.70356,-7.25 2.21604,-7.25 1.87598,0 2.46651,3.74145 1.01779,6.44842 -1.24091,2.31864 -2.60979,2.65796 -3.23383,0.80158 z M 511.40184,262.09491 C 507.29789,260.23112 506,258.50678 506,254.91821 c 0,-2.72148 0.91164,-2.40552 4.56387,1.58179 5.12568,5.59595 12.09624,4.64258 14.88675,-2.03607 1.98599,-4.75312 3.98769,-4.57501 3.21495,0.28607 -0.77873,4.89884 -5.47048,9.25833 -9.93135,9.22804 -1.77882,-0.0121 -5.07839,-0.85949 -7.33238,-1.88313 z m 138.18921,-10.94759 c -0.28984,-0.46897 0.10331,-1.70647 0.87366,-2.75 1.08055,-1.46371 1.67492,-1.62701 2.60075,-0.71454 0.66006,0.65053 0.92948,1.88803 0.59871,2.75 -0.64313,1.67596 -3.20155,2.12478 -4.07312,0.71454 z M 657,243 c 0,-2.2 0.45,-4 1,-4 0.55,0 1,1.8 1,4 0,2.2 -0.45,4 -1,4 -0.55,0 -1,-1.8 -1,-4 z m -183.3437,-0.13253 c -2.22002,-1.29047 -4.85209,-7.19369 -4.09135,-9.17612 0.62045,-1.61687 4.6925,-3.69319 7.2321,-3.68761 0.93662,0.002 3.21152,0.92345 5.05532,2.04755 3.10123,1.89071 3.30253,2.32118 2.68709,5.74627 -0.3659,2.03634 -1.39798,4.26494 -2.2935,4.95244 -1.97719,1.51791 -6.08383,1.57407 -8.58966,0.11747 z m 5.28582,-5.29773 c 0.94697,-1.14103 0.79074,-1.64234 -0.77255,-2.47899 -1.47503,-0.78941 -2.25408,-0.69385 -3.15065,0.38646 -1.34174,1.61669 -0.57468,3.52279 1.41765,3.52279 0.7252,0 1.8527,-0.64362 2.50555,-1.43026 z m 185.66487,1.84847 C 663.60187,236.79891 663.91798,235 665.38337,235 c 0.76085,0 1.58761,0.7875 1.83724,1.75 0.92343,3.56046 -1.372,5.90384 -2.61362,2.66821 z M 463.66667,224.33333 c -1.20027,-1.20026 -0.70611,-2.26138 1.82561,-3.92023 1.37075,-0.89815 3.23816,-1.34678 4.1498,-0.99695 1.46198,0.56101 1.38335,0.92788 -0.6666,3.10995 -2.32338,2.47312 -4.05384,3.06221 -5.30881,1.80723 z m 95.78788,-5.78788 c -1.35,-1.35 -2.45455,-3.27487 -2.45455,-4.27749 0,-2.88551 2.69399,-5.97564 5.72119,-6.56247 3.98649,-0.77279 9.27881,3.38444 9.27881,7.2887 0,5.79248 -8.03091,8.06581 -12.54545,3.55126 z m 6.94171,-3.13569 C 567.21538,213.27517 566.29716,212 563.94098,212 562.72548,212 562,212.68525 562,213.83333 c 0,3.3301 3.27295,4.50372 4.39626,1.57643 z m 69.26296,-5.15214 c -0.28999,-0.46921 -0.15236,-1.4597 0.30584,-2.20108 1.01419,-1.64101 4.37608,-0.58055 3.78523,1.19399 -0.50041,1.50292 -3.35095,2.20464 -4.09107,1.00709 z M 558,197.55902 c 0,-1.96125 1.234,-2.5721 3.82646,-1.89415 C 565.14292,196.53214 564.53137,199 561,199 c -1.94539,0 -3,-0.50656 -3,-1.44098 z m 32.48066,-7.9587 c -1.79822,-1.32323 -1.82484,-1.5179 -0.28907,-2.11347 2.50077,-0.9698 5.30841,-0.16949 5.30841,1.51315 0,2.03657 -2.63867,2.35216 -5.01934,0.60032 z M 586,181.46862 c 0,-2.15172 2.68357,-2.93383 5.56377,-1.62152 C 595.231,181.518 594.49596,183 590,183 c -2.92532,0 -4,-0.41144 -4,-1.53138 z m -10,-11.36163 c 0,-1.01369 3.04579,-2.39454 3.74326,-1.69706 0.25136,0.25135 0.16039,0.93695 -0.20214,1.52354 C 578.74331,171.22435 576,171.35878 576,170.10699 Z"
     id="path12"
     inkscape:connector-curvature="0" />
</svg>
