<?xml version="1.0" encoding="UTF-8" standalone="no"?>
<!-- Created with Inkscape (http://www.inkscape.org/) -->

<svg
   xmlns:dc="http://purl.org/dc/elements/1.1/"
   xmlns:cc="http://creativecommons.org/ns#"
   xmlns:rdf="http://www.w3.org/1999/02/22-rdf-syntax-ns#"
   xmlns:svg="http://www.w3.org/2000/svg"
   xmlns="http://www.w3.org/2000/svg"
   xmlns:sodipodi="http://sodipodi.sourceforge.net/DTD/sodipodi-0.dtd"
   xmlns:inkscape="http://www.inkscape.org/namespaces/inkscape"
   version="1.1"
   id="svg2"
   width="1000"
   height="619"
   viewBox="0 0 1000 619"
   sodipodi:docname="note.svg"
   inkscape:version="0.92.3 (2405546, 2018-03-11)">
  <metadata
     id="metadata8">
    <rdf:RDF>
      <cc:Work
         rdf:about="">
        <dc:format>image/svg+xml</dc:format>
        <dc:type
           rdf:resource="http://purl.org/dc/dcmitype/StillImage" />
        <dc:title></dc:title>
      </cc:Work>
    </rdf:RDF>
  </metadata>
  <defs
     id="defs6" />
  <sodipodi:namedview
     pagecolor="#ffffff"
     bordercolor="#666666"
     borderopacity="1"
     objecttolerance="10"
     gridtolerance="10"
     guidetolerance="10"
     inkscape:pageopacity="0"
     inkscape:pageshadow="2"
     inkscape:window-width="640"
     inkscape:window-height="1211"
     id="namedview4"
     showgrid="false"
     inkscape:zoom="3.9371706"
     inkscape:cx="501.20859"
     inkscape:cy="310.67568"
     inkscape:window-x="1750"
     inkscape:window-y="32"
     inkscape:window-maximized="0"
     inkscape:current-layer="svg2" />
  <path
     style="fill:#000000"
     d="M 462.72221,520.94521 C 445.8601,517.74219 440.23705,515.9284 425.5,508.93869 c -14.23019,-6.7493 -30.1984,-19.36988 -37.09014,-29.31443 -14.78348,-21.33205 -18.61885,-29.45315 -21.9081,-46.38864 -2.67572,-13.77661 1.58001,-35.20244 10.27604,-51.73562 9.77414,-18.58292 20.52751,-34.79486 26.59061,-40.08843 2.27237,-1.98397 5.48159,-4.8396 7.13159,-6.34585 2.63531,-2.40573 5.61361,-3.25483 24.5,-6.98487 11.825,-2.33542 23.55518,-4.67864 26.06707,-5.20717 l 4.56706,-0.96094 -1.56706,-5.1732 C 461.9715,309.82165 454.74514,302.63268 445.23005,298 c -3.95377,-1.925 -7.19798,-3.75149 -7.20936,-4.05887 -0.13083,-3.53375 5.82351,-5.03622 51.47931,-12.98989 12.65,-2.20375 23.83279,-4.18903 24.85065,-4.41173 2.2167,-0.485 6.64935,1.37228 6.64935,2.78607 0,0.55251 -2.65522,3.76969 -5.90048,7.1493 -6.35124,6.61415 -8.08439,10.63445 -8.09394,18.77512 -0.005,4.04473 -0.29581,4.75 -1.96027,4.75 -1.45218,0 -2.12813,-0.92457 -2.62938,-3.59646 -1.09185,-5.82005 1.77167,-12.60899 9.47741,-22.46937 l 2.00516,-2.56583 -25.69925,4.67808 c -14.13459,2.57294 -29.05118,5.24692 -33.14797,5.94216 l -7.44873,1.26408 3.80182,1.95045 c 5.0989,2.6159 11.93861,9.59809 14.77946,15.08736 1.27389,2.46149 3.80091,5.71183 5.6156,7.22297 2.8517,2.3747 3.73374,2.62248 6.5,1.82597 l 3.20057,-0.92156 -4.25,-2.39306 C 473.14939,313.71584 471.80861,312 474.10498,312 c 0.60773,0 3.10529,1.35 5.55013,3 2.44483,1.65 5.02259,3 5.72836,3 2.58734,0 2.43531,-1.28161 -0.43892,-3.70011 C 483.32505,312.93717 482,311.39638 482,310.87592 c 0,-1.24103 3.82599,0.75354 7,3.64924 l 2.5,2.2808 32,-6.37024 c 17.6,-3.50363 33.35,-6.37429 35,-6.37924 1.65,-0.005 5.7,1.15197 9,2.57095 3.3,1.41898 8.63401,3.69497 11.85334,5.05776 7.77344,3.29059 20.15451,12.21821 30.84056,22.23821 10.2175,9.58065 17.103,18.07369 21.9516,27.0766 3.86151,7.17008 8.57423,20.61361 7.57613,21.61171 -1.02304,1.02304 -3.71432,-0.41408 -4.38026,-2.33903 -6.45639,-18.66245 -12.66625,-28.50747 -26.02839,-41.26507 -14.88774,-14.21418 -30.81816,-24.61639 -44.32079,-28.94049 l -6.50781,-2.08407 -71.77068,14.35974 -71.77068,14.35973 -7.05497,7.39874 c -9.54017,10.00502 -15.88153,19.15253 -22.80744,32.90008 -6.77818,13.45431 -10.56632,23.96433 -13.15527,36.49866 -2.44559,11.84025 -2.38663,14.25932 0.62116,25.48651 2.80106,10.45552 7.33484,20.51129 13.15252,29.17187 6.5684,9.77815 18.70561,23.19729 24.36249,26.93567 16.11371,10.64881 28.41545,16.18643 40.93849,18.42843 4.125,0.7385 10.425,2.00173 14,2.80718 8.04897,1.81342 33.74961,2.82897 40.5,1.60033 2.75,-0.50053 9.05,-1.35847 14,-1.90653 9.49734,-1.05155 11.29164,-1.49296 32.07761,-7.89124 16.78786,-5.16758 21.71863,-7.1276 33.92239,-13.48439 24.58843,-12.80782 41.97763,-28.60161 51.27727,-46.57272 l 3.91992,-7.57505 6.95627,-2.56773 c 3.82595,-1.41226 9.07212,-4.02348 11.65815,-5.80271 7.37732,-5.07574 22.95093,-21.11073 25.9101,-26.67773 4.43033,-8.33465 7.55374,-20.0992 9.54498,-35.95189 1.73294,-13.79633 2.22881,-15.69521 6.17939,-23.6636 2.36239,-4.76498 6.42021,-11.28998 9.01739,-14.5 l 4.72214,-5.8364 -12.64103,-0.10586 c -7.10513,-0.0595 -14.29553,-0.65189 -16.41902,-1.3527 -3.45598,-1.14058 -3.9793,-1.05775 -6.13958,0.97173 -3.63083,3.41099 -7.27908,12.06664 -9.59833,22.77251 -1.15744,5.34288 -2.81245,11.51432 -3.67779,13.71432 -2.23532,5.68298 -7.65755,12.52852 -12.53262,15.82237 -3.61043,2.4394 -4.2242,2.59298 -4.52331,1.13188 -0.20013,-0.97759 1.57248,-3.64379 4.20339,-6.32236 2.50221,-2.54754 5.49952,-6.88189 6.66069,-9.63189 1.16118,-2.75 2.5271,-5.9 3.03538,-7 0.50829,-1.1 1.83489,-5.97929 2.94801,-10.84286 2.16508,-9.45997 7.56477,-22.26168 10.35692,-24.55448 1.41049,-1.15823 3.10831,-1.20079 9.92168,-0.24873 10.39485,1.45252 24.10427,1.47147 30.76723,0.0425 7.83138,-1.67953 8.34556,-0.16228 2.31354,6.82679 -6.83256,7.91664 -10.85183,13.9952 -14.89904,22.53262 -2.85116,6.01442 -3.76525,9.72857 -5.38475,21.87962 -3.04173,22.82202 -8.83556,37.55858 -18.93716,48.16655 -11.18413,11.74477 -25.88175,22.02058 -34.45572,24.08963 -1.99589,0.48164 -3.26163,1.74633 -4.34656,4.34292 -6.18177,14.79506 -24.47322,32.92865 -46.52955,46.12798 -8.81393,5.27459 -34.16368,17.11107 -36.68269,17.12813 -0.75608,0.005 -6.38108,1.55103 -12.5,3.43535 -20.8247,6.41296 -35.54052,8.60511 -56.89386,8.47523 -11.27207,-0.0686 -19.21896,-0.66622 -26.00923,-1.95606 z M 415.5,473 c -0.33992,-0.55 0.0835,-1 0.94098,-1 0.85746,0 1.55902,0.45 1.55902,1 0,0.55 -0.42344,1 -0.94098,1 -0.51754,0 -1.2191,-0.45 -1.55902,-1 z m -10.40377,-8.8202 c -1.12769,-2.1071 -0.5394,-5.1798 0.99171,-5.1798 1.36582,0 2.28596,5.0261 1.13148,6.18058 -0.71219,0.71219 -1.37319,0.40062 -2.12319,-1.00078 z M 361.75,460.9199 c -3.06604,-1.7858 -1.89421,-2.92036 3,-2.90459 6.00176,0.0193 8.4128,1.29201 5.45084,2.8772 -2.55405,1.36689 -6.13115,1.37848 -8.45084,0.0274 z m -14.25489,-4.53745 c -16.00891,-8.39949 -25.69661,-20.85183 -28.36864,-36.46436 -1.558,-9.10334 -1.40971,-24.41365 0.29986,-30.95799 2.24496,-8.59384 10.8778,-24.94426 13.18391,-24.97005 0.48937,-0.005 9.32726,2.7407 19.63976,6.10261 17.45607,5.69073 20.87628,7.47519 17.87847,9.32794 -1.02244,0.6319 -22.7171,-6.3794 -30.79943,-9.95379 C 336.26119,368.11007 333.55294,367 333.3107,367 c -0.87857,0 -8.18238,16.64987 -9.86559,22.48973 -1.4043,4.87219 -1.60941,8.23053 -1.09932,18 0.34489,6.60565 1.04026,13.71758 1.54526,15.80429 2.28922,9.45926 14.23089,23.5565 24.78768,29.26204 5.37943,2.90738 7.26236,5.29691 4.81638,6.11224 -0.55269,0.18423 -3.25269,-0.8444 -6,-2.28585 z m 49.51104,0.13373 c -1.41436,-3.72006 -1.25309,-6.06635 0.51802,-7.53624 2.0155,-1.67272 2.21623,-1.33474 2.62649,4.42234 0.39715,5.57318 -1.49652,7.44843 -3.14451,3.1139 z M 391.79378,448.75 c -0.79218,-2.35654 0.70356,-7.25 2.21604,-7.25 1.87598,0 2.46651,3.74145 1.01779,6.44842 -1.24091,2.31864 -2.60979,2.65796 -3.23383,0.80158 z M 518.40184,433.09491 C 514.29789,431.23112 513,429.50678 513,425.91821 c 0,-2.72148 0.91164,-2.40552 4.56387,1.58179 5.12568,5.59595 12.09624,4.64258 14.88675,-2.03607 1.98599,-4.75312 3.98769,-4.57501 3.21495,0.28607 -0.77873,4.89884 -5.47048,9.25833 -9.93135,9.22804 -1.77882,-0.0121 -5.07839,-0.85949 -7.33238,-1.88313 z m 138.18921,-10.94759 c -0.28984,-0.46897 0.10331,-1.70647 0.87366,-2.75 1.08055,-1.46371 1.67492,-1.62701 2.60075,-0.71454 0.66006,0.65053 0.92948,1.88803 0.59871,2.75 -0.64313,1.67596 -3.20155,2.12478 -4.07312,0.71454 z M 664,414 c 0,-2.2 0.45,-4 1,-4 0.55,0 1,1.8 1,4 0,2.2 -0.45,4 -1,4 -0.55,0 -1,-1.8 -1,-4 z m -183.3437,-0.13253 c -2.22002,-1.29047 -4.85209,-7.19369 -4.09135,-9.17612 0.62045,-1.61687 4.6925,-3.69319 7.2321,-3.68761 0.93662,0.002 3.21152,0.92345 5.05532,2.04755 3.10123,1.89071 3.30253,2.32118 2.68709,5.74627 -0.3659,2.03634 -1.39798,4.26494 -2.2935,4.95244 -1.97719,1.51791 -6.08383,1.57407 -8.58966,0.11747 z m 5.28582,-5.29773 c 0.94697,-1.14103 0.79074,-1.64234 -0.77255,-2.47899 -1.47503,-0.78941 -2.25408,-0.69385 -3.15065,0.38646 -1.34174,1.61669 -0.57468,3.52279 1.41765,3.52279 0.7252,0 1.8527,-0.64362 2.50555,-1.43026 z m 185.66487,1.84847 C 670.60187,407.79891 670.91798,406 672.38337,406 c 0.76085,0 1.58761,0.7875 1.83724,1.75 0.92343,3.56046 -1.372,5.90384 -2.61362,2.66821 z M 470.66667,395.33333 c -1.20027,-1.20026 -0.70611,-2.26138 1.82561,-3.92023 1.37075,-0.89815 3.23816,-1.34678 4.1498,-0.99695 1.46198,0.56101 1.38335,0.92788 -0.6666,3.10995 -2.32338,2.47312 -4.05384,3.06221 -5.30881,1.80723 z m 95.78788,-5.78788 c -1.35,-1.35 -2.45455,-3.27487 -2.45455,-4.27749 0,-2.88551 2.69399,-5.97564 5.72119,-6.56247 3.98649,-0.77279 9.27881,3.38444 9.27881,7.2887 0,5.79248 -8.03091,8.06581 -12.54545,3.55126 z m 6.94171,-3.13569 C 574.21538,384.27517 573.29716,383 570.94098,383 569.72548,383 569,383.68525 569,384.83333 c 0,3.3301 3.27295,4.50372 4.39626,1.57643 z m 69.26296,-5.15214 c -0.28999,-0.46921 -0.15236,-1.4597 0.30584,-2.20108 1.01419,-1.64101 4.37608,-0.58055 3.78523,1.19399 -0.50041,1.50292 -3.35095,2.20464 -4.09107,1.00709 z M 565,368.55902 c 0,-1.96125 1.234,-2.5721 3.82646,-1.89415 C 572.14292,367.53214 571.53137,370 568,370 c -1.94539,0 -3,-0.50656 -3,-1.44098 z m 32.48066,-7.9587 c -1.79822,-1.32323 -1.82484,-1.5179 -0.28907,-2.11347 2.50077,-0.9698 5.30841,-0.16949 5.30841,1.51315 0,2.03657 -2.63867,2.35216 -5.01934,0.60032 z M 593,352.46862 c 0,-2.15172 2.68357,-2.93383 5.56377,-1.62152 C 602.231,352.518 601.49596,354 597,354 c -2.92532,0 -4,-0.41144 -4,-1.53138 z m -238.73897,-9.42226 c -0.71565,-1.14594 -0.83585,-2.1911 -0.29072,-2.52801 0.81268,-0.50226 3.02969,2.36324 3.02969,3.91591 0,1.25483 -1.59252,0.44787 -2.73897,-1.3879 z M 583,341.10699 c 0,-1.01369 3.04579,-2.39454 3.74326,-1.69706 0.25136,0.25135 0.16039,0.93695 -0.20214,1.52354 C 585.74331,342.22435 583,342.35878 583,341.10699 Z M 343.80661,327.25 c -4.29766,-6.55353 -19.58814,-32.74681 -21.93003,-37.56713 -2.18546,-4.49835 -2.15364,-6.59017 0.0793,-5.21016 0.5989,0.37014 2.38931,3.24906 3.97869,6.39761 1.58937,3.14854 7.4293,13.26623 12.97762,22.48375 C 344.46047,322.57159 349,330.31273 349,330.5566 c 0,0.24387 -0.6152,0.4434 -1.36711,0.4434 -0.75192,0 -2.47374,-1.6875 -3.82628,-3.75 z m -41.06002,-14 c -1.88306,-2.6125 -6.3471,-9.25 -9.92008,-14.75 -13.41234,-20.64605 -14.36303,-22.5 -11.5378,-22.5 0.70879,0 2.8402,2.5875 4.73645,5.75 1.89625,3.1625 6.87984,10.925 11.07463,17.25 C 304.20038,309.70644 308,316.13789 308,317.45034 c 0,1.75463 -2.26845,-0.0591 -5.25341,-4.20034 z m 69.57774,0.5 C 369.33291,310.42503 364,302.3016 364,301.06982 c 0,-2.33674 2.86345,-0.86577 5.21735,2.68018 2.82917,4.2619 6.78265,11.14408 6.78265,11.80716 0,1.13585 -1.84319,0.22963 -3.67567,-1.80716 z m 272.03101,-7.01498 c -1.65437,-1.77926 -4.66848,-5.60882 -6.69801,-8.51012 -3.10863,-4.4439 -3.43523,-5.3729 -2.07278,-5.89572 0.88952,-0.34134 1.90938,-0.19592 2.26637,0.32315 0.357,0.51907 2.0483,2.94714 3.75845,5.39572 3.6313,5.19924 6.70689,10.96903 6.14601,11.5299 -0.21565,0.21565 -1.74566,-1.06367 -3.40004,-2.84293 z M 690.36693,298.75 c -1.4638,-2.3375 -4.78235,-7.4 -7.37457,-11.25 -7.11475,-10.56694 -9.37655,-15.5 -7.10671,-15.5 0.94217,0 13.76887,18.45224 16.33554,23.5 4.06381,7.99209 2.65816,10.45578 -1.85426,3.25 z m -20.62204,-1.59164 c -2.49083,-2.66291 -7.11469,-8.85041 -10.27523,-13.75 C 656.30911,278.50876 652.27067,272.7 650.49534,270.5 642.50468,260.5979 628,237.50805 628,234.68989 c 0,-3.39452 1.77011,-1.46269 8.75983,9.56011 3.92358,6.1875 9.61735,14.625 12.65283,18.75 3.03548,4.125 8.54199,12 12.2367,17.5 3.69471,5.5 8.43507,12.34329 10.53414,15.2073 2.09908,2.86402 3.8165,5.45152 3.8165,5.75 0,1.55082 -2.19337,0.0434 -6.25511,-4.29894 z m -421.6236,-1.6899 c -14.96517,-2.25731 -22.6705,-7.36691 -25.18361,-16.6999 -2.3525,-8.73653 3.02725,-22.91393 10.3059,-27.15939 7.0648,-4.12073 13.55202,-5.89395 18.94529,-5.1785 L 257,247.06889 v -6.8381 c 0,-8.42284 2.83498,-14.70073 10.35347,-22.92716 4.84422,-5.30035 14.68942,-11.2761 18.64653,-11.3179 0.825,-0.009 3.3,-0.66432 5.5,-1.45689 2.58071,-0.92974 8.12406,-1.45663 15.62288,-1.48495 12.71879,-0.048 17.05514,1.17494 25.27242,7.1275 4.48236,3.24701 6.36969,5.73029 10.61432,13.96599 l 2.90547,5.63739 9.80761,-0.0345 c 10.46239,-0.0368 13.27226,0.82542 20.07844,6.16122 5.13676,4.02703 10.19886,15.77122 10.19886,23.6616 0,5.55476 -0.37989,6.78209 -3.28383,10.60917 -6.07165,8.00177 -21.19139,14.96323 -42.71617,19.66747 -8.34303,1.82337 -8.52497,1.82234 -9.852,-0.0557 -0.7436,-1.05235 -1.1936,-2.04208 -1,-2.19939 0.74662,-0.60669 13.67791,-3.52564 20.26566,-4.57453 11.79541,-1.87804 26.97775,-9.99877 30.14529,-16.1241 2.01405,-3.89475 1.79508,-10.91831 -0.55061,-17.66099 -2.06943,-5.94861 -4.76024,-8.89399 -11.2185,-12.27988 -4.60984,-2.41681 -16.15179,-2.6564 -21.44408,-0.44514 -4.93109,2.06034 -5.00592,2.02668 -5.74298,-2.58264 -0.76831,-4.8047 -4.42916,-12.36915 -8.09387,-16.7244 -1.43103,-1.70069 -5.60341,-4.51031 -9.27194,-6.24361 -6.47543,-3.0595 -6.99201,-3.13917 -17.70352,-2.73058 -10.61121,0.40476 -16.67421,1.7052 -25.83992,5.54236 -4.36393,1.82692 -13.53542,11.27856 -16.01527,16.50446 -1.86639,3.93312 -2.27845,15.15487 -0.75193,20.47753 1.16214,4.05214 -0.0254,4.89332 -3.60075,2.55064 -1.92008,-1.25808 -4.67488,-1.79002 -9.27825,-1.79156 -7.75062,-0.003 -12.96465,2.31479 -17.32248,7.69904 -2.56886,3.17391 -3.37884,5.2006 -5.40747,13.53028 -1.25977,5.17272 3.00023,11.85938 9.74896,15.30232 5.84029,2.9795 21.19677,4.91876 33.71904,4.25816 9.24215,-0.48757 10.93427,-0.33472 12.12069,1.09483 0.75841,0.91382 1.20231,1.82551 0.98643,2.02596 -1.36195,1.26464 -27.48664,1.30529 -35.77121,0.0557 z m 51.24797,-1.24206 C 298.61617,293.47331 298,292.50613 298,292.0771 c 0,-0.42902 3.90004,-1.05527 8.66675,-1.39166 7.4745,-0.52748 8.83891,-0.37617 9.91824,1.0999 0.68832,0.94133 1.09655,1.86646 0.90717,2.05583 -0.18937,0.18937 -4.03641,0.66161 -8.54898,1.0494 -6.34929,0.54564 -8.5143,0.39545 -9.57392,-0.66417 z M 625.68521,278.46607 C 623.7498,274.40748 623.57715,273 625.0147,273 c 1.1788,0 4.97605,5.90752 4.98156,7.75 0.008,2.5566 -2.68236,1.13148 -4.31105,-2.28393 z m -380.34013,-1.0092 c -0.32569,-0.84872 -0.3415,-1.79378 -0.0351,-2.10013 0.87571,-0.87571 2.69007,0.60965 2.69007,2.20228 0,1.91885 -1.90756,1.84546 -2.65492,-0.10215 z M 239,274 c 0,-2.42424 0.42222,-3 2.2,-3 1.71111,0 1.93333,0.26667 1,1.2 -0.66,0.66 -1.2,2.01 -1.2,3 0,0.99 -0.45,1.8 -1,1.8 -0.55,0 -1,-1.35 -1,-3 z m -3,-7.53138 c 0,-1.82517 2.41701,-2.94696 4.1036,-1.90459 0.86662,0.5356 0.68816,1.11507 -0.64324,2.08861 C 237.05375,268.4124 236,268.35636 236,266.46862 Z m 124.95416,-3.55427 c -0.61391,-1.1471 -0.86562,-2.33623 -0.55935,-2.6425 0.82594,-0.82593 3.60519,1.75705 3.60519,3.35059 0,2.07032 -1.78039,1.65642 -3.04584,-0.70809 z m 7.7918,-4.17931 c -2.43956,-3.72324 -2.21953,-5.65306 0.35141,-3.08212 1.15355,1.15356 1.93923,2.91849 1.74596,3.92208 -0.30161,1.56615 -0.59881,1.44712 -2.09737,-0.83996 z M 597.5,259.01878 c -6.6,-0.36538 -13.00784,-1.20743 -14.23965,-1.8712 -7.05097,-3.79952 -7.06325,-19.07832 -0.0222,-27.62034 5.78109,-7.01346 14.8364,-9.63067 22.82242,-6.59622 l 4.84372,1.84047 -0.53556,-2.6778 c -0.29456,-1.47279 0.1997,-6.23742 1.09835,-10.58806 2.84393,-13.76835 10.09604,-22.76128 23.18371,-28.74881 3.93664,-1.80099 6.63698,-2.21531 14.3492,-2.20164 10.88269,0.0193 15.0016,1.56346 24.11852,9.04204 14.78405,12.12732 19.36098,26.07288 13.86856,42.25644 -4.41772,13.01693 -16.80856,23.27194 -30.00765,24.83518 -3.86747,0.45805 -5.399,0.25896 -6.06186,-0.78797 -1.46918,-2.32046 -1.09794,-2.6972 3.33243,-3.38181 9.20336,-1.42216 13.45624,-3.50499 20.05363,-9.82116 5.04715,-4.832 6.96103,-7.52018 8.68445,-12.1979 5.5818,-15.15018 -2.35658,-32.04687 -19.77261,-42.08565 -4.17592,-2.40705 -5.80247,-2.72928 -14.21547,-2.8162 -8.53555,-0.0882 -10.02924,0.18084 -14.71308,2.64999 -7.724,4.0718 -11.73189,8.05543 -15.10759,15.01615 -3.94903,8.14291 -5.4632,15.252 -4.71813,22.15175 0.68772,6.36862 -0.46657,7.14045 -5.4121,3.61892 -3.62882,-2.58395 -10.00057,-3.53611 -14.25881,-2.13076 -4.24447,1.4008 -10.15387,7.48115 -11.65776,11.99502 -1.89535,5.6888 -1.44127,11.73524 1.05603,14.06182 2.33816,2.17833 2.50257,2.18952 35.90727,2.44328 9.6129,0.073 13.0264,0.45091 14.41398,1.59568 1.67098,1.37859 1.33945,1.55192 -4.09583,2.14147 -7.25169,0.78656 -17.15716,0.74964 -32.91398,-0.12269 z M 665.2,225.8 c -1.58926,-1.58926 -1.53108,-3.8 0.1,-3.8 1.67231,0 3.7,2.02769 3.7,3.7 0,1.63108 -2.21074,1.68926 -3.8,0.1 z M 549.10425,218.16245 C 545.7535,212.94077 545.26156,211 547.28871,211 548.45013,211 555,220.59689 555,222.2986 c 0,0.38577 -0.62809,0.7014 -1.39575,0.7014 -0.76767,0 -2.79267,-2.1769 -4.5,-4.83755 z M 670.75,218.5534 C 668.02987,215.1443 667.14758,212 668.91111,212 c 1.53796,0 6.08889,6.03666 6.08889,8.07673 0,2.78672 -1.13585,2.3796 -4.25,-1.52333 z m -82.8511,-16.25469 c -3.4499,-3.75892 -17.7657,-22.71414 -21.27869,-28.17461 -1.54837,-2.40675 -5.49308,-7.98752 -8.766,-12.40172 -4.14992,-5.59699 -5.63354,-8.34305 -4.90249,-9.0741 0.65796,-0.65796 1.36223,-0.69456 1.89146,-0.0983 2.68324,3.02316 12.33695,15.68816 15.2066,19.95 1.85167,2.75 6.144,8.51974 9.53851,12.82164 6.55109,8.30228 11.78713,17.0521 11.22086,18.75091 -0.18789,0.56368 -1.49751,-0.23454 -2.91025,-1.77384 z m -48.11527,-3.04258 c -1.7984,-2.05421 -8.85466,-13.77189 -14.30568,-23.75613 -2.10195,-3.85 -4.64438,-8.19447 -5.64984,-9.65437 -1.97668,-2.87009 -2.25131,-3.84844 -1.07811,-3.84065 1.31224,0.009 18.2879,27.02977 21.5918,34.36883 1.96019,4.3542 1.73744,5.50446 -0.55817,2.88232 z M 507,181.49386 c -25.68191,-2.6119 -29.85923,-4.11731 -35.75,-12.88349 -2.57247,-3.82815 -3.25,-5.8635 -3.25,-9.76322 0,-9.00502 6.93741,-18.44977 15.26428,-20.78115 l 4.53268,-1.26907 -0.53089,-7.74557 c -0.88076,-12.84993 4.14305,-25.48345 13.68167,-34.405709 12.47659,-11.670389 30.88454,-15.498134 48.25064,-10.033228 9.43363,2.968651 15.42646,6.942066 21.71068,14.394777 8.57915,10.17437 11.82631,20.83536 8.1454,26.7428 -2.35137,3.77369 -4.62438,4.4478 -3.37185,1 2.42073,-6.66347 -0.55035,-15.25543 -8.43231,-24.38506 -6.24623,-7.234982 -11.6168,-10.811214 -20.10951,-13.390793 -14.50422,-4.405524 -31.4611,-0.886195 -42.18473,8.755263 -5.86392,5.27218 -8.90857,10.24653 -11.89575,19.43536 -1.87011,5.75262 -2.03494,7.53182 -1.20435,13 0.52926,3.48438 1.28067,7.34773 1.6698,8.58523 0.64978,2.06644 0.39206,2.2508 -3.15913,2.25977 -4.72297,0.0119 -12.98199,3.76556 -16.36663,7.43845 -2.07221,2.24868 -2.5,3.71328 -2.5,8.55901 0,6.97104 1.81931,9.94194 9.00078,14.69811 6.26841,4.15146 11.34095,5.31747 25.99922,5.97635 8.79846,0.39549 12.46689,0.95145 13.75,2.08384 2.04463,1.80447 2.28203,3.28445 0.5,3.11704 -0.6875,-0.0646 -6.875,-0.6895 -13.75,-1.38871 z M 535,180 c -0.67062,-1.25307 -0.70289,-2 -0.0864,-2 0.54118,0 6.28591,-0.69502 12.76606,-1.5445 11.16316,-1.46336 11.85058,-1.45083 13.08583,0.23847 1.55293,2.12376 2.26108,1.8737 -10.69163,3.77533 C 536.80494,182.41736 536.28507,182.40117 535,180 Z m 41.18195,-5.5 c -1.03754,-2.27716 -0.93145,-2.5 1.19027,-2.5 1.28113,0 3.63398,-0.41529 5.22856,-0.92286 1.59457,-0.50758 4.5767,-1.20109 6.62694,-1.54114 5.68186,-0.94238 18.67348,-10.0553 20.47215,-14.3601 2.27202,-5.43773 0.98597,-11.11517 -3.73193,-16.47498 -4.86247,-5.52406 -9.20395,-7.32237 -19.93825,-8.25873 -7.37303,-0.64316 -8.13925,-0.88891 -6.50264,-2.08563 4.44774,-3.25226 19.14478,-0.39822 25.7279,4.99615 6.10619,5.00357 7.80498,7.81992 8.43642,13.98642 0.99759,9.74211 -4.02866,17.20543 -15.56564,23.11296 -2.99092,1.5315 -18.42144,6.54791 -20.14144,6.54791 -0.36479,0 -1.17584,-1.125 -1.80234,-2.5 z M 486.66667,163.33333 C 486.3,162.96667 486,161.80417 486,160.75 c 0,-2.59345 2.41518,-1.66977 2.81955,1.07833 0.30937,2.10247 -0.78817,2.86972 -2.15288,1.505 z M 481,159.24668 C 481,157.10017 482.82981,155 484.7,155 c 2.10712,0 1.43107,2.35886 -1.23142,4.29668 -2.38221,1.73383 -2.46858,1.73208 -2.46858,-0.05 z m 60.36785,-20.26701 c -1.46329,-2.21118 -2.42956,-4.25129 -2.14727,-4.53358 0.63173,-0.63174 6.77942,6.24982 6.77942,7.58871 0,2.13963 -2.11953,0.7417 -4.63215,-3.05513 z M 558.75,113.42803 C 556.34593,112.1238 554.98274,110 556.54966,110 c 1.6863,0 6.42425,3.23321 5.92402,4.04259 -0.71017,1.14908 -0.36898,1.20539 -3.72368,-0.61456 z m -4.21953,-9.37873 c -0.36148,-0.58489 0.0136,-1.32083 0.83342,-1.63544 2.11797,-0.81274 6.13611,-0.1015 6.13611,1.08614 0,1.37848 -6.15716,1.86375 -6.96953,0.5493 z"
     id="path12"
     inkscape:connector-curvature="0" />
</svg>
