<?xml version="1.0" encoding="UTF-8" standalone="no"?>
<!-- Created with Inkscape (http://www.inkscape.org/) -->

<svg
   xmlns:dc="http://purl.org/dc/elements/1.1/"
   xmlns:cc="http://creativecommons.org/ns#"
   xmlns:rdf="http://www.w3.org/1999/02/22-rdf-syntax-ns#"
   xmlns:svg="http://www.w3.org/2000/svg"
   xmlns="http://www.w3.org/2000/svg"
   xmlns:sodipodi="http://sodipodi.sourceforge.net/DTD/sodipodi-0.dtd"
   xmlns:inkscape="http://www.inkscape.org/namespaces/inkscape"
   version="1.1"
   class="themed_svg"
   width="100%"
   height="inherit"
   viewBox="0 0 1000 619"
   sodipodi:docname="transform.svg"
   inkscape:version="0.92.3 (2405546, 2018-03-11)">
  <metadata
     id="metadata8">
    <rdf:RDF>
      <cc:Work
         rdf:about="">
        <dc:format>image/svg+xml</dc:format>
        <dc:type
           rdf:resource="http://purl.org/dc/dcmitype/StillImage" />
        <dc:title></dc:title>
      </cc:Work>
    </rdf:RDF>
  </metadata>
  <defs
     id="defs6" />
  <sodipodi:namedview
     pagecolor="#ffffff"
     bordercolor="#666666"
     borderopacity="1"
     objecttolerance="10"
     gridtolerance="10"
     guidetolerance="10"
     inkscape:pageopacity="0"
     inkscape:pageshadow="2"
     inkscape:window-width="640"
     inkscape:window-height="1211"
     id="namedview4"
     showgrid="false"
     inkscape:zoom="1.9685853"
     inkscape:cx="425.25763"
     inkscape:cy="283.00919"
     inkscape:window-x="1750"
     inkscape:window-y="32"
     inkscape:window-maximized="0"
     inkscape:current-layer="svg2" />
  <path
     style="fill:#000000"
     d="M 467.67779,526.58821 C 461.34404,522.69507 460.5,520.74445 460.5,510 c 0,-7.4814 0.50159,-10.88115 2.36061,-16 4.14304,-11.40796 7.03396,-16.93031 11.26695,-21.52256 2.26994,-2.46259 3.90673,-4.47744 3.63732,-4.47744 -2.44035,0 -25.16546,-5.23707 -28.26488,-6.51372 -27.82119,-11.4596 -41.21079,-20.39568 -56.8058,-37.91162 -15.83253,-17.7827 -21.9685,-31.12947 -26.66067,-57.99144 -1.28792,-7.37311 -1.35096,-42.17562 -0.10016,-55.294 0.51336,-5.38407 1.45666,-16.31422 2.09623,-24.28922 1.4762,-18.40726 7.51477,-66.69883 8.75307,-70 0.51578,-1.375 1.25801,-5.425 1.64941,-9 0.3914,-3.575 1.83981,-11.9 3.21869,-18.5 1.37888,-6.6 2.89076,-14.42172 3.35974,-17.3816 1.49885,-9.4597 -1.63091,-11.57475 32.37943,21.8816 10.34349,10.175 24.67797,24.8 31.85442,32.5 13.1625,14.12276 37.72411,38.42795 38.88064,38.47472 0.72401,0.0293 1.25072,-2.36342 3.89603,-17.69879 1.67087,-9.68634 6.88537,-43.63133 8.56808,-55.77593 1.0994,-7.93465 6.47342,-37.13394 7.92575,-43.06389 0.81683,-3.33514 1.48514,-7.76014 1.48514,-9.83333 0,-2.0732 0.40785,-3.61945 0.90633,-3.43611 1.42585,0.5244 11.92178,12.60078 14.49635,16.67917 1.27892,2.02594 3.13372,4.35191 4.12177,5.16884 2.25448,1.864 23.80154,30.43172 29.02737,38.48532 2.1413,3.3 5.93063,8.49622 8.42073,11.54716 5.0109,6.13951 7.11698,9.32311 23.45344,35.45284 21.74796,34.78528 27.49495,45.91826 34.84438,67.5 7.77504,22.83155 9.01376,30.20924 8.81478,52.5 -0.19679,22.04495 -1.18949,26.41231 -9.20561,40.5 -7.74606,13.61309 -13.48594,20.72233 -24.45196,30.28547 -15.79186,13.77162 -40.37174,27.10518 -58.49504,31.73113 -4.6379,1.18382 -8.59413,2.31347 -8.79163,2.51032 -0.1975,0.19686 0.60512,1.71205 1.78361,3.36708 6.12144,8.59677 10.96083,26.82289 11.68672,44.01455 0.40828,9.66955 0.28331,10.5748 -1.76019,12.75 L 542.65137,529 507.07569,528.9688 c -35.56211,-0.0312 -35.57715,-0.0321 -39.3979,-2.38058 z M 492.98494,524.25 c -0.008,-0.4125 -0.66353,-2.55 -1.4561,-4.75 -1.56698,-4.34954 -1.98347,-9.5 -0.76822,-9.5 0.41834,0 2.33084,3.2625 4.25,7.25 L 498.5,524.5 h 6.5 6.5 l -0.25166,-14 c -0.22082,-12.28436 -0.0769,-13.77478 1.17446,-12.16217 2.05862,2.65292 3.91855,15.10075 3.18671,21.32754 L 514.98253,525 h 12.28649 c 15.96004,0 16.27395,-0.27352 15.40296,-13.4211 -0.85536,-12.91155 -3.98522,-26.55534 -7.88266,-34.36234 -2.90802,-5.8251 -3.68064,-6.67891 -5.82119,-6.43286 -1.35747,0.15603 -3.41347,-0.22157 -4.56889,-0.83911 -1.15542,-0.61754 -3.18042,-0.95733 -4.5,-0.75509 -2.28169,0.3497 -2.22776,0.46291 1.10076,2.3105 3.10938,1.72595 3.25745,1.98051 1.32677,2.28088 -1.19527,0.18596 -3.98985,-0.58867 -6.21016,-1.72139 -2.22031,-1.13272 -5.29236,-2.04354 -6.82677,-2.02405 l -2.78984,0.0354 2.5,1.39225 c 4.43419,2.4694 -0.3267,3.04123 -5.29523,0.63601 -2.38492,-1.15452 -5.43164,-2.08482 -6.77049,-2.06733 -2.23704,0.0292 -2.29248,0.13945 -0.68428,1.36025 2.13416,1.62006 2.24219,2.60795 0.28518,2.60795 -0.80565,0 -1.9124,-0.83633 -2.45946,-1.85852 -0.65681,-1.22726 -2.6059,-2.07937 -5.73844,-2.50873 -4.55154,-0.62386 -4.91068,-0.48642 -8.86184,3.39135 -4.73414,4.64621 -10.86645,15.96257 -12.99248,23.9759 -2.91668,10.99337 -1.44462,25.64462 2.746,27.33071 2.03653,0.81939 23.77257,0.74554 23.75598,-0.0807 z M 530,468 c 0,-0.55 -0.45,-1 -1,-1 -0.55,0 -1,0.45 -1,1 0,0.55 0.45,1 1,1 0.55,0 1,-0.45 1,-1 z m -4.75119,-4.4061 c -0.31822,-0.51509 0.78516,-0.63711 2.55693,-0.28275 1.71419,0.34284 3.38572,0.18808 3.7145,-0.3439 0.32879,-0.53199 1.54424,-0.96725 2.701,-0.96725 3.22136,0 22.42268,-6.80358 30.27876,-10.72864 16.73526,-8.36129 34.5537,-21.09599 43.77451,-31.28532 5.57102,-6.15617 14.93789,-21.14043 18.0228,-28.83123 C 630.86155,379.776 631.9532,350.71407 628.40665,335 622.97791,310.94634 610.13713,281.66058 595.21457,259.29935 590.88377,252.80971 583.59793,241.2 579.02383,233.5 c -4.57411,-7.7 -11.94552,-19.175 -16.38092,-25.5 -4.4354,-6.325 -10.2934,-14.875 -13.01779,-19 -2.72438,-4.125 -9.97093,-13.8 -16.10343,-21.5 -6.1325,-7.7 -13.03145,-16.78459 -15.33099,-20.18798 -5.20213,-7.6993 -6.18921,-8.35582 -6.19603,-4.12104 -0.005,3.38998 -2.84955,21.42109 -5.49051,34.80902 -0.81372,4.125 -2.17155,13.52409 -3.0174,20.88688 -0.84585,7.36278 -1.75734,13.74191 -2.02553,14.17585 -0.26819,0.43394 -1.8251,9.93484 -3.4598,21.11312 -3.22727,22.0684 -5.51562,32.17607 -7.69383,33.98383 -1.48551,1.23287 -3.71011,-0.14491 -13.9821,-8.65968 -6.48163,-5.37282 -71.53879,-71.96958 -79.91106,-81.80218 -3.65387,-4.29121 -6.91888,-7.52671 -7.25557,-7.19002 -0.50429,0.50429 -3.90275,19.52311 -10.09456,56.4922 -2.23781,13.36119 -3.27249,21.82989 -5.09209,41.67774 -1.06783,11.64776 -2.61684,27.26886 -3.44225,34.71356 -0.82541,7.4447 -1.78695,20.41472 -2.13676,28.82226 -0.70854,17.02955 0.9485,30.08403 6.46825,50.95809 3.34928,12.66601 11.09883,26.46443 20.55416,36.5976 8.15045,8.73476 30.22212,25.14766 41.08438,30.55112 18.10532,9.00653 26.97939,11.7323 44,13.5151 11.28665,1.1822 45.51428,0.99743 44.74881,-0.24157 z m -19.93527,-48.69622 c -3.16439,-0.91555 -5.0533,-3.89171 -3.77881,-5.95387 0.4412,-0.71388 1.27523,-0.52078 2.48693,0.57579 4.34707,3.93405 14.94208,2.32074 16.47486,-2.50863 0.77281,-2.43491 2.06401,-2.59859 2.91918,-0.37007 0.91113,2.37438 -2.03765,6.30319 -5.96136,7.94263 -3.79651,1.58628 -7.41995,1.68004 -12.1408,0.31415 z m -48.68038,-11.75869 c -2.21484,-2.3118 -2.60822,-3.41561 -2.04921,-5.75 1.05619,-4.41053 2.29374,-5.38899 6.81599,-5.38899 5.92535,0 8.60006,2.17707 8.60006,7 0,2.88268 -0.57408,4.28869 -2.22251,5.4433 -3.54976,2.48635 -8.01312,1.96396 -11.14433,-1.30431 z M 464.5,398.43036 c 0,-1.04663 -0.73088,-2.04372 -1.62417,-2.21576 -2.04313,-0.39347 -3.40307,2.83428 -1.6597,3.93919 1.877,1.18961 3.28387,0.45126 3.28387,-1.72343 z m 82.75,-6.95266 c -2.50928,-1.77446 -2.77234,-3.68086 -1.15007,-8.3345 1.35477,-3.88631 4.57018,-4.88227 8.76272,-2.71423 4.10348,2.12199 5.40519,4.75343 4.35945,8.81273 -0.77226,2.99775 -1.19454,3.28104 -5.28074,3.5427 -2.84892,0.18243 -5.24809,-0.28608 -6.69136,-1.3067 z m 7.47186,-3.59956 C 556.25812,386.34188 555.18938,384 552.95203,384 c -2.20467,0 -3.3351,1.55934 -2.57203,3.54789 0.66409,1.73059 2.78054,1.89157 4.34186,0.33025 z M 611,388.55902 c 0,-1.61407 1.4163,-2.80939 2.29162,-1.93407 C 614.072,387.40533 612.99677,390 611.89301,390 611.40186,390 611,389.35156 611,388.55902 Z m -156.75,-7.22158 c -0.6875,-0.27726 -1.25,-0.93111 -1.25,-1.453 0,-1.22518 4.12443,-2.76453 5.75,-2.14605 1.43593,0.54633 1.71214,3.26161 0.33179,3.26161 -0.50502,0 -1.51752,0.18935 -2.25,0.42077 -0.73249,0.23143 -1.89429,0.19393 -2.58179,-0.0833 z m 160.78518,-3.2717 C 613.78692,375.73335 613.68133,373 614.83948,373 c 0.87195,0 3.16052,4.37875 3.16052,6.04705 0,1.65642 -1.88749,1.03168 -2.96482,-0.98131 z m -66.34052,-7.76572 c -2.7994,-0.72566 -1.40319,-2.76421 2.13235,-3.11338 2.25496,-0.22269 3.17299,0.10801 3.17299,1.14301 0,1.14511 -2.54546,3.09661 -3.33179,2.55435 -0.0925,-0.0638 -0.98061,-0.32659 -1.97355,-0.58398 z m 67.83102,-2.25036 C 614.7666,364.64798 614.58666,363 615.97432,363 c 1.03077,0 4.02568,5.17072 4.02568,6.95034 0,2.07429 -1.9785,0.99192 -3.47432,-1.90068 z M 381,331.93426 C 381,330.22444 382.98343,327 384.03518,327 c 1.36459,0 1.19972,3.3651 -0.23518,4.8 -1.48619,1.48619 -2.8,1.54919 -2.8,0.13426 z m 1.97019,-11.87857 c 1.18327,-2.21095 2.91607,-3.50276 3.67736,-2.74147 0.91635,0.91635 -1.67228,4.68578 -3.21792,4.68578 -1.1758,0 -1.2751,-0.42023 -0.45944,-1.94431 z M 382,311.65499 C 382,310.05445 385.16847,307 386.82874,307 c 1.5871,0 1.47228,1.12522 -0.38544,3.77749 -1.71687,2.45118 -4.4433,2.98961 -4.4433,0.8775 z m 20.93543,210.53109 C 392.35015,517.89125 387,510.35992 387,499.754 c 0,-6.81879 1.5233,-10.25026 6.48371,-14.60556 5.29543,-4.64944 12.81599,-4.194 15.56502,0.9426 0.83548,1.56112 0.68165,3.35796 -0.64991,7.59133 -2.25578,7.17172 -1.37111,8.71938 5.20417,9.1043 4.28106,0.25062 5.83221,-0.27412 12.33213,-4.17187 10.47478,-6.2813 14.41985,-7.23494 21.46149,-5.18788 3.08187,0.89592 5.60339,2.06489 5.60339,2.59771 0,0.53986 -3.00049,0.92308 -6.7773,0.86559 -7.41656,-0.11289 -10.48001,0.89518 -19.59177,6.44694 -7.37356,4.49268 -12.73707,5.40442 -18.41891,3.131 -4.68815,-1.87583 -5.89032,-4.33755 -4.75207,-9.73096 0.37576,-1.78046 0.76349,-4.8122 0.86162,-6.7372 0.15853,-3.10971 -0.1218,-3.53466 -2.51388,-3.81086 -3.33809,-0.38541 -7.44432,2.2075 -9.3588,5.9097 -2.00492,3.87709 -1.77504,11.58605 0.49457,16.58502 3.27517,7.21381 13.7783,12.18479 22.86575,10.82204 5.25805,-0.78849 7.2327,-1.62369 17.15506,-7.2559 7.90771,-4.48864 12.16166,-5.22146 18.97202,-3.26827 3.46903,0.9949 5.02061,2.4712 5.0484,4.80345 0.0113,0.95207 -0.47583,1.02234 -1.87953,0.2711 -1.04217,-0.55775 -4.30467,-1.2913 -7.25,-1.63011 -4.78128,-0.55001 -5.99815,-0.26575 -11.35516,2.65253 -12.90874,7.03216 -15.56062,8.04333 -22.29893,8.50263 -5.03275,0.34304 -7.83748,-0.004 -11.26564,-1.39525 z m 51.52345,-22.25261 c -0.36253,-0.58659 -0.41903,-1.30665 -0.12555,-1.60014 0.71632,-0.71631 2.66667,0.54583 2.66667,1.72569 0,1.27797 -1.72641,1.19267 -2.54112,-0.12555 z M 634.68261,472.18701 C 631.35491,468.77913 630.81843,467 633.11853,467 c 1.04442,0 7.88147,7.07295 7.88147,8.1534 0,1.9337 -2.83031,0.60471 -6.31739,-2.96639 z m -9.5083,-9.50146 c -3.8805,-4.13061 -2.01987,-6.36696 2.60318,-3.12885 2.41783,1.69352 3.03563,5.4433 0.89682,5.4433 -0.72912,0 -2.30412,-1.0415 -3.5,-2.31445 z m -274.6319,0.38308 C 349.95459,462.11751 359.79155,451 361.22094,451 c 1.75525,0 0.56868,2.88578 -2.80916,6.83203 -4.02721,4.70489 -6.98255,6.67149 -7.86937,5.2366 z M 652.25,431.93056 C 644.633,428.24477 642.02512,426 645.36015,426 647.61195,426 664,433.90538 664,434.99162 c 0,1.85681 -3.43738,0.96132 -11.75,-3.06106 z M 298.58637,407.13975 c -1.13556,-1.83738 3.68764,-3.95133 10.66363,-4.67374 5.77686,-0.59823 6.75,-0.47151 6.75,0.87895 0,1.66741 -3.89684,3.01208 -12.13177,4.18625 -2.87121,0.40939 -4.87887,0.26059 -5.28186,-0.39146 z m 372.0932,-61.52633 c -3.3412,-1.24274 -3.27468,-2.11741 1.38884,-18.26264 C 673.68079,321.7687 675,316.44225 675,315.5142 c 0,-0.92804 -2.1828,-4.91089 -4.85066,-8.85077 -7.49819,-11.0733 -10.48056,-16.73221 -9.39195,-17.82082 0.5271,-0.5271 6.30981,-1.04481 12.85048,-1.15048 11.7402,-0.18968 11.97731,-0.24008 18.55959,-3.94491 8.28796,-4.66488 13.22736,-10.19821 18.1728,-20.35793 5.93886,-12.20057 12.63351,-21.80348 17.2646,-24.76462 2.25767,-1.44357 4.55345,-2.62467 5.10173,-2.62467 0.54828,0 4.34219,2.22787 8.43091,4.95082 8.81605,5.87118 20.20691,9.81056 31.30508,10.82645 4.34252,0.3975 8.04873,1.18566 8.23603,1.75146 0.4088,1.23491 -4.29116,4.18684 -11.31162,7.10456 -6.25246,2.59854 -15.95183,9.08047 -20.50378,13.70235 -5.6419,5.72857 -7.83667,9.23997 -13.03889,20.86081 -6.61721,14.78167 -16.88188,31.76742 -22.72146,37.59899 -5.34995,5.3426 -12.842,9.33486 -21.60286,11.51142 -8.0674,2.00428 -17.37429,2.58832 -20.82043,1.30656 z m 23.69989,-5.45923 c 7.0161,-2.49861 8.51132,-3.43529 15.43288,-9.66799 8.27265,-7.44932 13.24767,-15.66629 22.69629,-37.4862 7.94468,-18.34683 16.16025,-26.74206 34.24137,-34.99019 4.83568,-2.20591 5.55552,-3.49253 1.52269,-2.72161 -5.27882,1.00912 -25.7247,-6.99136 -33.05728,-12.93531 l -3.2846,-2.66257 -4.80518,4.98529 c -3.3784,3.50504 -6.65238,8.78463 -11.02628,17.78094 -7.16248,14.73186 -12.49854,20.86624 -23.09935,26.5552 -6.25965,3.35927 -6.89391,3.48825 -17.15303,3.48825 -6.82492,0 -10.44305,0.35935 -10.06869,1 0.32139,0.55 2.74578,4.19424 5.38753,8.09832 7.75627,11.4625 7.90836,12.1079 5.23976,22.23493 -1.25609,4.76671 -2.98133,10.91675 -3.83386,13.66675 -0.85254,2.75 -1.55493,5.23275 -1.56089,5.51723 -0.0261,1.24792 18.0404,-0.96552 23.36864,-2.86304 z m -2.34766,-9.3224 C 691.98695,328.4789 693.0516,326 694.10699,326 c 1.36567,0 1.0639,2.39181 -0.57519,4.55887 -1.2665,1.67447 -1.47256,1.71196 -1.5,0.27292 z M 701,326 c 0,-1.1 0.45,-2 1,-2 0.55,0 1,0.9 1,2 0,1.1 -0.45,2 -1,2 -0.55,0 -1,-0.9 -1,-2 z m 7,-7 c 0,-1.1 0.45,-2 1,-2 0.55,0 1,0.9 1,2 0,1.1 -0.45,2 -1,2 -0.55,0 -1,-0.9 -1,-2 z m -452.10657,24.62956 c -13.8417,-4.89449 -22.79792,-14.12913 -29.49409,-30.41096 -5.69528,-13.84816 -0.92263,-41.08928 9.73574,-55.5692 1.85071,-2.51427 3.74059,-4.58895 4.19973,-4.6104 3.48738,-0.16292 41.45827,8.32495 44.74645,10.00246 6.23088,3.17875 3.81667,4.67766 -4.26858,2.65023 -3.47197,-0.87063 -13.26747,-2.74013 -21.76777,-4.15446 -17.93409,-2.98397 -16.46424,-3.48397 -22.36841,7.60907 -5.12644,9.63181 -6.6765,15.80567 -6.6765,26.59238 0,15.83797 3.05617,23.48437 13.52671,33.84326 6.62089,6.55028 12.15188,9.72695 20.30995,11.66485 5.37807,1.27752 6.38444,2.16884 3.41334,3.02313 -0.9625,0.27674 -2.425,0.7715 -3.25,1.09946 -0.825,0.32797 -4.47296,-0.45495 -8.10657,-1.73982 z M 628,225.97939 c 0,-0.56133 2.1047,-2.47383 4.6771,-4.25 2.57241,-1.77616 6.11931,-4.46689 7.88202,-5.97939 3.1432,-2.69705 6.44088,-3.63918 6.44088,-1.84014 0,1.13617 -7.91117,8.73267 -11.6873,11.22243 -3.0403,2.0046 -7.3127,2.49951 -7.3127,0.8471 z m -296.77081,-9.1502 c -1.99149,-1.99149 -1.4209,-2.98409 1.52081,-2.64561 1.62459,0.18693 2.75,0.92468 2.75,1.80272 0,1.90949 -2.67607,2.43763 -4.27081,0.84289 z m -17.0724,-3.5529 c -6.47506,-1.52084 -7.2763,-3.32652 -1.5438,-3.47912 5.60775,-0.14928 15.38701,2.59894 15.38701,4.32415 0,1.27282 -6.52113,0.87475 -13.84321,-0.84503 z m 22.08763,-49.90987 c -8.24813,-5.63611 -9.77727,-7.36969 -6.49442,-7.36268 3.45991,0.007 16.25,9.12203 16.25,11.58029 0,2.20975 -0.95153,1.79838 -9.75558,-4.21761 z M 609.5,135.3748 c -1.1,-0.21626 -5.825,-1.09513 -10.5,-1.95305 -4.675,-0.85792 -18.175,-4.84582 -30,-8.86199 -11.825,-4.01618 -26.225,-8.88717 -32,-10.82444 -9.84149,-3.30139 -28.32349,-10.30345 -51.5,-19.511176 -5.5,-2.18508 -12.475,-4.951471 -15.5,-6.147536 -3.025,-1.196065 -6.625,-3.042595 -8,-4.1034 -2.36354,-1.823461 -2.38636,-1.92995 -0.41798,-1.950972 1.99062,-0.02126 15.99256,4.750407 30.91798,10.536413 3.85,1.492496 10.53364,3.946901 14.85253,5.454231 l 7.85253,2.74059 1.51448,-3.62466 c 3.75906,-8.996693 -2.13513,-27.330634 -10.75183,-33.443664 -6.46335,-4.585361 -4.606,-6.061505 4.10415,-3.261819 5.3571,1.72192 15.16526,4.542389 27.92814,8.031113 5.225,1.42825 12.65,3.457448 16.5,4.509329 3.85,1.051881 10.6,2.901082 15,4.109335 9.52174,2.614698 19.79341,7.5399 19.2395,9.225225 -0.21722,0.660919 -2.38497,1.311767 -4.81722,1.44633 -6.2311,0.344729 -15.94236,2.317349 -19.05316,3.870212 -5.63993,2.815361 -10.63604,11.167279 -11.11309,18.577589 l -0.25603,3.97707 15.5,5.51765 c 8.525,3.0347 20,6.77466 25.5,8.31102 12.3968,3.4629 14.73398,4.37387 16.41354,6.39762 0.73224,0.8823 1.16375,1.55198 0.9589,1.48818 C 611.6676,135.8202 610.6,135.59106 609.5,135.3748 Z m -61.24017,-24.21422 c -1.56591,-0.96778 -4.5559,-8.19958 -3.72877,-9.01867 0.35651,-0.35305 1.6419,0.60138 2.8564,2.12096 l 2.20819,2.76287 1.73214,-4.8169 c 2.69566,-7.496372 8.79291,-13.829463 15.28457,-15.875782 2.98556,-0.941114 5.27418,-2.173432 5.08583,-2.738487 C 571.33846,82.515387 570.05377,82.097568 542,73.935885 532.375,71.135684 522.57177,68.204573 520.21505,67.422305 517.85833,66.640037 515.51404,66 515.00551,66 c -0.50853,0 0.71982,3.236869 2.72965,7.193041 3.28638,6.468921 3.6589,8.004131 3.70048,15.25 0.0254,4.431328 -0.32669,9.435679 -0.78247,11.120789 -0.79382,2.93486 -0.64631,3.13548 3.50383,4.76571 2.90273,1.14022 4.45231,1.34253 4.69548,0.61303 0.21333,-0.64001 1.24598,-0.26174 2.50523,0.91769 1.17826,1.10358 3.41877,2.49017 4.97891,3.08131 l 2.83661,1.07479 -2.16817,-3.50818 C 535.36409,103.85305 535.17907,103 536.24413,103 c 1.57787,0 4.92624,3.37435 6.62871,6.68016 0.61753,1.19909 2.13626,2.34201 3.37497,2.53981 2.70734,0.43234 3.6352,-0.0562 2.01202,-1.05939 z"
     id="path12"
     inkscape:connector-curvature="0" />
</svg>
