<?xml version="1.0" encoding="UTF-8" standalone="no"?>
<!-- Created with Inkscape (http://www.inkscape.org/) -->

<svg
   xmlns:dc="http://purl.org/dc/elements/1.1/"
   xmlns:cc="http://creativecommons.org/ns#"
   xmlns:rdf="http://www.w3.org/1999/02/22-rdf-syntax-ns#"
   xmlns:svg="http://www.w3.org/2000/svg"
   xmlns="http://www.w3.org/2000/svg"
   xmlns:sodipodi="http://sodipodi.sourceforge.net/DTD/sodipodi-0.dtd"
   xmlns:inkscape="http://www.inkscape.org/namespaces/inkscape"
   version="1.1"
   class="themed_svg"
   width="100%"
   height="inherit"
   viewBox="0 0 1000 619"
   sodipodi:docname="transmute.svg"
   inkscape:version="0.92.3 (2405546, 2018-03-11)">
  <metadata
     id="metadata8">
    <rdf:RDF>
      <cc:Work
         rdf:about="">
        <dc:format>image/svg+xml</dc:format>
        <dc:type
           rdf:resource="http://purl.org/dc/dcmitype/StillImage" />
        <dc:title></dc:title>
      </cc:Work>
    </rdf:RDF>
  </metadata>
  <defs
     id="defs6" />
  <sodipodi:namedview
     pagecolor="#ffffff"
     bordercolor="#666666"
     borderopacity="1"
     objecttolerance="10"
     gridtolerance="10"
     guidetolerance="10"
     inkscape:pageopacity="0"
     inkscape:pageshadow="2"
     inkscape:window-width="640"
     inkscape:window-height="1211"
     id="namedview4"
     showgrid="false"
     inkscape:zoom="3.9371706"
     inkscape:cx="473.74985"
     inkscape:cy="403.25687"
     inkscape:window-x="1750"
     inkscape:window-y="32"
     inkscape:window-maximized="0"
     inkscape:current-layer="svg2" />
  <path
     style="fill:#000000"
     d="M 466.72221,475.94521 C 449.8601,472.74219 444.23705,470.9284 429.5,463.93869 c -14.23019,-6.7493 -30.1984,-19.36988 -37.09014,-29.31443 -14.78348,-21.33205 -18.61885,-29.45315 -21.9081,-46.38864 -2.67572,-13.77661 1.58001,-35.20244 10.27604,-51.73562 9.77414,-18.58292 20.52751,-34.79486 26.59061,-40.08843 2.27237,-1.98397 5.48159,-4.83662 7.13159,-6.33924 2.65519,-2.41802 5.75848,-3.27892 27,-7.49028 13.2,-2.61703 24.92776,-4.97112 26.06169,-5.23129 2.00794,-0.46072 2.02097,-0.60749 0.5,-5.62874 -2.08982,-6.89923 -9.32728,-14.09456 -18.83164,-18.72202 -3.95377,-1.925 -7.19798,-3.75149 -7.20936,-4.05887 -0.0963,-2.60158 3.69336,-4.09983 16.97931,-6.71278 10.90571,-2.14482 14.4568,-3.20824 14.32572,-4.29003 -0.0958,-0.79107 -2.51034,-6.61332 -5.36553,-12.93832 l -5.19125,-11.5 -8.1673,-0.16489 c -9.92092,-0.20029 -16.82132,-2.44681 -26.83454,-8.73636 -17.81517,-11.19013 -26.16559,-24.40271 -25.55754,-40.43883 L 402.5,156.5 l 4.81857,-0.30759 c 7.89991,-0.50429 30.71027,7.79921 37.18143,13.5349 4.28879,3.80135 11.54655,13.13984 13.09808,16.85319 l 1.6309,3.90328 1.94631,-5.21753 c 3.31992,-8.89979 15.29971,-17.27586 24.68954,-17.2625 2.16187,0.003 2.94397,0.76641 4.35446,4.25 3.73833,9.23283 3.1226,25.23544 -1.30491,33.91407 -3.01876,5.91727 -7.5992,10.52681 -12.79266,12.87397 l -4.77195,2.15665 3.26099,8.65078 c 2.58734,6.8637 3.63576,8.59313 5.07512,8.37169 0.99777,-0.15349 10.55571,-1.79531 21.23988,-3.64848 14.93056,-2.5897 19.9636,-3.12433 21.75,-2.31039 1.27833,0.58244 2.32424,1.51104 2.32424,2.06354 0,0.55251 -2.65522,3.76969 -5.90048,7.1493 -6.35124,6.61415 -8.08439,10.63445 -8.09394,18.77512 -0.005,4.04473 -0.29581,4.75 -1.96027,4.75 -1.45218,0 -2.12813,-0.92457 -2.62938,-3.59646 -1.09185,-5.82005 1.77167,-12.60899 9.47741,-22.46937 l 2.00516,-2.56583 -25.69925,4.67808 c -14.13459,2.57294 -29.05118,5.24692 -33.14797,5.94216 l -7.44873,1.26408 3.80182,1.95045 c 5.0989,2.6159 11.93861,9.59809 14.77946,15.08736 1.27389,2.46149 3.80091,5.71183 5.6156,7.22297 2.8517,2.3747 3.73374,2.62248 6.5,1.82597 l 3.20057,-0.92156 -4.25,-2.39306 C 477.14939,268.71584 475.80861,267 478.10498,267 c 0.60773,0 3.10529,1.35 5.55013,3 2.44483,1.65 5.02259,3 5.72836,3 2.58734,0 2.43531,-1.28161 -0.43892,-3.70011 C 487.32505,267.93717 486,266.39638 486,265.87592 c 0,-1.24103 3.82599,0.75354 7,3.64924 l 2.5,2.2808 32,-6.37024 c 17.6,-3.50363 33.35,-6.37429 35,-6.37924 1.65,-0.005 5.7,1.15197 9,2.57095 3.3,1.41898 8.63401,3.69497 11.85334,5.05776 7.77344,3.29059 20.15451,12.21821 30.84056,22.23821 14.51572,13.61097 22.32008,24.89178 27.38012,39.5766 2.78461,8.08125 2.94243,9.5 1.05682,9.5 -0.78603,0 -1.60752,1.46888 -1.92884,3.44891 -0.94693,5.83528 -3.68221,10.31878 -9.63745,15.79712 -6.33789,5.83035 -17.74634,12.94892 -20.05307,12.51257 -1.96207,-0.37115 -2.60476,-3.7586 -0.71311,-3.7586 2.31802,0 15.8219,-9.3528 20.39354,-14.12457 4.77615,-4.98525 6.30809,-8.35051 6.30809,-13.8572 0,-2.11836 0.42577,-4.00156 0.94615,-4.1849 1.39814,-0.49257 -4.01595,-13.23023 -9.37626,-22.05938 -3.33375,-5.49114 -7.93535,-10.7929 -16.04522,-18.48657 -6.254,-5.93306 -12.78473,-11.61758 -14.51273,-12.63227 l -3.1418,-1.84489 2.456,4.84669 c 6.8451,13.50816 10.07058,25.02429 11.01935,39.34309 0.63086,9.52109 -0.44825,20.20845 -2.09549,20.75325 -0.934,0.3089 -1.26507,-1.81966 -1.30961,-8.41992 -0.0787,-11.66195 -1.20075,-18.072 -3.45149,-19.71779 -1.70037,-1.24334 -1.70786,-1.39362 -0.11389,-2.28565 2.38208,-1.33308 1.01029,-4.32989 -1.982,-4.32989 -3.00291,0 -3.25602,-2.96156 -0.31875,-3.72967 2.65144,-0.69337 2.2146,-2.54969 -3.44604,-14.6437 -8.14954,-17.41154 -11.07018,-20.26821 -25.8261,-25.2605 l -7.16315,-2.42346 -51.31949,10.27739 C 483.09377,278.87263 460,283.8151 460,284.20333 c 0,0.38823 2.7757,2.95179 6.16821,5.6968 13.475,10.90313 30.69286,16.67182 61.33179,20.54867 6.6,0.83512 14.65154,2.21174 17.89231,3.05916 3.24077,0.84741 6.0919,1.34116 6.33586,1.0972 0.24395,-0.24395 -0.0212,-4.19241 -0.58918,-8.77435 -0.98919,-7.97959 -3.45087,-17.13597 -6.2245,-23.15242 -1.09515,-2.37557 -1.07264,-2.96596 0.14237,-3.73469 2.1503,-1.36049 2.50609,-1.1953 3.89026,1.8063 4.17185,9.04668 7.5464,25.62124 6.87481,33.76655 -0.42961,5.21045 -2.85403,5.71673 -13.82193,2.8864 -4.675,-1.20641 -13.2279,-2.69779 -19.00644,-3.31416 -14.47612,-1.54412 -30.74938,-5.60713 -42.44255,-10.59681 -6.04223,-2.57833 -13.43987,-7.60292 -19.89291,-13.51157 l -5.8419,-5.34908 -17.4081,3.38655 C 423.66035,290.69234 420,291.7358 420,292.98042 c 0,2.77137 6.57088,15.31982 11.26853,21.51958 4.46276,5.88976 16.67003,18.16636 23.89275,24.02844 2.72807,2.21415 3.48206,3.43851 2.95816,4.80355 -0.62655,1.63246 -1.3649,1.33453 -6.77905,-2.73536 -13.87158,-10.42746 -29.31153,-29.30386 -33.4105,-40.84663 -0.73242,-2.0625 -1.57877,-3.73999 -1.88078,-3.72776 -1.15661,0.0468 -5.03945,3.70728 -10.05358,9.47776 l -5.21357,6 0.54268,6.5 c 0.72659,8.70277 4.59942,19.70915 9.67777,27.50369 7.80051,11.97268 29.07825,29.99526 48.83477,41.36383 6.94852,3.9984 9.03862,5.65638 8.19413,6.5 C 466.33709,395.05998 450.74652,386.43499 437.5,376.47705 423.06089,365.62258 413.30099,356.11691 407.74796,347.5 403.3756,340.71519 398,326.38134 398,321.5074 c 0,-1.31415 -0.40088,-2.63713 -0.89085,-2.93994 -1.40381,-0.8676 -12.1124,21.03405 -12.08719,24.72121 0.0442,6.45611 7.76161,19.27465 17.6906,29.38375 8.81115,8.97098 24.90789,23.07995 28.38017,24.87553 1.70122,0.87974 2.89455,1.7981 2.65184,2.04081 -0.778,0.778 -16.01819,-8.74608 -22.98356,-14.36315 -3.70645,-2.98898 -9.30055,-8.20001 -12.43135,-11.58006 C 392.32216,367.15977 383,353.65064 383,351.43071 c 0,-0.72197 -0.3958,-1.55729 -0.87956,-1.85627 -0.87021,-0.53783 -3.96477,8.48272 -6.06638,17.68334 -0.93746,4.10409 -0.82231,5.27193 0.83812,8.5 2.60861,5.07147 6.73991,10.61058 13.0643,17.51618 4.84598,5.29132 5.39754,5.62567 6.59844,4 1.65208,-2.23645 3.17035,-0.88271 3.61813,3.22604 0.24092,2.21061 0.78743,2.92268 2.07695,2.70616 1.00114,-0.1681 1.75,0.33036 1.75,1.16483 0,3.91811 24.39025,17.41365 42.5,23.51599 27.82847,9.37719 58.285,13.94009 101,15.13149 29.71155,0.82871 43.76965,1.90102 45.29187,3.45471 0.38947,0.39752 -17.29187,0.51214 -39.29187,0.25472 -34.56413,-0.40443 -41.88182,-0.7627 -53.84739,-2.63632 -36.49,-5.71376 -61.83597,-13.17519 -79.90261,-23.52198 -6.66726,-3.81836 -7.75,-4.17643 -7.75,-2.56304 0,1.03147 -0.42742,2.13957 -0.94983,2.46243 -1.24725,0.77085 -3.1973,-2.92199 -2.50107,-4.73633 0.83872,-2.1857 -2.18737,-4.27776 -4.0053,-2.76901 -1.93176,1.60322 -3.24932,0.65359 -4.03099,-2.90534 -0.36139,-1.64539 -2.13119,-4.05533 -4.05666,-5.52395 -3.66246,-2.7935 -15.43101,-16.47541 -19.79774,-23.01649 L 374,377.53573 l 0.003,3.48214 c 0.003,4.26743 4.07219,19.69985 6.97103,26.4383 5.65718,13.15025 22.33647,34.91626 32.11117,41.90417 14.51115,10.374 30.14244,17.18137 46.07155,20.064 4.76094,0.86157 9.48594,1.82704 10.5,2.1455 1.01405,0.31845 -0.40627,-1.50109 -3.15627,-4.04343 -6.61254,-6.11318 -31.99612,-21.3095 -42.58343,-25.4933 C 415.65573,438.76866 413,436.89478 413,434.33037 c 0,-1.51277 10.92239,2.14226 20.5,6.86004 11.96318,5.89288 29.94257,17.46503 37.90175,24.39488 l 8.13772,7.08528 12.48026,0.60627 c 6.86415,0.33345 14.73027,0.18706 17.48027,-0.32532 2.75,-0.51237 9.05,-1.38 14,-1.92806 9.52642,-1.05477 11.22415,-1.47363 32.49101,-8.01598 17.07168,-5.25179 24.82757,-8.49075 38.38487,-16.02999 16.47778,-9.16333 28.4214,-18.84897 37.54586,-30.44768 7.19835,-9.15032 7.17922,-8.80109 0.44041,-8.03742 -7.36714,0.83488 -19.77037,3.11215 -24.35555,4.47175 -4.60796,1.36635 -6.0066,1.30657 -6.0066,-0.25674 0,-0.71092 2.1375,-1.89772 4.75,-2.63732 12.62233,-3.57341 15.23764,-4.18643 21.75,-5.09815 12.03244,-1.68453 12.42377,-1.84346 14.28806,-5.80276 1.45625,-3.09272 2.67658,-3.99763 7.90356,-5.86068 3.39978,-1.21179 8.12248,-3.41565 10.49489,-4.89746 6.25718,-3.90825 20.12546,-16.7058 24.37098,-22.48934 3.19552,-4.35317 3.56777,-5.44047 2.96417,-8.65795 -1.50476,-8.02104 -6.18192,-15.97594 -14.37647,-24.45146 l -8.03672,-8.31228 -2.86141,3.10061 c -1.57378,1.70533 -4.02055,3.8601 -5.43727,4.78837 l -2.57586,1.68776 2.85489,5.27098 c 2.77727,5.1277 5.1154,12.88929 6.40747,21.27013 0.51439,3.33648 0.31062,4.24227 -1.07385,4.77354 -0.93978,0.36063 -1.93368,0.4307 -2.20867,0.15572 -0.27498,-0.27499 -1.13422,-4.1726 -1.90941,-8.66137 -0.77519,-4.48876 -2.72314,-11.0587 -4.32878,-14.59987 -2.48741,-5.48586 -3.21811,-6.34367 -4.93852,-5.79763 -2.58147,0.81932 -4.1141,-0.12389 -3.36659,-2.07187 0.4207,-1.09635 1.38337,-1.34382 3.45632,-0.88852 2.0742,0.45557 2.87321,0.24973 2.87321,-0.74019 0,-0.75418 1.99885,-3.33297 4.44189,-5.73063 2.44304,-2.39766 5.39215,-6.65386 6.55358,-9.45821 1.16143,-2.80435 2.53252,-5.99882 3.04688,-7.09882 0.51436,-1.1 1.84593,-5.97929 2.95905,-10.84286 2.16508,-9.45997 7.56477,-22.26168 10.35692,-24.55448 1.41049,-1.15823 3.10831,-1.20079 9.92168,-0.24873 10.39485,1.45252 24.10427,1.47147 30.76723,0.0425 7.83138,-1.67953 8.34556,-0.16228 2.31354,6.82679 -6.83256,7.91664 -10.85183,13.9952 -14.89904,22.53262 -2.85116,6.01442 -3.76525,9.72857 -5.38475,21.87962 -3.04173,22.82202 -8.83556,37.55858 -18.93716,48.16655 -11.18413,11.74477 -25.88175,22.02058 -34.45572,24.08963 -1.99589,0.48164 -3.26163,1.74633 -4.34656,4.34292 -6.18177,14.79506 -24.47322,32.92865 -46.52955,46.12798 -8.81393,5.27459 -34.16368,17.11107 -36.68269,17.12813 -0.75608,0.005 -6.38108,1.55103 -12.5,3.43535 -20.8247,6.41296 -35.54052,8.60511 -56.89386,8.47523 -11.27207,-0.0686 -19.21896,-0.66622 -26.00923,-1.95606 z M 698.03493,330.20746 c 0.61632,-5.16191 0.97309,-9.51496 0.79283,-9.67345 -0.18027,-0.15849 -2.24026,-1.25263 -4.57776,-2.43141 -2.84704,-1.43575 -4.25,-2.79675 -4.25,-4.12292 0,-2.44691 0.16514,-2.44624 5,0.0203 2.15618,1.1 4.10437,2 4.32932,2 0.22495,0 0.66142,-1.55551 0.96994,-3.45669 0.8521,-5.25087 8.36094,-19.65225 13.66421,-26.20691 l 4.72214,-5.8364 -12.64103,-0.10586 c -7.10513,-0.0595 -14.29553,-0.65189 -16.41902,-1.3527 -3.45598,-1.14058 -3.9793,-1.05775 -6.13958,0.97173 -3.62818,3.4085 -7.27853,12.06423 -9.59308,22.74719 -1.15456,5.32895 -2.97822,11.91907 -4.05257,14.64472 l -1.95336,4.95571 3.30652,2.49059 c 8.90273,6.70587 16.86528,17.5576 20.2874,27.64862 1.04708,3.08758 5.21728,-11.09672 6.55404,-22.29254 z M 683.25,311.26345 c -2.24855,-1.50642 -3.0191,-4.67009 -1.38365,-5.68085 1.37097,-0.8473 4.32871,3.04788 3.96401,5.22036 -0.30452,1.81395 -0.50637,1.84997 -2.58036,0.46049 z M 480.58686,209.58225 c 5.43519,-5.87206 7.86925,-13.48221 7.76853,-24.28848 -0.0939,-10.07151 -1.67351,-14.63674 -4.73728,-13.69099 -9.1922,2.83754 -17.54496,11.25536 -19.57815,19.73065 -1.35354,5.6422 -1.09526,9.88828 0.91875,15.10392 l 1.13425,2.93736 1.34407,-2.59069 c 0.73923,-1.42487 1.90609,-4.29365 2.59302,-6.37506 1.60856,-4.874 6.17172,-12.64288 7.73132,-13.16275 0.70042,-0.23347 -0.30028,3.73152 -2.37881,9.42539 C 469.2532,213.46217 469,214.21462 469,215.63915 c 0,2.48913 7.12317,-1.23443 11.58686,-6.0569 z M 458,209.38878 c 0,-1.77169 -9.58517,-11.57963 -20.57058,-21.04866 C 426.58222,178.99022 423.67907,176 425.44861,176 c 0.97673,0 21.4291,16.72695 27.43034,22.43388 7.0291,6.68438 7.06932,6.57083 2.04667,-5.7777 -5.63755,-13.86034 -13.12847,-21.44388 -26.02812,-26.34999 -10.36273,-3.94124 -15.40534,-5.29339 -19.76769,-5.30061 l -3.37019,-0.006 0.42557,5.88353 c 0.50211,6.94148 4.80981,16.41492 10.47156,23.0289 4.25188,4.96698 17.41207,13.78175 24.59405,16.47322 2.61293,0.9792 6.88793,2.14009 9.5,2.57974 6.44613,1.08499 7.2492,1.1319 7.2492,0.42339 z m -51.6109,226.63151 c -2.10098,-0.84892 -3.90655,-3.83618 -2.91686,-4.82586 1.14432,-1.14432 5.52776,1.85644 5.52776,3.78413 0,1.11179 -0.1125,1.99292 -0.25,1.95805 -0.1375,-0.0349 -1.1999,-0.4472 -2.3609,-0.91632 z M 419.5,428 c -0.33992,-0.55 0.0835,-1 0.94098,-1 0.85746,0 1.55902,0.45 1.55902,1 0,0.55 -0.42344,1 -0.94098,1 -0.51754,0 -1.2191,-0.45 -1.55902,-1 z m -53.75,-12.0801 c -3.06604,-1.7858 -1.89421,-2.92036 3,-2.90459 6.00176,0.0193 8.4128,1.29201 5.45084,2.8772 -2.55405,1.36689 -6.13115,1.37848 -8.45084,0.0274 z m -14.25489,-4.53745 c -16.00891,-8.39949 -25.69661,-20.85183 -28.36864,-36.46436 -1.558,-9.10334 -1.40971,-24.41365 0.29986,-30.95799 2.24496,-8.59384 10.8778,-24.94426 13.18391,-24.97005 0.48937,-0.005 9.32726,2.7407 19.63976,6.10261 17.45607,5.69073 20.87628,7.47519 17.87847,9.32794 -1.02244,0.6319 -22.7171,-6.3794 -30.79943,-9.95379 C 340.26119,323.11007 337.55294,322 337.3107,322 c -0.87857,0 -8.18238,16.64987 -9.86559,22.48973 -1.4043,4.87219 -1.60941,8.23053 -1.09932,18 0.34489,6.60565 1.04026,13.71758 1.54526,15.80429 2.28922,9.45926 14.23089,23.5565 24.78768,29.26204 5.37943,2.90738 7.26236,5.29691 4.81638,6.11224 -0.55269,0.18423 -3.25269,-0.8444 -6,-2.28585 z M 594.75,413.33772 c 0.6875,-0.27741 1.8125,-0.27741 2.5,0 0.6875,0.27741 0.125,0.50439 -1.25,0.50439 -1.375,0 -1.9375,-0.22698 -1.25,-0.50439 z M 473.8125,395.31689 c 0.72187,-0.28887 1.58438,-0.25335 1.91667,0.0789 0.33229,0.33229 -0.25834,0.56864 -1.3125,0.52522 -1.16495,-0.048 -1.4019,-0.28494 -0.60417,-0.60416 z m 48.58934,-7.22198 C 518.29789,386.23112 517,384.50678 517,380.91821 c 0,-2.72148 0.91164,-2.40552 4.56387,1.58179 5.12568,5.59595 12.09624,4.64258 14.88675,-2.03607 1.98599,-4.75312 3.98769,-4.57501 3.21495,0.28607 -0.77873,4.89884 -5.47048,9.25833 -9.93135,9.22804 -1.77882,-0.0121 -5.07839,-0.85949 -7.33238,-1.88313 z m 138.11009,-11.13966 c 0.14697,-2.60474 0.89751,-4.53723 2.10814,-5.42804 1.7487,-1.28671 1.90165,-1.10391 2.19104,2.61866 0.3148,4.0494 -1.03218,6.85413 -3.2917,6.85413 -0.81488,0 -1.15798,-1.37745 -1.00748,-4.04475 z M 594.5,372 c 0.33992,-0.55 0.81648,-1 1.05902,-1 0.24254,0 0.44098,0.45 0.44098,1 0,0.55 -0.47656,1 -1.05902,1 -0.58246,0 -0.7809,-0.45 -0.44098,-1 z m 73.5,-3 c 0,-2.2 0.45,-4 1,-4 0.55,0 1,1.8 1,4 0,2.2 -0.45,4 -1,4 -0.55,0 -1,-1.8 -1,-4 z m -67.46899,2.05017 c -0.32287,-0.5224 0.38281,-1.46886 1.56816,-2.10324 1.69174,-0.9054 2.33957,-0.86243 3.01269,0.19982 0.47163,0.74429 0.86441,1.69075 0.87283,2.10325 0.0223,1.09434 -4.76219,0.91903 -5.45368,-0.19983 z m -115.87471,-2.1827 c -2.24273,-1.30367 -4.84909,-7.20149 -4.07451,-9.22002 0.7897,-2.05792 5.92606,-3.98779 8.73632,-3.28246 1.29631,0.32536 3.50447,1.49421 4.90701,2.59745 2.39494,1.88386 2.47442,2.22602 1.3063,5.62383 -0.68408,1.98986 -1.871,4.01509 -2.6376,4.50051 -1.8896,1.19653 -5.9896,1.08737 -8.23752,-0.21931 z m 5.28582,-5.29773 c 0.94697,-1.14103 0.79074,-1.64234 -0.77255,-2.47899 -1.47503,-0.78941 -2.25408,-0.69385 -3.15065,0.38646 -1.34174,1.61669 -0.57468,3.52279 1.41765,3.52279 0.7252,0 1.8527,-0.64362 2.50555,-1.43026 z m 185.66487,1.84847 C 674.60187,362.79891 674.91798,361 676.38337,361 c 0.76085,0 1.58761,0.7875 1.83724,1.75 0.92343,3.56046 -1.372,5.90384 -2.61362,2.66821 z M 474.66667,350.33333 c -1.20027,-1.20026 -0.70611,-2.26138 1.82561,-3.92023 1.37075,-0.89815 3.23816,-1.34678 4.1498,-0.99695 1.46198,0.56101 1.38335,0.92788 -0.6666,3.10995 -2.32338,2.47312 -4.05384,3.06221 -5.30881,1.80723 z m -12.92776,-2.73348 c -1.4806,-1.12368 -1.5406,-1.51954 -0.37675,-2.48545 0.76139,-0.6319 2.11638,-0.868 3.01109,-0.52466 1.84741,0.70891 1.84048,0.6897 1.01976,2.82847 -0.73032,1.90318 -1.34544,1.93375 -3.6541,0.18164 z m 108.71564,-3.0544 c -1.35,-1.35 -2.45455,-3.27487 -2.45455,-4.27749 0,-2.88551 2.69399,-5.97564 5.72119,-6.56247 3.98649,-0.77279 9.27881,3.38444 9.27881,7.2887 0,5.79248 -8.03091,8.06581 -12.54545,3.55126 z m 6.94171,-3.13569 C 578.21538,339.27517 577.29716,338 574.94098,338 573.72548,338 573,338.68525 573,339.83333 c 0,3.3301 3.27295,4.50372 4.39626,1.57643 z M 569,323.55902 c 0,-1.96125 1.234,-2.5721 3.82646,-1.89415 C 576.14292,322.53214 575.53137,325 572,325 c -1.94539,0 -3,-0.50656 -3,-1.44098 z m 18,-27.45203 c 0,-1.01369 3.04579,-2.39454 3.74326,-1.69706 0.25136,0.25135 0.16039,0.93695 -0.20214,1.52354 C 589.74331,297.22435 587,297.35878 587,296.10699 Z M 538.96666,271.93771 C 538.11585,270.34795 538.25917,270 539.76482,270 c 1.75496,0 4.23518,1.74937 4.23518,2.9872 0,1.5214 -4.11683,0.66302 -5.03334,-1.04949 z"
     id="path12"
     inkscape:connector-curvature="0" />
</svg>
