<?xml version="1.0" encoding="UTF-8" standalone="no"?>
<!-- Created with Inkscape (http://www.inkscape.org/) -->

<svg
   xmlns:dc="http://purl.org/dc/elements/1.1/"
   xmlns:cc="http://creativecommons.org/ns#"
   xmlns:rdf="http://www.w3.org/1999/02/22-rdf-syntax-ns#"
   xmlns:svg="http://www.w3.org/2000/svg"
   xmlns="http://www.w3.org/2000/svg"
   xmlns:sodipodi="http://sodipodi.sourceforge.net/DTD/sodipodi-0.dtd"
   xmlns:inkscape="http://www.inkscape.org/namespaces/inkscape"
   version="1.1"
   id="svg2"
   width="1000"
   height="619"
   viewBox="0 0 1000 619"
   sodipodi:docname="trigger.svg"
   inkscape:version="0.92.3 (2405546, 2018-03-11)">
  <metadata
     id="metadata8">
    <rdf:RDF>
      <cc:Work
         rdf:about="">
        <dc:format>image/svg+xml</dc:format>
        <dc:type
           rdf:resource="http://purl.org/dc/dcmitype/StillImage" />
        <dc:title></dc:title>
      </cc:Work>
    </rdf:RDF>
  </metadata>
  <defs
     id="defs6" />
  <sodipodi:namedview
     pagecolor="#ffffff"
     bordercolor="#666666"
     borderopacity="1"
     objecttolerance="10"
     gridtolerance="10"
     guidetolerance="10"
     inkscape:pageopacity="0"
     inkscape:pageshadow="2"
     inkscape:window-width="640"
     inkscape:window-height="1211"
     id="namedview4"
     showgrid="false"
     inkscape:zoom="3.9371706"
     inkscape:cx="587.68784"
     inkscape:cy="164.43948"
     inkscape:window-x="1750"
     inkscape:window-y="32"
     inkscape:window-maximized="0"
     inkscape:current-layer="svg2" />
  <path
     style="fill:#000000"
     d="m 580.5,516.10218 c -14.65834,-6.10909 -22.20979,-9.77905 -25.87657,-12.57583 -3.04205,-2.32029 -3.35604,-2.9719 -2.63815,-5.47501 0.94212,-3.285 7.04081,-9.28137 11.77064,-11.57317 3.8626,-1.87158 14.35408,-1.68144 14.99841,0.27183 0.2854,0.86519 -0.86289,1.25 -3.73001,1.25 -4.58474,0 -4.69009,1.41685 -0.17253,2.32036 1.59137,0.31827 4.36805,2.05332 6.17039,3.85567 4.03761,4.0376 8.97597,14.21927 8.97703,18.5084 l 7.9e-4,3.18442 6,-2.02623 c 5.87275,-1.98326 5.99988,-2.10381 5.99442,-5.68442 -0.009,-6.14638 -1.95889,-11.16434 -6.07033,-15.62473 C 593.76584,490.19205 592,487.98916 592,487.63817 c 0,-2.99001 8.39024,4.24627 11.11413,9.58554 2.54985,4.99812 3.50654,12.74804 1.93596,15.6827 -1.22839,2.29527 -7.38939,5.42447 -12.58997,6.39452 -2.08557,0.38901 -5.61911,-0.55604 -11.96012,-3.19875 z m 5.1027,-5.33867 c -0.80522,-4.02611 -4.11491,-10.53611 -6.87105,-13.51503 -2.34255,-2.53191 -7.47699,-4.23458 -12.79456,-4.2429 -2.60283,-0.004 -4.28698,0.75019 -6.25,2.79914 -1.4779,1.54259 -2.68709,3.35043 -2.68709,4.01741 0,1.60545 24.52177,13.79712 28.375,14.10741 0.48125,0.0388 0.58372,-1.38596 0.2277,-3.16603 z m -117.92491,-6.1753 C 461.33982,500.69248 460.49871,498.746 460.5098,488 c 0.005,-5.225 0.31962,-11.16664 0.6983,-13.20365 1.23181,-6.62623 7.29453,-18.12539 12.61808,-23.93274 l 5.16684,-5.63639 -10.99002,-2.72648 C 454.81768,439.22964 431.96673,428.49502 423.22508,421.46555 412.6475,412.95974 401.76935,401.56339 396.05389,393 c -7.21838,-10.8152 -16.1546,-30.61858 -19.62926,-43.5 -2.63265,-9.75988 -2.68315,-10.48025 -2.10308,-30 0.59394,-19.98678 0.5976,-20.01223 5.53931,-38.5 2.71974,-10.175 6.39387,-22.1 8.16473,-26.5 1.77086,-4.4 4.2486,-11.15 5.50609,-15 3.08555,-9.44697 12.96119,-34.77738 20.46832,-52.5 5.52171,-13.03549 8.34245,-19.05702 13.35062,-28.5 0.8751,-1.65 2.83184,-5.925 4.34831,-9.5 5.68793,-13.40897 18.29135,-34.53596 19.08976,-32 0.25974,0.825 5.54864,11.85 11.75311,24.5 14.86611,30.3098 20.83216,43.00116 25.61977,54.5 4.78092,11.48277 20.04381,42 21.00589,42 1.13967,0 8.55254,-12.92652 20.3579,-35.5 21.0015,-40.15775 27.7402,-52.60286 35.46657,-65.5 3.13018,-5.225 6.53075,-11.42754 7.55684,-13.78342 1.20026,-2.75578 2.41585,-4.17971 3.40842,-3.99262 1.51005,0.28463 7.48521,11.33865 10.41951,19.27604 0.8133,2.2 5.12348,13 9.57819,24 4.45471,11 9.22784,23.56013 10.60697,27.9114 1.37912,4.35127 3.82783,10.91965 5.44157,14.59641 1.61374,3.67675 4.11325,10.91663 5.55447,16.0886 1.44122,5.17197 4.79349,16.82859 7.44947,25.90359 9.70274,33.15242 10.98493,38.9523 13.92758,63 1.33544,10.91337 0.51861,42.29689 -1.27534,49 -3.9761,14.85674 -9.01218,29.51677 -11.76415,34.24545 -3.87323,6.65532 -16.19414,19.29589 -25.7971,26.46637 -6.74534,5.03671 -22.56432,13.2692 -32.59836,16.96479 C 561.50258,438.88549 547.17777,443 545.48489,443 544.6682,443 544,443.38567 544,443.85705 c 0,1.56193 19.391,2.26617 29.13632,1.05816 7.83415,-0.9711 9.85372,-1.60127 12.36368,-3.85786 6.14471,-5.52443 8.30452,-6.34007 15.43703,-5.82974 11.11593,0.79534 18.94198,7.37077 19.81694,16.65015 C 621.64142,461.2895 612.56997,471 602.89018,471 h -4.80886 l -3.5866,7.14655 c -1.97263,3.9306 -4.21727,8.04695 -4.98808,9.14744 -1.25456,1.79113 -1.15315,2.19623 0.96734,3.8642 3.1115,2.44751 6.26452,10.50331 4.71676,12.05107 -0.82189,0.82189 -1.39003,0.39676 -2.15358,-1.61152 C 592.46672,500.09737 592,498.50146 592,498.05126 c 0,-0.45019 -1.82266,-2.4652 -4.05035,-4.47778 l -4.05035,-3.65925 3.63305,-8.20711 c 5.14805,-11.62955 5.12205,-10.98162 0.56733,-14.13804 -2.22067,-1.53892 -4.31473,-3.6713 -4.65349,-4.73861 -0.33875,-1.06731 -0.91522,-1.79959 -1.28105,-1.62729 -0.36583,0.1723 -3.81514,1.9404 -7.66514,3.9291 C 566.35996,469.33699 559.51328,471 550.34237,471 c -6.39221,0 -6.54412,0.06 -5.96723,2.35854 1.34284,5.3503 2.6641,17.42914 2.52564,23.08911 -0.1116,4.56177 -0.6531,6.60648 -2.19873,8.30235 l -2.05068,2.25 -35.57568,-0.0312 c -35.56211,-0.0312 -35.57715,-0.0321 -39.3979,-2.38058 z M 492.98494,502.25 c -0.008,-0.4125 -0.66353,-2.55 -1.4561,-4.75 -1.56698,-4.34954 -1.98347,-9.5 -0.76822,-9.5 0.41834,0 2.33084,3.2625 4.25,7.25 L 498.5,502.5 h 6.5 6.5 l -0.25166,-14 c -0.22082,-12.28436 -0.0769,-13.77478 1.17446,-12.16217 2.05862,2.65292 3.91855,15.10075 3.18671,21.32754 L 514.98253,503 h 12.28649 c 11.07229,0 12.4567,-0.19878 14.00874,-2.01143 2.20077,-2.57031 2.25864,-10.38545 0.16552,-22.35172 -0.85268,-4.87472 -1.32978,-9.08368 -1.06023,-9.35323 0.26954,-0.26955 3.99893,-0.88359 8.28752,-1.36453 11.44925,-1.28399 17.17844,-2.7001 23.23677,-5.74355 6.00928,-3.01881 8.59557,-6.02333 9.48476,-11.0185 l 0.59508,-3.34295 -5.22019,0.71796 c -12.90585,1.77501 -32.89521,0.67502 -40.76699,-2.24336 -3.2846,-1.21773 -6,-0.54583 -6,1.48463 0,1.2652 -0.26667,1.36001 -1.2,0.42668 -1.16671,-1.16671 -10.8,-1.7483 -10.8,-0.65203 0,0.30138 1.2375,1.61309 2.75,2.91492 4.40618,3.79246 2.10658,3.79517 -3.22606,0.004 -3.21019,-2.28237 -6.01156,-3.4667 -8.19996,-3.4667 -4.28794,0 -4.19285,1.12073 0.42602,5.02085 3.67515,3.10326 3.59361,3.08475 -4.08502,-0.92719 -8.00664,-4.18333 -11.20376,-4.97733 -11.87945,-2.95026 -0.28595,0.85786 -0.91465,0.85786 -2.51759,0 -1.17505,-0.62887 -3.45446,-1.1434 -5.06536,-1.1434 -5.82747,0 -16.17592,14.69954 -19.71727,28.00756 -2.92015,10.97363 -1.44776,25.63674 2.74365,27.32315 2.03653,0.81939 23.77257,0.74554 23.75598,-0.0807 z m 115.30961,-36.7286 c 6.37568,-2.66393 9.51777,-9.99556 7.46693,-17.42308 -1.11919,-4.05337 -4.39923,-6.91618 -10.70245,-9.34108 -4.2248,-1.62531 -4.81778,-1.63289 -8.79918,-0.11238 -5.75476,2.19777 -9.07866,5.23657 -10.26945,9.38863 -1.52068,5.30227 -1.19816,8.36637 1.2596,11.96702 4.39546,6.43939 13.27256,8.76823 21.04455,5.52089 z m -4.64356,-4.2771 c -0.70687,-1.14373 0.46154,-6.2443 1.4304,-6.2443 1.75883,0 3.11828,4.05448 1.86556,5.56392 -1.31316,1.58226 -2.5773,1.84321 -3.29596,0.68038 z m 5.81797,-3.29452 c -0.36808,-0.59556 -0.4403,-1.31178 -0.16049,-1.59158 0.27981,-0.27981 0.13128,-1.82487 -0.33006,-3.43347 C 608.51707,451.31613 608.4682,450 608.86981,450 610.4543,450 612,452.53863 612,455.14098 c 0,2.95909 -1.44624,4.56404 -2.53104,2.8088 z M 536.5,440.9234 c 25.41612,-5.06873 49.00152,-14.25286 61.54639,-23.96609 7.55744,-5.85157 18.69737,-16.75934 21.40337,-20.95731 4.26289,-6.61325 9.37595,-19.70794 12.5321,-32.09507 3.03098,-11.89588 3.15874,-13.20918 3.11315,-32.0035 -0.0421,-17.36583 -1.88675,-38.13741 -3.63852,-40.97183 -0.27665,-0.44763 -0.98287,-3.40971 -1.56937,-6.58241 -0.58651,-3.1727 -3.07769,-12.2466 -5.53596,-20.16423 -2.45827,-7.91762 -6.00797,-20.31032 -7.88822,-27.53932 -5.5888,-21.48724 -17.97274,-57.9836 -27.3416,-80.57765 -3.77809,-9.1113 -7.43615,-18.36599 -8.12901,-20.56599 -0.69287,-2.2 -1.92641,-5.31537 -2.74121,-6.92305 l -1.48145,-2.92305 -1.89634,2.42305 c -1.04298,1.33268 -2.81313,4.44244 -3.93367,6.91059 -1.12055,2.46815 -2.84288,5.39315 -3.82742,6.5 -2.4093,2.70862 -12.19724,20.34228 -19.2703,34.71678 -3.16755,6.43738 -6.83569,13.41238 -8.15142,15.5 -1.31573,2.08763 -5.88025,10.54568 -10.14337,18.79568 -13.24542,25.63254 -18.05667,32.94954 -21.2425,32.30581 -1.57128,-0.3175 -8.92579,-11.3317 -12.22333,-18.30581 -1.04022,-2.2 -6.7064,-14.125 -12.59151,-26.5 -9.62651,-20.24226 -18.66659,-39.56189 -26.4376,-56.5 -1.514,-3.3 -3.55625,-8.1375 -4.53833,-10.75 -0.98208,-2.6125 -2.09966,-4.75 -2.48352,-4.75 -1.49331,0 -8.1692,11.05348 -13.58915,22.5 -3.12512,6.6 -8.04418,16.95 -10.93125,23 -5.43046,11.37981 -8.19097,17.90703 -15.85962,37.5 -28.25162,72.18137 -29.88741,78.01027 -31.2907,111.5 -0.59377,14.17027 -0.47837,15.58081 2.08614,25.5 4.28204,16.56231 8.23568,25.36374 17.96818,40 13.51072,20.31815 32.74857,38.31015 46.07587,43.09198 3.30559,1.18604 8.71017,3.19384 12.01017,4.46178 9.49306,3.64745 20.07816,6.41035 32.5,8.48311 14.0241,2.34011 32.33506,1.91087 47.5,-1.11347 z m -34.09376,-45.0751 c -1.41322,-2.28665 2.68411,-3.85126 8.51872,-3.25297 7.24223,0.74263 8.07504,1.03897 8.07504,2.87329 0,1.24661 -1.47667,1.53138 -7.94098,1.53138 -4.91263,0 -8.21243,-0.43921 -8.65278,-1.1517 z M 610,391.05902 C 610,389.92656 610.45,389 611,389 c 0.55,0 1,0.64844 1,1.44098 0,0.79254 -0.45,1.7191 -1,2.05902 -0.55,0.33992 -1,-0.30852 -1,-1.44098 z m 5.09264,-9.88592 C 613.8289,378.81179 613.63632,375 614.78076,375 c 0.42942,0 1.32571,1.44372 1.99175,3.20826 1.40422,3.72021 0.0261,6.15249 -1.67987,2.96484 z M 447.5,373.79377 c -4.14212,-1.44744 -7.28071,-4.51884 -8.00979,-7.83833 -0.90848,-4.13632 2.64099,-10.55548 6.21641,-11.24227 4.00298,-0.76891 4.11013,-0.0521 0.48687,3.25728 -3.57583,3.26602 -4.40383,8.78017 -1.66031,11.05709 2.25874,1.87458 10.61629,2.40304 12.68063,0.8018 2.38863,-1.85278 2.6906,-9.17249 0.47922,-11.61605 C 455.62512,355.92828 455.54839,355 457.42742,355 c 2.64822,0 5.57258,5.01323 5.57258,9.55307 0,5.69113 -0.7028,7.24188 -4.07152,8.98392 -3.24384,1.67745 -7.11412,1.76441 -11.42848,0.25678 z m 108.40139,0.0944 c -5.6687,-2.08092 -7.14904,-11.55808 -2.43831,-15.61008 3.74588,-3.22207 13.53692,-3.09036 13.53692,0.1821 0,0.88308 -1.38408,1.11534 -4.75,0.79707 -4.11173,-0.38879 -5.06877,-0.10776 -7.1223,2.09143 -4.24274,4.54368 -1.05301,9.69603 6.90099,11.1471 2.93521,0.53548 4.00547,0.20188 6.36351,-1.98348 2.31053,-2.14132 2.72334,-3.18461 2.23206,-5.64102 -0.49924,-2.49618 -0.30404,-2.95723 1.13649,-2.68436 1.14266,0.21643 1.84706,1.44576 2.05355,3.58387 0.24385,2.525 -0.35528,3.92401 -2.67308,6.24181 -2.52604,2.52604 -3.73279,2.97519 -7.8143,2.90843 -2.6548,-0.0434 -5.9963,-0.50821 -7.42553,-1.03287 z m 61.25913,-2.43523 C 615.74831,368.35349 615.66384,366 616.96482,366 c 1.30199,0 3.03518,3.38866 3.03518,5.93426 0,2.83682 -1.43876,2.59294 -2.83948,-0.48131 z M 386.66306,317.26383 c -0.31881,-0.51584 0.12866,-1.94915 0.99437,-3.18513 1.14073,-1.62862 1.87557,-1.9457 2.66941,-1.15186 0.79384,0.79384 0.52011,1.67066 -0.99437,3.18514 -1.14937,1.14936 -2.3506,1.6677 -2.66941,1.15185 z m 65.84375,-5.25281 c -0.37344,-0.60425 -0.18347,-1.6957 0.42217,-2.42544 1.44793,-1.74465 7.57102,-0.56757 7.57102,1.45542 0,1.77339 -6.97364,2.61968 -7.99319,0.97002 z M 555.774,311.22769 c -0.87541,-1.05481 -0.80699,-1.60035 0.2903,-2.31442 2.24364,-1.46009 7.37468,-0.64923 7.72862,1.22136 0.4132,2.18376 -6.34875,3.10548 -8.01892,1.09306 z m -166.54781,-5.40625 c 0.54804,-1.64414 3.53426,-3.39432 4.36835,-2.56024 0.95136,0.95136 -1.50917,3.7388 -3.30032,3.7388 -0.80349,0 -1.2841,-0.53035 -1.06803,-1.17856 z M 390,297.15499 C 390,295.95393 393.43293,293 394.82874,293 c 1.74948,0 1.41331,2.09577 -0.57874,3.60795 -1.99238,1.51243 -4.25,1.80302 -4.25,0.54704 z m 31.5,193.62764 c -1.1,-0.63611 -5.825,-4.06292 -10.5,-7.61513 -14.4322,-10.96606 -20,-17.0926 -20,-22.00706 0,-3.11368 3.21205,-6.17518 7.13808,-6.80353 4.05709,-0.64933 6.45576,0.69043 15.46784,8.63946 2.80826,2.47699 6.88731,5.92148 9.06455,7.6544 l 3.95863,3.15077 9.77074,-4.01231 9.77074,-4.01231 3.51687,1.86154 c 1.93428,1.02385 4.3709,2.93473 5.41471,4.2464 3.89559,4.89526 1.39588,5.63762 -3.75494,1.11514 -1.87925,-1.65 -4.11575,-3 -4.97001,-3 -0.85427,0 -5.1354,1.575 -9.51364,3.5 -4.37824,1.925 -9.0095,3.5 -10.29169,3.5 -2.49984,0 -9.90377,-5.36958 -19.104,-13.85487 -4.72199,-4.35505 -6.23426,-5.20254 -8.83267,-4.94993 -2.69004,0.26152 -3.17791,0.74227 -3.43596,3.38579 -0.26176,2.68155 0.61562,3.94546 6.76739,9.74873 3.88748,3.66725 10.70703,9.07315 15.15456,12.01311 l 8.08641,5.34537 8.90081,-4.96351 c 8.33366,-4.64724 9.09427,-4.88337 11.93712,-3.70583 3.67366,1.52168 7.95446,4.77957 7.95446,6.05372 0,1.66979 -3.64961,0.97207 -5.4769,-1.04705 -3.12119,-3.44888 -4.97647,-3.29467 -11.358,0.94406 -3.33735,2.21672 -6.73822,4.03041 -7.55749,4.03041 -0.81927,0 -1.76769,0.45 -2.10761,1 -0.81499,1.31867 -3.51277,1.22094 -6,-0.21737 z M 455,489 c 0,-0.55 0.45,-1 1,-1 0.55,0 1,0.45 1,1 0,0.55 -0.45,1 -1,1 -0.55,0 -1,-0.45 -1,-1 z m 172.13374,-39.75 c -0.72657,-3.1625 -2.19358,-7.17687 -3.26001,-8.92082 -1.42183,-2.32513 -1.6231,-3.36604 -0.75465,-3.90278 2.54115,-1.57051 6.88092,7.2854 6.88092,14.04148 0,6.22587 -1.28116,5.6815 -2.86626,-1.21788 z m 7.47773,2.93037 c -0.82867,-1.34082 -1.08894,-8.03623 -0.34146,-8.78372 0.79255,-0.79255 2.72999,3.89809 2.72999,6.60943 0,2.08022 -1.56577,3.50554 -2.38853,2.17429 z"
     id="path12"
     inkscape:connector-curvature="0" />
</svg>
