<?xml version="1.0" encoding="UTF-8" standalone="no"?>
<!-- Created with Inkscape (http://www.inkscape.org/) -->

<svg
   xmlns:dc="http://purl.org/dc/elements/1.1/"
   xmlns:cc="http://creativecommons.org/ns#"
   xmlns:rdf="http://www.w3.org/1999/02/22-rdf-syntax-ns#"
   xmlns:svg="http://www.w3.org/2000/svg"
   xmlns="http://www.w3.org/2000/svg"
   xmlns:sodipodi="http://sodipodi.sourceforge.net/DTD/sodipodi-0.dtd"
   xmlns:inkscape="http://www.inkscape.org/namespaces/inkscape"
   version="1.1"
   class="themed_svg"
   width="100%"
   height="inherit"
   viewBox="0 0 1000 619"
   sodipodi:docname="use.svg"
   inkscape:version="0.92.3 (2405546, 2018-03-11)">
  <metadata
     id="metadata8">
    <rdf:RDF>
      <cc:Work
         rdf:about="">
        <dc:format>image/svg+xml</dc:format>
        <dc:type
           rdf:resource="http://purl.org/dc/dcmitype/StillImage" />
        <dc:title></dc:title>
      </cc:Work>
    </rdf:RDF>
  </metadata>
  <defs
     id="defs6" />
  <sodipodi:namedview
     pagecolor="#ffffff"
     bordercolor="#666666"
     borderopacity="1"
     objecttolerance="10"
     gridtolerance="10"
     guidetolerance="10"
     inkscape:pageopacity="0"
     inkscape:pageshadow="2"
     inkscape:window-width="640"
     inkscape:window-height="1211"
     id="namedview4"
     showgrid="false"
     inkscape:zoom="5.568"
     inkscape:cx="433.56087"
     inkscape:cy="313.34016"
     inkscape:window-x="1750"
     inkscape:window-y="32"
     inkscape:window-maximized="0"
     inkscape:current-layer="svg2" />
  <path
     style="fill:#000000"
     d="m 455.60202,550.16507 c -0.28381,-0.45922 -0.58997,-5.21014 -0.68036,-10.55762 l -0.16433,-9.72267 17.8024,-17.56966 c 9.79132,-9.66331 18.82171,-19.07169 20.06754,-20.90752 l 2.26513,-3.33787 -1.85121,-5.78486 C 487.82982,465.99985 485.59892,458.07726 485.07654,454 c -0.57563,-4.49289 -0.59274,-4.50962 -10.82735,-10.58414 -5.63794,-3.34628 -10.4782,-6.31154 -10.75613,-6.58946 -0.27793,-0.27793 0.31367,-1.2465 1.31465,-2.15238 1.71415,-1.55129 2.8919,-0.98865 20.25599,9.67678 l 18.43601,11.32383 13.50015,-8.30684 C 524.42493,442.79903 555.25,424.14546 585.5,405.91541 l 55,-33.14555 -0.3413,-33.13493 c -0.41227,-40.0247 0.78841,-117.78565 1.80895,-117.15492 0.40299,0.24906 1.34085,4.63045 2.08414,9.73641 1.02168,7.01836 1.36324,25.14375 1.39982,74.28358 0.0266,35.75 -0.27021,66.12802 -0.6596,67.50671 -0.57048,2.01985 -13.87457,10.40718 -68.5,43.18463 -37.28561,22.37285 -69.01891,41.22473 -70.51845,41.89307 -2.48377,1.10699 -3.41835,0.81118 -10.5,-3.3235 -4.27546,-2.49625 -7.93757,-4.38714 -8.13803,-4.20197 -0.20046,0.18517 0.59435,2.31735 1.76625,4.73817 2.02012,4.173 5.35033,14.93382 8.17423,26.41316 1.15599,4.69917 1.09251,5.58202 -0.64714,9 -2.0029,3.93517 -18.58875,21.06367 -31.18051,32.20066 -3.9866,3.52601 -7.24836,6.78851 -7.24836,7.25 0,0.46149 0.95772,0.83907 2.12827,0.83907 5.78589,0 16.87173,9.44075 16.87173,14.36803 0,2.68399 -1.9355,1.85561 -4.05408,-1.73511 -1.09264,-1.8519 -4.56497,-5.00574 -7.71627,-7.00854 l -5.72965,-3.64145 -0.25578,6.25854 c -0.14068,3.44219 -0.48675,7.27103 -0.76905,8.50853 -0.5174,2.2681 -1.91924,2.95853 -2.87315,1.41507 z m 133.49934,-28.30296 c -5.36975,-5.05491 -7.09773,-7.26574 -6.30134,-8.06213 1.30676,-1.30676 4.23048,0.38436 9.12306,5.27694 4.48076,4.48076 6.55682,7.8506 5.47557,8.8879 -0.51554,0.49459 -4.05276,-2.10706 -8.29729,-6.10271 z M 605,518.98328 c -1.63651,-1.03931 -11.85151,-4.44268 -16.25,-5.41406 C 585.38713,512.82655 585.03538,510 588.30583,510 c 3.27656,0 13.75197,3.71711 16.5762,5.88193 2.59615,1.98998 2.70081,4.74167 0.11797,3.10135 z m -22.59201,-9.47271 c 0.34365,-1.36919 1.93989,-5.30669 3.54721,-8.75 C 591.02985,489.88928 601,466.13773 601,464.91984 c 0,-0.64292 -4.5,-10.3259 -10,-21.51774 -5.5,-11.19184 -10,-21.07329 -10,-21.95878 0,-3.40977 2.4268,-0.50075 7.17127,8.59622 2.71373,5.20325 6.48882,12.29476 8.3891,15.75891 6.14985,11.21098 8.73503,18.26465 7.55544,20.61503 -0.57594,1.14758 -3.76931,8.83652 -7.09639,17.08652 -8.26627,20.4975 -12.14706,28.5 -13.82102,28.5 -1.00862,0 -1.23571,-0.71523 -0.79041,-2.48943 z M 501.66667,448.33333 C 500.65998,447.32665 500.86704,440 501.90217,440 c 1.26328,0 3.13238,5.7464 2.44864,7.52818 -0.60577,1.57862 -1.60957,1.87973 -2.68414,0.80515 z m -0.29012,-14.79443 c -0.30837,-0.80361 -0.40675,-26.58627 -0.21861,-57.29481 0.3301,-53.88181 0.41198,-55.93702 2.34206,-58.7889 l 2,-2.95519 0.57857,9 c 0.74739,11.62612 0.25345,93.62215 -0.62498,103.75 -0.49598,5.71838 -1.04498,7.75 -2.09427,7.75 -0.78215,0 -1.67439,-0.6575 -1.98277,-1.4611 z m -60.18305,-6.25204 c -1.26858,-0.24242 -2.79203,-1.50639 -3.38545,-2.8088 -1.39326,-3.05787 -3.94013,-4.01791 -5.39191,-2.03249 -1.53812,2.1035 -3.01196,1.95584 -9.19102,-0.92086 -7.76645,-3.61572 -13.09144,-9.87879 -14.68303,-17.26967 -0.61752,-2.8676 -0.39894,-3.35897 1.87956,-4.22525 C 412.40845,399.27441 413,398.35553 413,396.02475 413,393.66667 412.55919,393 411,393 c -1.1,0 -2.94609,-0.94609 -4.10243,-2.10243 -1.84292,-1.84292 -2.01557,-2.7995 -1.39874,-7.75 0.38702,-3.10616 1.55789,-7.89757 2.60192,-10.64757 1.04403,-2.75 1.89847,-5.1125 1.89875,-5.25 2.7e-4,-0.1375 -2.04685,-0.25 -4.54916,-0.25 -7.37055,0 -14.29594,-4.76038 -12.97593,-8.91939 0.892,-2.81041 -0.23937,-4.52057 -2.01545,-3.04655 -2.31961,1.92511 -4.84384,0.19735 -7.71143,-5.27826 -3.66535,-6.99891 -5.09923,-13.8898 -3.58279,-17.21803 0.63596,-1.39577 1.64656,-2.58968 2.24578,-2.65312 0.59921,-0.0634 1.7139,-0.17594 2.47708,-0.25 0.76317,-0.0741 1.87311,-0.90193 2.46653,-1.83971 0.84931,-1.34217 0.59134,-2.22408 -1.21211,-4.14377 l -2.29106,-2.43871 1.98979,-3.85623 c 2.70599,-5.24425 9.03824,-11.17434 13.2096,-12.37067 6.02552,-1.7281 7.68975,-1.3031 8.86714,2.26444 0.93877,2.84448 1.50993,3.25 4.57755,3.25 3.28765,0 3.50496,-0.20151 3.50496,-3.25 0,-3.17143 0.10577,-3.25 4.375,-3.25 7.25114,0 10.68485,1.12652 14.22532,4.66698 3.88809,3.8881 5.20464,7.81443 3.52311,10.50698 -1.63597,2.61961 0.16955,5.61186 3.62619,6.00958 4.08815,0.47038 6.42417,5.66816 5.98477,13.31646 -0.18958,3.3 -0.68202,6.72626 -1.09431,7.6139 -0.61691,1.32821 0.10529,1.72732 4.07969,2.25454 2.65612,0.35235 6.53701,1.80105 8.62421,3.21934 3.2904,2.23588 3.7564,3.02567 3.50526,5.94072 -0.2522,2.92724 0.21266,3.70291 3.59459,5.99795 3.34748,2.27165 4.19823,2.46789 6.15621,1.42001 1.99979,-1.07025 2.7633,-0.82675 6.37378,2.03281 5.13073,4.06361 7.77891,9.15564 8.12186,15.61704 C 486.39839,388.2998 485.6875,390 483,390 c -3.00937,0 -3.34202,1.88704 -0.55639,3.15626 4.53446,2.06604 2.79259,9.91875 -4.35428,19.63001 -4.06883,5.52878 -7.38683,7.15946 -9.91401,4.87239 -3.00594,-2.72034 -4.06956,-2.00815 -3.86465,2.58774 0.17511,3.92742 -0.0736,4.37802 -3.31067,5.99845 -3.36257,1.68325 -13.62561,2.22318 -19.8065,1.04201 z M 457,423.66802 c 3.44725,-1.20072 3.95721,-2.38112 2.52884,-5.85355 -0.51759,-1.25827 0.36497,-2.35362 3.48163,-4.32108 3.90844,-2.46729 4.29166,-2.52994 6.00276,-0.98141 1.72234,1.55869 2.05297,1.42209 5.73056,-2.36741 2.14653,-2.21185 4.47,-5.91476 5.16327,-8.22869 1.21571,-4.05768 1.16414,-4.28398 -1.45156,-6.36967 -3.34344,-2.66596 -2.71838,-5.84179 1.58806,-8.06873 2.55356,-1.3205 2.82754,-1.88926 2.28293,-4.73904 -0.83384,-4.3632 -4.05736,-11.18491 -6.20277,-13.12648 -1.45681,-1.31839 -2.26985,-1.38307 -4.90102,-0.38992 -2.75662,1.04051 -3.44256,0.93569 -5.43859,-0.83106 -1.25626,-1.11196 -3.56448,-2.81828 -5.12937,-3.79183 -2.49226,-1.55048 -2.7667,-2.18879 -2.21212,-5.14497 0.59352,-3.16376 0.38302,-3.50248 -3.36491,-5.41453 -6.84024,-3.48963 -20.53166,-1.94952 -18.01565,2.02653 1.86367,2.94515 1.09141,4.97668 -1.81206,4.76687 -1.5125,-0.10929 -3.73292,0.33356 -4.93426,0.98412 -2.67621,1.44924 -6.67006,1.56515 -5.80691,0.16854 0.34478,-0.55786 2.39634,-1.91701 4.55902,-3.02032 3.02094,-1.54117 3.93215,-2.5959 3.93215,-4.55146 0,-3.95538 1.59452,-6.03453 5.97083,-7.78558 C 442.98331,345.02287 443,344.99371 443,339.58988 443,332.61219 442.32684,331 439.41334,331 c -1.75739,0 -2.89662,-1.02698 -4.39302,-3.96016 -2.42285,-4.74918 -2.53139,-6.81764 -0.47686,-9.08786 1.41498,-1.56353 1.15138,-2.05062 -3.16667,-5.85152 C 424.71278,306.23456 419,305.26505 419,310 c 0,2.63533 -2.18855,3.45933 -8.78531,3.30774 C 404.77026,313.18263 402,311.83452 402,309.31017 c 0,-1.03076 -0.64495,-1.25246 -2.25,-0.77343 -3.88829,1.16046 -6.66515,3.37792 -9.39411,7.50165 -2.55552,3.86165 -2.58248,4.05375 -0.83941,5.97982 1.62921,1.80026 1.66989,2.38705 0.42664,6.15413 -0.98628,2.98845 -2.16043,4.46087 -4.1587,5.21514 -3.58047,1.35147 -3.66166,4.57189 -0.30654,12.15842 2.13999,4.83891 2.76641,5.51134 4.59385,4.93133 1.53161,-0.48611 2.89914,0.0787 4.95184,2.04535 2.35697,2.25812 2.6805,3.12559 1.91581,5.13686 -0.84389,2.21959 -0.54146,2.5822 3.65319,4.38024 5.45546,2.33848 11.89624,2.67652 11.09256,0.58218 C 410.907,360.59408 412.98321,359 416.40239,359 c 2.01754,0 4.07567,1.04026 6.27434,3.17129 l 3.27194,3.17129 3.3951,-1.82838 c 3.77534,-2.03315 7.68764,-1.46191 5.77461,0.84316 -0.60878,0.73354 -2.87986,2.13321 -5.04685,3.11038 -3.86585,1.74326 -4.00706,1.73522 -7.50575,-0.42709 C 420.6046,365.82858 419,364.42358 419,363.91844 419,363.4133 418.5782,363 418.06266,363 c -1.75384,0 -6.91177,12.47781 -7.56754,18.30701 -0.65162,5.79225 -0.64544,5.80998 2.42829,6.97018 3.42125,1.29138 3.90087,2.25976 4.24304,8.56685 0.19306,3.55876 -0.19296,4.66735 -2.13538,6.13252 -2.18372,1.64719 -2.26938,2.03391 -1.0842,4.89516 1.42225,3.43363 7.74072,9.57318 11.71636,11.38461 2.13533,0.97292 2.76165,0.8831 3.80656,-0.5459 1.52842,-2.09024 3.53007,-2.15516 8.06233,-0.26146 2.29131,0.95738 3.46788,2.11657 3.46788,3.41667 0,1.08223 0.5625,2.19467 1.25,2.47208 2.3602,0.95236 11.25218,0.54864 14.75,-0.6697 z M 462,398 c 0,-1.1 0.45,-2 1,-2 0.55,0 1,0.9 1,2 0,1.1 -0.45,2 -1,2 -0.55,0 -1,-0.9 -1,-2 z m -19,-1 c -1.1,-1.1 -2,-2.64844 -2,-3.44098 0,-2.64033 2.2437,-2.88629 4.13088,-0.45284 l 1.85644,2.39382 0.63564,-2.29842 c 0.82894,-2.99742 3.76464,-2.4741 4.22201,0.75261 0.65646,4.63129 -5.23183,6.65895 -8.84497,3.04581 z m 22.66667,-3.66667 C 464.44874,392.1154 464.97759,390 466.5,390 c 0.83333,0 1.5,0.88889 1.5,2 0,1.99224 -1.06554,2.60112 -2.33333,1.33333 z M 428.63948,344.30615 C 427.5133,343.17996 427.95359,342 429.5,342 c 0.825,0 1.5,0.42344 1.5,0.94098 0,1.26098 -1.56159,2.1641 -2.36052,1.36517 z m -18.22494,-1.07146 c -2.1443,-1.45135 -3.27346,-4.62978 -2.29456,-6.45887 1.30527,-2.43892 2.67692,-2.2264 3.06047,0.47418 0.41973,2.95537 1.99633,2.68174 3.63347,-0.63063 1.5971,-3.23135 3.18608,-2.54164 3.18608,1.38294 0,4.04658 -4.62447,7.2365 -7.58546,5.23238 z m 18.93054,-6.77782 c -0.32569,-0.84872 -0.3415,-1.79378 -0.0351,-2.10013 0.87571,-0.87571 2.69007,0.60965 2.69007,2.20228 0,1.91885 -1.90756,1.84546 -2.65492,-0.10215 z M 386,390.39343 c -8.525,-5.13734 -16.175,-10.34036 -17,-11.56227 -1.3007,-1.92647 -1.45805,-10.13463 -1.1843,-61.77641 0.18607,-35.10287 0.6993,-59.9448 1.25,-60.50475 0.59008,-0.6 1.25618,-0.6 1.80798,0 0.48052,0.5225 1.22343,25.7 1.6509,55.95 0.86556,61.25163 0.91014,62.77634 1.88124,64.34762 0.37884,0.61297 7.14262,4.97769 15.03063,9.69937 11.91823,7.13413 14.25567,8.91434 13.83198,10.53453 -0.28041,1.0723 -0.79303,2.10779 -1.13914,2.30108 C 401.78318,399.57589 394.525,395.53076 386,390.39343 Z M 533.2,383.8 c -0.66,-0.66 -1.2,-2.89963 -1.2,-4.97695 0,-2.93548 0.56269,-4.14563 2.52562,-5.4318 2.36506,-1.54964 2.65114,-1.54126 4.5,0.13194 2.14929,1.94507 2.59292,6.45254 0.9392,9.54255 -1.15713,2.16212 -4.9277,2.57138 -6.76482,0.73426 z m 0.30555,-22.79102 C 532.76961,359.81821 534.65811,357 536.192,357 c 1.32822,0 0.56147,4.25995 -0.85036,4.72446 -0.6371,0.20961 -1.46334,-0.11235 -1.83609,-0.71548 z M 617.2,347.8 c -1.47378,-1.47378 -1.56265,-6.25387 -0.16482,-8.86574 2.48916,-4.65102 7.06055,-0.0202 6.23476,6.31574 -0.39665,3.04335 -0.90155,3.75 -2.67935,3.75 -1.20482,0 -2.73059,-0.54 -3.39059,-1.2 z m -2.02332,-24.46713 C 615.66323,320.8241 618,320.47962 618,322.91667 618,324.145 617.35431,325 616.42668,325 c -0.93124,0 -1.44138,-0.68037 -1.25,-1.66713 z M 485,320.28173 c -3.575,-1.91032 -34.4,-20.16997 -68.5,-40.57698 -34.1,-20.40702 -64.025,-38.17644 -66.5,-39.48759 -2.475,-1.31116 -4.8283,-2.6972 -5.22955,-3.08009 -1.34336,-1.2819 5.30589,-12.32275 39.22817,-65.13707 45.84278,-71.3736 46.91133,-73 47.96126,-73 0.50715,0 1.19254,0.4376 1.52309,0.97245 0.56382,0.91228 -60.26643,96.55701 -77.77879,122.29329 -4.40332,6.47115 -7.82562,11.90235 -7.60511,12.06933 0.22051,0.16697 1.97593,1.22384 3.90093,2.34858 18.3178,10.70278 132.81077,79.80895 134.74263,81.32854 1.3899,1.0933 2.85272,1.98781 3.25072,1.98781 1.15861,0 10.60787,-14.21426 45.20458,-68 17.86577,-27.775 35.05483,-54.47195 38.19793,-59.32656 4.63299,-7.15582 5.97767,-8.60833 7.10391,-7.67363 1.15265,0.95661 0.60936,2.3745 -3.19047,8.32656 -62.85265,98.45274 -83.38391,129.98343 -84.8093,130.2451 -0.55,0.10097 -3.925,-1.37941 -7.5,-3.28974 z m 145.34508,-70.82486 c -0.32569,-0.84872 -0.32244,-1.81284 0.007,-2.1425 0.86466,-0.86466 3.7309,1.74199 3.07767,2.79894 -0.85349,1.38097 -2.43195,1.04509 -3.08489,-0.65644 z m -0.10028,-8.99796 C 627.72275,238.6924 627.29842,237 629.37756,237 c 1.70547,0 3.93446,2.56395 3.46178,3.98199 -0.21612,0.64835 -1.20742,0.4485 -2.59454,-0.52308 z M 375,238 c 0,-0.55 0.45,-1 1,-1 0.55,0 1,0.45 1,1 0,0.55 -0.45,1 -1,1 -0.55,0 -1,-0.45 -1,-1 z m -8.27732,-2.61065 C 365.86293,234.52959 367.77839,231 369.10473,231 c 0.56891,0 0.89057,0.97725 0.71482,2.17167 -0.32779,2.22766 -1.93555,3.37899 -3.09687,2.21768 z M 666,231.2695 c -8.07802,-4.34876 -77.2557,-45.45921 -161.5,-95.97514 -35.2,-21.10719 -64.64493,-38.72576 -65.43317,-39.15237 -1.90222,-1.029511 -3.65614,-3.886012 -2.86922,-4.67293 0.85968,-0.859682 5.80405,1.957447 56.80239,32.36399 129.01481,76.92199 182,109.16749 182,110.76076 0,1.01342 -3.00263,-0.0957 -9,-3.32431 z m -36.83703,0.13209 c -2.53979,-1.77893 -2.99749,-4.9358 -0.58118,-4.00858 0.86998,0.33385 1.75415,0.60699 1.96481,0.60699 0.21067,0 0.85008,0.87269 1.42092,1.93931 1.37786,2.57456 -0.10943,3.35002 -2.80455,1.46228 z M 361.50555,231.00898 C 360.76961,229.81821 362.65811,227 364.192,227 c 1.32822,0 0.56147,4.25995 -0.85036,4.72446 -0.6371,0.20961 -1.46334,-0.11235 -1.83609,-0.71548 z"
     id="path12"
     inkscape:connector-curvature="0" />
</svg>
