<?xml version="1.0" encoding="UTF-8" standalone="no"?>
<!-- Created with Inkscape (http://www.inkscape.org/) -->

<svg
   xmlns:dc="http://purl.org/dc/elements/1.1/"
   xmlns:cc="http://creativecommons.org/ns#"
   xmlns:rdf="http://www.w3.org/1999/02/22-rdf-syntax-ns#"
   xmlns:svg="http://www.w3.org/2000/svg"
   xmlns="http://www.w3.org/2000/svg"
   xmlns:sodipodi="http://sodipodi.sourceforge.net/DTD/sodipodi-0.dtd"
   xmlns:inkscape="http://www.inkscape.org/namespaces/inkscape"
   version="1.1"
   class="themed_svg"
   width="100%"
   height="inherit"
   viewBox="0 0 1000 619"
   sodipodi:docname="warp.svg"
   inkscape:version="0.92.3 (2405546, 2018-03-11)">
  <metadata
     id="metadata8">
    <rdf:RDF>
      <cc:Work
         rdf:about="">
        <dc:format>image/svg+xml</dc:format>
        <dc:type
           rdf:resource="http://purl.org/dc/dcmitype/StillImage" />
        <dc:title></dc:title>
      </cc:Work>
    </rdf:RDF>
  </metadata>
  <defs
     id="defs6" />
  <sodipodi:namedview
     pagecolor="#ffffff"
     bordercolor="#666666"
     borderopacity="1"
     objecttolerance="10"
     gridtolerance="10"
     guidetolerance="10"
     inkscape:pageopacity="0"
     inkscape:pageshadow="2"
     inkscape:window-width="640"
     inkscape:window-height="1211"
     id="namedview4"
     showgrid="false"
     inkscape:zoom="5.568"
     inkscape:cx="201.16088"
     inkscape:cy="287.00546"
     inkscape:window-x="1606"
     inkscape:window-y="32"
     inkscape:window-maximized="0"
     inkscape:current-layer="svg2" />
  <path
     style="fill:#000000"
     d="m 205.0318,477.75 c 0.0446,-1.7512 2.46155,-4.75 3.82844,-4.75 1.38614,0 1.39557,0.19697 0.16451,3.4349 -0.98879,2.6007 -4.05132,3.60937 -3.99295,1.3151 z m 94.65855,-2.5 c -1.35985,-2.38465 -5.61548,-21.28154 -5.09696,-22.63278 0.94158,-2.45372 2.29672,-1.93896 2.98209,1.13278 0.33747,1.5125 1.72542,6.5114 3.08434,11.10867 1.35892,4.59726 2.2305,8.98476 1.93685,9.75 -0.5753,1.49921 -2.21125,1.86022 -2.90632,0.64133 z m -92.22163,-12 c 0.75696,-5.16745 1.75436,-6.8482 3.44415,-5.80385 2.29025,1.41545 0.018,10.55385 -2.62424,10.55385 -1.23922,0 -1.38879,-0.86651 -0.81991,-4.75 z m -37.94588,-1.5 c 1.06222,-3.63437 7.8658,-15.07243 9.22716,-15.51255 2.29088,-0.74063 1.29154,2.94108 -2.82005,10.38944 -2.24628,4.06927 -4.74099,7.37311 -5.56738,7.37311 -1.08098,0 -1.31448,-0.62565 -0.83973,-2.25 z m 183.39761,-1.72367 c -5.25941,-0.93228 -11.64781,-3.9591 -14.11546,-6.6879 -3.2631,-3.60843 -5.76055,-10.70748 -5.78303,-16.43839 -0.0182,-4.64715 0.48512,-6.29997 2.95832,-9.71413 1.63916,-2.26279 4.28151,-4.78705 5.8719,-5.60947 2.7587,-1.42658 2.84437,-1.67232 1.86373,-5.34629 -0.56534,-2.11805 -0.72127,-5.07265 -0.34652,-6.56578 0.8282,-3.29981 6.95144,-10.2618 10.7558,-12.22911 6.34755,-3.28245 17.00084,-0.63949 22.16618,5.49917 2.19986,2.61439 2.70863,4.21538 2.70863,8.52358 v 5.30456 l 4.38323,1.10371 c 4.79652,1.20778 9.27371,5.47708 11.57819,11.04057 C 398.07426,436.42192 389.94082,447 381.04966,447 379.37235,447 378,447.52002 378,448.15561 c 0,1.94114 -4.76645,7.5378 -8.22859,9.66181 -3.9575,2.42792 -10.65934,3.30643 -16.85096,2.20891 z M 364.75,456.01365 c 2.53333,-0.0154 9.8418,-6.8098 11.21771,-10.42872 0.68104,-1.79127 1.45709,-2.22638 3.33173,-1.86802 C 384.24869,444.66302 392,438.3149 392,433.31548 c 0,-1.32814 -0.63088,-3.63479 -1.40196,-5.1259 -1.64232,-3.17589 -9.00778,-7.63006 -11.21595,-6.78271 -0.83984,0.32228 -2.31261,0.1655 -3.27283,-0.3484 -1.45113,-0.77662 -1.67118,-1.96675 -1.3035,-7.0499 0.39019,-5.39431 0.16237,-6.41529 -1.9317,-8.65708 C 369.47235,401.70983 365.69531,400 361.05254,400 c -3.25354,0 -4.88041,0.73506 -8.29966,3.75 -2.33908,2.0625 -4.60989,4.2 -5.04625,4.75 -0.76015,0.95814 -0.39828,6.20607 0.79298,11.5 0.48602,2.15985 0.02,2.74648 -3.42502,4.31157 -5.74306,2.6091 -8.43599,7.40922 -7.85347,13.99873 0.59644,6.74704 3.50598,12.64354 7.33842,14.87216 3.34487,1.9451 12.76116,3.85631 15.94046,3.23543 1.1,-0.21482 3.0125,-0.39673 4.25,-0.40424 z M 350,444 c 0,-1.65 0.45,-3 1,-3 0.55,0 1,1.35 1,3 0,1.65 -0.45,3 -1,3 -0.55,0 -1,-1.35 -1,-3 z m -6,-1.87756 c 0,-1.92625 2.64144,-4.81434 3.56161,-3.89417 C 348.26773,438.9344 345.87864,444 344.83948,444 344.37777,444 344,443.1551 344,442.12244 Z M 823.61563,445.75 C 819.64048,438.44454 817,432.73098 817,431.4349 c 0,-0.23919 0.5625,-0.42921 1.25,-0.42225 1.42728,0.0144 12.75,19.0367 12.75,21.4201 0,3.84823 -3.25889,0.89898 -7.38437,-6.68275 z m -691.98055,5.46856 C 130.57772,449.50772 140.031,433 142.06809,433 c 1.6747,0 0.98928,2.4574 -2.53842,9.10089 -3.63545,6.84638 -6.93976,10.66262 -7.89459,9.11767 z m 470,0 C 600.57772,449.50772 610.031,433 612.06809,433 c 1.6747,0 0.98928,2.4574 -2.53842,9.10089 -3.63545,6.84638 -6.93976,10.66262 -7.89459,9.11767 z M 107,434.23978 C 107,433.09984 111.93694,428 113.04047,428 c 1.73557,0 1.00247,2.61104 -1.35492,4.82569 C 109.39119,434.98112 107,435.70278 107,434.23978 Z m 470,0 C 577,433.09984 581.93694,428 583.04047,428 c 1.73557,0 1.00247,2.61104 -1.35492,4.82569 C 579.39119,434.98112 577,435.70278 577,434.23978 Z M 116,423.15499 C 116,421.95393 119.43293,419 120.82874,419 c 1.52279,0 1.50565,2.26561 -0.0287,3.8 -1.37094,1.37094 -4.8,1.62454 -4.8,0.35499 z m 470,0 C 586,421.95393 589.43293,419 590.82874,419 c 1.52279,0 1.50565,2.26561 -0.0287,3.8 -1.37094,1.37094 -4.8,1.62454 -4.8,0.35499 z m 94.72221,-2.20978 C 663.8601,417.74219 658.23705,415.9284 643.5,408.93869 c -14.23019,-6.7493 -30.1984,-19.36988 -37.09014,-29.31443 -14.78348,-21.33205 -18.61885,-29.45315 -21.9081,-46.38864 -2.67572,-13.77661 1.58001,-35.20244 10.27604,-51.73562 9.77414,-18.58292 20.52751,-34.79486 26.59061,-40.08843 2.27237,-1.98397 5.48159,-4.8396 7.13159,-6.34585 2.63531,-2.40573 5.61361,-3.25483 24.5,-6.98487 11.825,-2.33542 23.55518,-4.67864 26.06707,-5.20717 l 4.56706,-0.96094 -1.56706,-5.1732 C 679.9715,209.82165 672.74514,202.63268 663.23005,198 c -3.95377,-1.925 -7.19798,-3.75149 -7.20936,-4.05887 -0.13083,-3.53375 5.82351,-5.03622 51.47931,-12.98989 12.65,-2.20375 23.83279,-4.18903 24.85065,-4.41173 2.2167,-0.485 6.64935,1.37228 6.64935,2.78607 0,0.55251 -2.65522,3.76969 -5.90048,7.1493 -6.35124,6.61415 -8.08439,10.63445 -8.09394,18.77512 -0.005,4.04473 -0.29581,4.75 -1.96027,4.75 -1.45218,0 -2.12813,-0.92457 -2.62938,-3.59646 -1.09185,-5.82005 1.77167,-12.60899 9.47741,-22.46937 l 2.00516,-2.56583 -25.69925,4.67808 c -14.13459,2.57294 -29.05118,5.24692 -33.14797,5.94216 l -7.44873,1.26408 3.80182,1.95045 c 5.0989,2.6159 11.93861,9.59809 14.77946,15.08736 1.27389,2.46149 3.80091,5.71183 5.6156,7.22297 2.8517,2.3747 3.73374,2.62248 6.5,1.82597 l 3.20057,-0.92156 -4.25,-2.39306 C 691.14939,213.71584 689.80861,212 692.10498,212 c 0.60773,0 3.10529,1.35 5.55013,3 2.44483,1.65 5.02259,3 5.72836,3 2.58734,0 2.43531,-1.28161 -0.43892,-3.70011 C 701.32505,212.93717 700,211.39638 700,210.87592 c 0,-1.24103 3.82599,0.75354 7,3.64924 l 2.5,2.2808 32,-6.37024 c 17.6,-3.50363 33.35,-6.37429 35,-6.37924 1.65,-0.005 5.7,1.15197 9,2.57095 3.3,1.41898 8.63401,3.69497 11.85334,5.05776 7.77344,3.29059 20.15451,12.21821 30.84056,22.23821 10.2175,9.58065 17.103,18.07369 21.9516,27.0766 3.86151,7.17008 8.57423,20.61361 7.57613,21.61171 -1.02304,1.02304 -3.71432,-0.41408 -4.38026,-2.33903 -6.45639,-18.66245 -12.66625,-28.50747 -26.02839,-41.26507 -14.88774,-14.21418 -30.81816,-24.61639 -44.32079,-28.94049 l -6.50781,-2.08407 -71.77068,14.35974 -71.77068,14.35973 -7.05497,7.39874 c -9.54017,10.00502 -15.88153,19.15253 -22.80744,32.90008 -6.77818,13.45431 -10.56632,23.96433 -13.15527,36.49866 -2.44559,11.84025 -2.38663,14.25932 0.62116,25.48651 2.80106,10.45552 7.33484,20.51129 13.15252,29.17187 6.5684,9.77815 18.70561,23.19729 24.36249,26.93567 16.11371,10.64881 28.41545,16.18643 40.93849,18.42843 4.125,0.7385 10.425,2.00173 14,2.80718 8.04897,1.81342 33.74961,2.82897 40.5,1.60033 2.75,-0.50053 9.05,-1.35847 14,-1.90653 9.49734,-1.05155 11.29164,-1.49296 32.07761,-7.89124 16.78786,-5.16758 21.71863,-7.1276 33.92239,-13.48439 24.58843,-12.80782 41.97763,-28.60161 51.27727,-46.57272 l 3.91992,-7.57505 6.95627,-2.56773 c 3.82595,-1.41226 9.07212,-4.02348 11.65815,-5.80271 7.37732,-5.07574 22.95093,-21.11073 25.9101,-26.67773 4.43033,-8.33465 7.55374,-20.0992 9.54498,-35.95189 1.73294,-13.79633 2.22881,-15.69521 6.17939,-23.6636 2.36239,-4.76498 6.42021,-11.28998 9.01739,-14.5 l 4.72214,-5.8364 -12.64103,-0.10586 c -7.10513,-0.0595 -14.29553,-0.65189 -16.41902,-1.3527 -3.45598,-1.14058 -3.9793,-1.05775 -6.13958,0.97173 -3.63083,3.41099 -7.27908,12.06664 -9.59833,22.77251 -1.15744,5.34288 -2.81245,11.51432 -3.67779,13.71432 -2.23532,5.68298 -7.65755,12.52852 -12.53262,15.82237 -3.61043,2.4394 -4.2242,2.59298 -4.52331,1.13188 -0.20013,-0.97759 1.57248,-3.64379 4.20339,-6.32236 2.50221,-2.54754 5.49952,-6.88189 6.66069,-9.63189 1.16118,-2.75 2.5271,-5.9 3.03538,-7 0.50829,-1.1 1.83489,-5.97929 2.94801,-10.84286 2.16508,-9.45997 7.56477,-22.26168 10.35692,-24.55448 1.41049,-1.15823 3.10831,-1.20079 9.92168,-0.24873 10.39485,1.45252 24.10427,1.47147 30.76723,0.0425 7.83138,-1.67953 8.34556,-0.16228 2.31354,6.82679 -6.83256,7.91664 -10.85183,13.9952 -14.89904,22.53262 -2.85116,6.01442 -3.76525,9.72857 -5.38475,21.87962 -3.04173,22.82202 -8.83556,37.55858 -18.93716,48.16655 -11.18413,11.74477 -25.88175,22.02058 -34.45572,24.08963 -1.99589,0.48164 -3.26163,1.74633 -4.34656,4.34292 -6.18177,14.79506 -24.47322,32.92865 -46.52955,46.12798 -8.81393,5.27459 -34.16368,17.11107 -36.68269,17.12813 -0.75608,0.005 -6.38108,1.55103 -12.5,3.43535 -20.8247,6.41296 -35.54052,8.60511 -56.89386,8.47523 -11.27207,-0.0686 -19.21896,-0.66622 -26.00923,-1.95606 z m -264.31593,-32.9604 c -3.24845,-2.20836 -7.48128,-5.328 -9.40628,-6.93253 -2.88465,-2.40443 -3.20869,-3.02963 -1.84305,-3.55609 2.65379,-1.02304 20.55773,11.53841 19.31403,13.55077 -0.93935,1.51989 -1.81197,1.18856 -8.0647,-3.06215 z m 470,0 c -3.24845,-2.20836 -7.48128,-5.328 -9.40628,-6.93253 -2.88465,-2.40443 -3.20869,-3.02963 -1.84305,-3.55609 2.65379,-1.02304 20.55773,11.53841 19.31403,13.55077 -0.93935,1.51989 -1.81197,1.18856 -8.0647,-3.06215 z M 141.59364,382.99052 C 134.11165,380.0688 128,373.35145 128,368.04966 128,366.72597 127.3482,366 126.15972,366 c -1.01215,0 -4.57627,-1.36719 -7.92027,-3.03821 -4.76977,-2.38348 -6.79755,-4.15603 -9.40972,-8.22534 -2.93952,-4.57926 -3.36915,-6.12753 -3.66607,-13.21179 -0.52036,-12.4151 3.81017,-21.95421 13.44139,-29.60814 4.77441,-3.79423 7.62873,-4.46844 13.67443,-3.22999 4.51349,0.92458 4.95173,0.84073 5.71046,-1.09255 0.92589,-2.35923 7.11271,-8.37299 11.2396,-10.92522 4.48402,-2.77309 15.59476,-4.93195 22.27046,-4.32724 15.76472,1.42804 24.46922,10.81434 24.49023,26.40848 0.008,5.5995 0.33379,7.25 1.43304,7.25 2.28617,0 7.73087,5.12467 9.2127,8.67119 2.17835,5.2135 1.67503,11.17481 -1.50528,17.82881 -1.57725,3.3 -3.93939,6.96937 -5.24921,8.15415 C 196.32403,363.87201 190.35699,366 184.8913,366 c -4.53834,0 -4.95699,0.21788 -6.24458,3.25 -2.12921,5.01398 -9.40059,11.51421 -15.38481,13.7532 -6.72149,2.51483 -15.20848,2.50986 -21.66827,-0.0127 z m 19.52399,-3.00655 c 4.97199,-1.38108 9.88793,-4.86848 12.65888,-8.98029 1.87155,-2.7772 2.19502,-4.21272 1.66122,-7.37228 -0.64113,-3.7948 -0.58536,-3.89608 1.69969,-3.08672 1.29942,0.46025 5.14291,0.86348 8.54109,0.89607 7.21626,0.0692 10.11371,-1.60048 14.80587,-8.53204 2.50607,-3.70212 2.98688,-5.39707 3,-10.57554 0.0132,-5.21147 -0.37168,-6.58054 -2.48438,-8.83732 -1.375,-1.46877 -3.9625,-3.28323 -5.75,-4.03214 -3.24219,-1.35838 -3.25005,-1.3792 -3.27196,-8.66268 -0.0482,-16.01532 -7.76427,-24.14756 -22.97804,-24.2173 -4.29782,-0.0197 -9.86765,0.68879 -13.0454,1.6594 -6.54329,1.99858 -14.27148,7.69347 -15.95463,11.75693 -1.12635,2.71926 -1.52146,2.87951 -6.91126,2.80309 -3.14414,-0.0446 -7.29086,0.43849 -9.21495,1.0735 C 115.48219,316.64612 109,328.39787 109,340.84173 c 0,5.73204 0.43869,7.45846 2.86904,11.29072 3.27985,5.17179 9.61331,9.29406 15.88096,10.33649 4.12514,0.68609 4.25,0.81783 4.25,4.4841 0,9.97398 15.36609,16.85073 29.11763,13.03093 z M 186,350.05902 C 186,348.92656 186.45,348 187,348 c 0.55,0 1,0.64844 1,1.44098 0,0.79254 -0.45,1.7191 -1,2.05902 -0.55,0.33992 -1,-0.30852 -1,-1.44098 z m -60.40344,-2.90279 c -0.34605,-0.55992 -0.1419,-1.31919 0.45366,-1.68727 1.53748,-0.95021 2.52947,0.35135 1.24598,1.63484 -0.71818,0.71818 -1.27752,0.73543 -1.69964,0.0524 z m 64.53274,-2.97464 c -1.29112,-1.81321 -2.06089,-3.58333 -1.71061,-3.93361 1.09322,-1.09322 4.79497,3.40406 4.41707,5.36633 -0.30045,1.5601 -0.74172,1.3265 -2.70646,-1.43272 z M 122,340.10699 c 0,-1.2501 2.82293,-2.20251 3.46223,-1.1681 0.28946,0.46835 -0.18294,1.12369 -1.04976,1.45633 C 122.31621,341.19963 122,341.16185 122,340.10699 Z m -0.78305,-7.27284 c 0.24184,-0.73378 1.46708,-1.48452 2.72276,-1.6683 1.55126,-0.22704 2.14211,0.0935 1.84334,1 -0.24184,0.73378 -1.46708,1.48452 -2.72276,1.6683 -1.55126,0.22704 -2.14211,-0.0935 -1.84334,-1 z m -44.294495,39.75929 c 0.64204,-0.77361 4.18464,-2.61783 7.872445,-4.09827 5.603177,-2.24935 9.975831,-4.15582 14.4551,-6.30242 0.4125,-0.19768 0.75,0.52633 0.75,1.60891 0,2.5718 -3.00484,4.45308 -12.159524,7.61285 -8.588904,2.96449 -12.775052,3.41651 -10.918021,1.17893 z M 633.5,373 c -0.33992,-0.55 0.0835,-1 0.94098,-1 0.85746,0 1.55902,0.45 1.55902,1 0,0.55 -0.42344,1 -0.94098,1 -0.51754,0 -1.2191,-0.45 -1.55902,-1 z m -10.40377,-8.8202 c -1.12769,-2.1071 -0.5394,-5.1798 0.99171,-5.1798 1.36582,0 2.28596,5.0261 1.13148,6.18058 -0.71219,0.71219 -1.37319,0.40062 -2.12319,-1.00078 z M 579.75,360.9199 c -3.06604,-1.7858 -1.89421,-2.92036 3,-2.90459 6.00176,0.0193 8.4128,1.29201 5.45084,2.8772 -2.55405,1.36689 -6.13115,1.37848 -8.45084,0.0274 z m -154,-1.60923 c -0.9625,-0.25152 -1.75,-0.93057 -1.75,-1.50899 0,-1.24255 5.93236,-0.26932 7.41875,1.21707 1.0166,1.0166 -2.25165,1.18491 -5.66875,0.29192 z m 139.74511,-2.92822 c -16.00891,-8.39949 -25.69661,-20.85183 -28.36864,-36.46436 -1.558,-9.10334 -1.40971,-24.41365 0.29986,-30.95799 2.24496,-8.59384 10.8778,-24.94426 13.18391,-24.97005 0.48937,-0.005 9.32726,2.7407 19.63976,6.10261 17.45607,5.69073 20.87628,7.47519 17.87847,9.32794 -1.02244,0.6319 -22.7171,-6.3794 -30.79943,-9.95379 C 554.26119,268.11007 551.55294,267 551.3107,267 c -0.87857,0 -8.18238,16.64987 -9.86559,22.48973 -1.4043,4.87219 -1.60941,8.23053 -1.09932,18 0.34489,6.60565 1.04026,13.71758 1.54526,15.80429 2.28922,9.45926 14.23089,23.5565 24.78768,29.26204 5.37943,2.90738 7.26236,5.29691 4.81638,6.11224 -0.55269,0.18423 -3.25269,-0.8444 -6,-2.28585 z m 49.51104,0.13373 c -1.41436,-3.72006 -1.25309,-6.06635 0.51802,-7.53624 2.0155,-1.67272 2.21623,-1.33474 2.62649,4.42234 0.39715,5.57318 -1.49652,7.44843 -3.14451,3.1139 z m -203.44261,-2.64486 c -4.04492,-3.18173 -1.7509,-4.51771 3.31748,-1.93202 2.26544,1.15574 4.11898,2.5422 4.11898,3.08102 0,1.75342 -4.66247,1.03302 -7.43646,-1.149 z M 609.79378,348.75 c -0.79218,-2.35654 0.70356,-7.25 2.21604,-7.25 1.87598,0 2.46651,3.74145 1.01779,6.44842 -1.24091,2.31864 -2.60979,2.65796 -3.23383,0.80158 z M 423.54471,329.89468 c -9.36001,-1.99137 -12.06228,-3.33873 -9.66619,-4.8196 2.29763,-1.42002 19.03483,2.91066 21.16393,5.47607 1.57368,1.89616 0.10667,1.8124 -11.49774,-0.65647 z M 739,330.33142 c -3.23937,-1.10287 -7.93577,-3.42202 -8.31926,-4.10818 -0.22232,-0.39778 -0.70001,-1.96074 -1.06153,-3.47324 -0.88716,-3.71161 1.33778,-3.65202 4.11941,0.11034 4.14161,5.60182 13.24677,4.74398 15.28778,-1.44033 1.40234,-4.24913 2.9736,-4.43633 2.9736,-0.35427 0,4.12001 -1.4719,6.60981 -4.97998,8.42391 -2.95425,1.5277 -5.28633,1.77247 -8.02002,0.84177 z m 135.59105,-8.1841 c -0.28984,-0.46897 0.10331,-1.70647 0.87366,-2.75 1.08055,-1.46371 1.67492,-1.62701 2.60075,-0.71454 0.66006,0.65053 0.92948,1.88803 0.59871,2.75 -0.64313,1.67596 -3.20155,2.12478 -4.07312,0.71454 z M 61.647556,318.17668 C 60.7414,317.99885 60,317.47125 60,317.00423 c 0,-1.61266 6.53243,-2.90476 15.994094,-3.1636 8.292019,-0.22685 9.535853,-0.0429 9.823907,1.45284 0.181397,0.94192 -0.265946,1.91414 -0.994094,2.16049 -1.655065,0.55995 -20.941181,1.16136 -23.176351,0.72272 z M 882,314 c 0,-2.2 0.45,-4 1,-4 0.55,0 1,1.8 1,4 0,2.2 -0.45,4 -1,4 -0.55,0 -1,-1.8 -1,-4 z m 7.60699,-3.58179 C 888.60187,307.79891 888.91798,306 890.38337,306 c 0.76085,0 1.58761,0.7875 1.83724,1.75 0.92343,3.56046 -1.372,5.90384 -2.61362,2.66821 z m -192.85873,-2.94267 c -1.38845,-1.38846 -2.74743,-3.69085 -3.01994,-5.11642 -1.12224,-5.8706 7.52169,-8.62863 12.80366,-4.08527 2.31518,1.99143 2.555,2.7456 1.93092,6.07221 -0.51528,2.74667 -1.38824,4.05526 -3.15284,4.72615 -3.8794,1.47495 -5.85942,1.1057 -8.5618,-1.59667 z m 5.81061,-3.95654 c 1.68015,-1.28188 1.73946,-1.61594 0.44113,-2.48468 -2.1721,-1.45342 -3.69931,-1.26029 -4.39626,0.55592 -1.25006,3.25763 0.86287,4.28802 3.95513,1.92876 z M 83.008837,296.90141 C 75.042726,295.34149 69.82784,291.94786 66.25,285.99545 c -3.713829,-6.17864 -4.131785,-10.66766 -1.603776,-17.22521 2.09152,-5.42532 7.737603,-11.41178 12.130186,-12.86146 2.860384,-0.94402 3.289362,-1.46309 2.698766,-3.2656 -2.573309,-7.85379 -0.441189,-14.16194 6.741695,-19.94618 3.179808,-2.56063 4.782136,-3.06149 11.089289,-3.46625 8.63103,-0.55391 10.56715,0.23121 14.72522,5.97127 2.42159,3.34291 2.96862,5.09601 2.96862,9.51376 0,2.97864 -0.42708,6.2137 -0.94906,7.18904 -0.77783,1.45338 -0.32552,2.07068 2.50684,3.42134 6.89461,3.28782 9.23855,11.23241 5.48482,18.59034 -2.14934,4.21305 -3.59401,5.0835 -8.437,5.0835 -2.89086,0 -3.45333,0.49981 -5.34542,4.75 -2.58216,5.80027 -6.08328,9.60894 -11.26138,12.25061 -4.177624,2.13127 -6.83312,2.30225 -13.989963,0.9008 z m 13.790823,-4.3064 c 4.1151,-2.14108 6.75009,-5.54493 8.95365,-11.56617 1.98963,-5.43667 2.02667,-5.46944 5.87447,-5.19767 6.1441,0.43397 7.87222,-1.50467 7.87222,-8.83117 0,-7.17632 -1.5465,-9 -7.63211,-9 -2.06242,0 -3.96005,-0.3401 -4.21695,-0.75577 -0.2569,-0.41567 0.39154,-2.52103 1.44099,-4.67856 3.23298,-6.64666 2.12386,-13.34545 -2.97338,-17.95839 -1.74143,-1.57596 -3.1058,-1.79554 -8.25548,-1.32858 -6.819534,0.61837 -10.028777,2.45011 -13.688975,7.81325 -1.809062,2.65074 -2.211264,4.2969 -1.809995,7.40805 0.283751,2.2 0.655408,5.07946 0.825905,6.39879 0.261919,2.02678 -0.342446,2.61904 -3.896992,3.819 -9.844812,3.32343 -15.069996,15.92087 -10.399423,25.07205 2.29847,4.50345 4.565769,6.64431 9.136163,8.62669 4.419486,1.91691 15.231104,2.01972 18.769907,0.17848 z M 84.666667,284.33333 C 84.3,283.96667 84,282.80417 84,281.75 c 0,-2.59345 2.415181,-1.66977 2.819551,1.07833 0.309368,2.10247 -0.788169,2.86972 -2.152884,1.505 z m -7.561475,-2.70658 c -1.402807,-1.69028 -0.483918,-4.35369 1.951769,-5.65723 2.185167,-1.16947 3.763613,0.60991 2.055907,2.31761 C 80.50079,278.89921 80,280.21 80,281.2 c 0,2.14135 -1.311373,2.33467 -2.894808,0.42675 z m 22.923768,-38.58769 c -0.80907,-0.51167 -1.16598,-1.23537 -0.79313,-1.60823 0.9151,-0.91509 3.76417,0.24885 3.76417,1.53779 0,1.2701 -1.03529,1.29465 -2.97104,0.0704 z m 587.52053,46.04101 c -0.56285,-0.9107 3.9728,-5.08007 5.52635,-5.08007 1.80732,0 2.01038,2.24725 0.36713,4.06301 -1.8455,2.03927 -4.93248,2.572 -5.89348,1.01706 z M 784,287 c -5.82944,-5.82944 1.44129,-14.36252 8.51352,-9.99164 5.04879,3.12032 5.86006,6.63405 2.29792,9.95268 -2.8473,2.65266 -8.17853,2.67187 -10.81144,0.039 z m 6.82391,-4.33589 c 0.39322,-2.02757 -2.53171,-3.35631 -4.04875,-1.83927 -0.7872,0.7872 -0.72677,1.52854 0.21731,2.66608 1.56159,1.8816 3.38238,1.48868 3.83144,-0.82681 z M 407,285.17782 c 0,-1.07811 2.02004,-1.77844 13,-4.50702 3.025,-0.75173 6.175,-1.54768 7,-1.76879 0.825,-0.2211 1.5,0.24331 1.5,1.03204 0,1.78502 -8.49525,4.81286 -15.96754,5.69108 C 408.78807,286.06521 407,285.92064 407,285.17782 Z m 453.65922,-3.9202 c -0.28999,-0.46921 -0.15236,-1.4597 0.30584,-2.20108 1.01419,-1.64101 4.37608,-0.58055 3.78523,1.19399 -0.50041,1.50292 -3.35095,2.20464 -4.09107,1.00709 z m -77.21307,-15.34475 c -1.0347,-1.67419 1.10601,-3.18979 3.45319,-2.44482 2.93431,0.93132 2.68373,3.53195 -0.34032,3.53195 -1.34254,0 -2.74333,-0.48921 -3.11287,-1.08713 z m 32.03451,-5.31255 c -1.79822,-1.32323 -1.82484,-1.5179 -0.28907,-2.11347 2.50077,-0.9698 5.30841,-0.16949 5.30841,1.51315 0,2.03657 -2.63867,2.35216 -5.01934,0.60032 z M 811,252.46862 c 0,-2.15172 2.68357,-2.93383 5.56377,-1.62152 C 820.231,252.518 819.49596,254 815,254 c -2.92532,0 -4,-0.41144 -4,-1.53138 z m -480.34481,-1.92727 c -10.29563,-3.6709 -14.47787,-14.07902 -9.65804,-24.03546 2.99205,-6.18075 7.09817,-8.77708 13.786,-8.71699 3.03139,0.0272 6.5703,-0.35298 7.86424,-0.84494 1.34539,-0.51151 3.3292,-0.52316 4.63367,-0.0272 3.01156,1.14499 9.65334,8.02273 10.3319,10.69895 0.87894,3.46647 -1.44895,10.05996 -4.60266,13.03655 -1.62114,1.53011 -3.43073,3.94854 -4.0213,5.3743 -2.26728,5.4737 -10.17964,7.42215 -18.33381,4.51479 z M 344.23813,246.75 c 0.89121,-0.6875 1.76472,-2.37079 1.94113,-3.74063 0.19767,-1.535 1.36178,-2.98802 3.03393,-3.78693 1.80543,-0.86258 3.05822,-2.53859 3.74442,-5.00936 1.52378,-5.48654 1.3461,-6.30451 -2.15378,-9.91547 -3.2411,-3.34397 -8.22972,-4.47172 -10.35951,-2.34193 -0.60758,0.60758 -2.51775,0.55919 -5.24415,-0.13284 -3.92855,-0.99717 -4.50254,-0.88855 -6.83933,1.29432 -6.03765,5.63995 -7.27448,14.45515 -2.77793,19.79901 3.82664,4.54769 14.80511,6.80388 18.65522,3.83383 z m -15.18162,-7.64441 c -0.89805,-1.67803 -0.93934,-2.62276 -0.14915,-3.41295 1.75791,-1.75791 3.31352,0.53606 2.27228,3.3508 l -0.88134,2.38246 z M 335,239 c 0,-1.1 0.45,-2 1,-2 0.55,0 1,0.9 1,2 0,1.1 -0.45,2 -1,2 -0.55,0 -1,-0.9 -1,-2 z m 466,2.10699 c 0,-1.01369 3.04579,-2.39454 3.74326,-1.69706 0.25136,0.25135 0.16039,0.93695 -0.20214,1.52354 C 803.74331,242.22435 801,242.35878 801,241.10699 Z M 397,208.07544 c 0,-0.65335 1.96555,-2.05736 4.36789,-3.12003 2.40234,-1.06267 4.93244,-2.61236 5.62245,-3.44377 0.69,-0.8314 1.81935,-1.51164 2.50966,-1.51164 0.69031,0 1.81531,-0.675 2.5,-1.5 0.68469,-0.825 1.86479,-1.5 2.62244,-1.5 2.26226,0 1.56271,2.77681 -1.18489,4.70332 -1.40935,0.98817 -3.88833,2.85253 -5.50885,4.14302 C 404.63287,208.47095 397,210.0278 397,208.07544 Z m -291.9174,-7.93229 c -2.42957,-0.90373 -4.62747,-2.27433 -4.88421,-3.04577 -0.69542,-2.08956 6.67104,-0.6724 9.0927,1.74926 2.69154,2.69155 0.96873,3.22229 -4.20849,1.29651 z m 12.32508,-14.42541 C 110.60589,181.00884 105,176.42154 105,175.56456 c 0,-2.81366 14.16126,5.5834 19.92431,11.81431 2.22707,2.40787 2.26775,2.61851 0.5,2.58887 -1.05837,-0.0177 -4.66586,-1.93024 -8.01663,-4.25 z m 470,0 C 580.60589,181.00884 575,176.42154 575,175.56456 c 0,-2.81366 14.16126,5.5834 19.92431,11.81431 2.22707,2.40787 2.26775,2.61851 0.5,2.58887 -1.05837,-0.0177 -4.66586,-1.93024 -8.01663,-4.25 z M 358,171.45465 c 0,-0.88864 1.53827,-3.94198 3.41837,-6.78518 1.8801,-2.84321 3.97733,-6.40697 4.66051,-7.91947 0.68318,-1.5125 1.61992,-2.75 2.08164,-2.75 1.92053,0 0.59938,4.95137 -2.89913,10.86527 C 361.38173,171.42345 358,174.49222 358,171.45465 Z m -211.2629,-9.15468 c -5.57503,-6.51077 -7.14796,-9.78383 -4.38435,-9.12329 C 144.48368,153.686 154,165.10739 154,167.15559 c 0,3.01412 -1.22612,2.1944 -7.2629,-4.85562 z M 177.81271,151.75 C 174.23607,147.31599 168,138.22812 168,137.44987 c 0,-2.46072 11.71822,10.41806 14.91613,16.39341 2.10484,3.93294 -1.40307,2.49409 -5.10342,-2.09328 z m 151.64617,3.18347 c -0.92034,-1.48915 0.14673,-2.29879 2.06137,-1.56407 0.88358,0.33906 1.32643,1.06965 0.98412,1.62354 -0.81058,1.31154 -2.21511,1.28411 -3.04549,-0.0595 z m 470,0 c -0.92034,-1.48915 0.14673,-2.29879 2.06137,-1.56407 0.88358,0.33906 1.32643,1.06965 0.98412,1.62354 -0.81058,1.31154 -2.21511,1.28411 -3.04549,-0.0595 z M 335,149.64752 C 335,148.43091 345.99692,139 347.41555,139 c 1.63478,0 0.24475,3.93524 -2.16555,6.13077 -5.62574,5.12443 -10.25,7.16215 -10.25,4.51675 z m 470,0 C 805,148.43091 815.99692,139 817.41555,139 c 1.63478,0 0.24475,3.93524 -2.16555,6.13077 -5.62574,5.12443 -10.25,7.16215 -10.25,4.51675 z m -559.33939,-2.38765 c -1.11325,-1.80127 -1.74032,-17.79706 -0.75471,-19.25151 1.87466,-2.76639 2.88442,0.3157 3.24255,9.89719 0.24339,6.51191 -0.005,9.52777 -0.80681,9.80279 -0.6371,0.21848 -1.39356,0.0167 -1.68103,-0.44847 z m 62.93798,-4.10035 c -0.256,-0.41422 2.0843,-5.00707 5.20066,-10.20632 3.79996,-6.33974 5.78333,-8.85078 6.02199,-7.6241 0.45774,2.35266 -1.41879,6.94699 -5.26597,12.89278 -3.03768,4.69469 -5.06713,6.37696 -5.95668,4.93764 z m 470,0 c -0.256,-0.41422 2.0843,-5.00707 5.20066,-10.20632 3.79996,-6.33974 5.78333,-8.85078 6.02199,-7.6241 0.45774,2.35266 -1.41879,6.94699 -5.26597,12.89278 -3.03768,4.69469 -5.06713,6.37696 -5.95668,4.93764 z"
     id="path12"
     inkscape:connector-curvature="0" />
</svg>
